<svg width="1920" height="1581" viewBox="0 0 1920 1581" fill="none" xmlns="http://www.w3.org/2000/svg">
<path opacity="0.2" d="M-428.568 1498.06C-376.432 1548.42 -307.138 1567.79 -242.025 1576.67C-110.863 1594.44 -98.6528 1405.72 -2.28908 1396.2C82.9342 1387.75 138.679 1363.99 184.103 1285.41C260.521 1153.27 385.804 1226.76 463.953 1312.83C584.566 1445.65 711.994 1626.24 907.828 1569.37C1053.45 1527.05 1145.08 1445.39 1206.97 1299.74C1233.2 1237.97 1261.46 1168.01 1273.61 1100.74C1285.38 1035.68 1267.59 935.57 1330.03 899.048C1460.97 822.406 1644.03 952.206 1783.19 913.389C1882.03 885.968 1921.52 838.333 1882.31 725.633C1828.87 572.186 2013.54 531.233 2117.4 508.62C2207.5 488.905 2349.98 541.096 2424.59 471.375M-433.325 1476.92C-381.661 1525.34 -313.027 1544.23 -249.933 1551.53C-177.116 1559.99 -125.274 1491.52 -90.8005 1431.78C-67.4456 1391.23 -42.508 1354.57 -13.3383 1354.05C77.6161 1352.47 122.363 1325.07 172.6 1250.66C186.896 1229.41 202.504 1211.66 219.444 1201.09C304.968 1147.6 389.482 1214.14 450.401 1276.18C515.238 1342.55 579.436 1432.98 655.255 1488.82C737.149 1549.12 813.896 1568.14 909.108 1548.5C967.48 1536.49 1033.79 1510.52 1076.63 1470.11C1128.89 1420.6 1167.34 1355.32 1200.27 1286.34C1206.88 1272.4 1212.79 1257.06 1218.56 1241.65C1241.35 1180.59 1257.15 1125.18 1264.72 1059.58C1271.96 996.857 1258.19 925.257 1309.51 882.936C1311.48 881.265 1313.6 879.779 1315.83 878.497C1448.17 803.275 1633.29 937.98 1773.66 901.941C1875.91 875.896 1905.59 826.83 1867.31 714.176C1839.57 632.094 1886.73 584.495 1946.96 553.454C1996.41 528.019 2058.55 513.086 2115.97 501.383C2204.84 483.223 2346.3 530.514 2420.48 465.388M-438.094 1455.16C-386.767 1501.05 -318.889 1517.82 -257.957 1522.65C-184.486 1528.48 -134.983 1450.78 -101.053 1390.28C-77.6782 1348.61 -52.9463 1312.9 -24.0638 1312.24C63.3204 1310.29 108.363 1286.89 161.969 1218.55C175.038 1201.06 191.651 1186.8 210.7 1176.72C298.257 1133.44 372.249 1181.34 437.219 1242.32C507.033 1307.79 574.971 1395.03 649.56 1454.06C730.115 1517.74 812.774 1546.3 910.467 1527.94C966.682 1517.38 1030.84 1491.34 1071.98 1450.51C1122.08 1400.82 1161.5 1339.82 1193.92 1273.49C1200.61 1259.81 1206.62 1244.58 1212.48 1229.23C1237.29 1164.87 1247.88 1111.78 1252.46 1041.99C1256.67 978.129 1242.97 905.313 1295.92 862.957C1297.93 861.299 1300.08 859.818 1302.34 858.529C1436.78 785.056 1623.55 925.083 1764.4 890.726C1869.33 865.165 1887.96 814.946 1852.82 702.568C1826.36 617.866 1883.19 574.08 1944.67 545.056C1995.61 521.001 2057.16 506.108 2114.85 494.076C2202.84 475.723 2342.37 521.538 2416.38 459.249M-442.859 1433.34C-394.074 1474.13 -324.638 1491.98 -266.207 1491.04C-189.896 1489.87 -145.391 1409.41 -111.283 1348.42C-87.792 1306.46 -63.0711 1272.53 -34.43 1271.79C41.775 1269.95 102.222 1248.98 152.248 1190.05C166.48 1174.56 183.888 1162.58 203.275 1154.94C289.869 1116.91 358.037 1153.04 424.834 1212.32C496.765 1276.17 567.3 1358.79 641.992 1418.55C724.804 1484.75 811.213 1523.6 910.512 1507.14C968.49 1497.18 1022.1 1470.66 1065.43 1430.5C1115.5 1382.25 1156.67 1324.89 1187.05 1261.05C1193.66 1247.16 1199.88 1232.36 1205.99 1217.13C1233.25 1148.9 1237.21 1098.02 1238.79 1024.14C1240.14 959.425 1227.59 885.658 1282.38 843.8C1284.42 842.155 1286.58 840.676 1288.85 839.376C1425.48 767.917 1614.12 912.627 1754.58 879.861C1860.54 855.222 1869.08 802.574 1838.04 691.491C1813.85 604.476 1880.27 564.749 1942.62 537.5C1994.8 514.899 2055.79 499.591 2113.44 487.25C2200.57 468.602 2337.91 513.22 2411.8 453.571M-447.683 1410.86C-398.909 1447.82 -330.187 1461.26 -274.54 1456.77C-199.111 1450.72 -156.235 1367.13 -121.293 1306.17C-97.6436 1264.84 -72.8303 1233.42 -44.3328 1232.62C29.5976 1230.95 88.6408 1213.6 143.609 1164.78C159.884 1151.44 178.187 1140.94 197.836 1133.67C283.589 1099.74 349.055 1126.15 415.306 1183.9C486.087 1245.64 559.356 1322.99 633.261 1381.94C718.529 1449.83 814.218 1501.88 909.326 1484.73C964.768 1474.01 1016.06 1448.42 1058.19 1410.47C1108.1 1364.53 1149.52 1309.53 1180.57 1247.98C1187.26 1234.3 1193.48 1219.6 1199.84 1204.1C1228.7 1134.86 1229 1081.81 1224.74 1005.19C1221.36 944.768 1214.28 861.884 1269.69 824.324C1271.84 822.724 1274.09 821.256 1276.41 819.926C1415.13 750.571 1605.04 899.441 1745.12 868.013C1851.17 844.2 1850.33 788.941 1823.91 679.513C1802.56 591.111 1879.02 554.574 1941.4 529.316C1994.5 507.882 2054.88 492.664 2112.66 479.979C2198.92 461.036 2333.92 504.492 2407.71 447.381M-452.473 1388.64C-403.603 1421.63 -335.82 1429.52 -282.967 1421.62C-209.125 1410.16 -167.582 1325.82 -131.133 1265.17C-107.237 1225.44 -82.033 1197.27 -53.7987 1196.75C17.5754 1195.84 78.0647 1184.61 136.796 1142.65C154.43 1130.76 173.515 1121.27 193.603 1114.42C277.891 1083.49 341.76 1101.42 407.527 1157.44C476.948 1216.49 549.573 1289.08 622.789 1346.43C710.422 1415.08 810.268 1476.38 905.424 1461.68C953.226 1454.28 1007.6 1428.03 1050.67 1391.84C1101.59 1349.03 1143.48 1295.87 1173.95 1235.41C1180.74 1221.84 1186.98 1206.79 1193.62 1191.57C1240.25 1086.15 1149.5 873.992 1257.56 806.181C1259.86 804.789 1262.22 803.2 1264.57 801.813C1405.64 733.519 1590.92 888.026 1734.3 855.92C1842.99 831.568 1831.17 775.469 1810.06 667.92C1792.78 579.638 1878.77 545.778 1940.99 522.339C1996.85 502.215 2054.02 485.902 2112.17 473.503C2197.52 454.159 2329.98 496.534 2403.66 441.911M-457.229 1366.68C-408.092 1395.31 -341.551 1396.95 -291.427 1385.41C-219.439 1368.85 -179.434 1285.52 -140.745 1226.08C-116.455 1188.74 -90.9027 1164.53 -62.6963 1164.47C6.22237 1164.26 71.8785 1158.67 131.298 1122.34C150.106 1111.78 169.867 1103.05 190.334 1096.28C272.302 1066.28 337.169 1079.98 401.619 1131.78C468.791 1185.75 539.288 1256.95 611.117 1312.02C691.83 1373.93 802.585 1455.6 898.775 1436.87C946.992 1427.52 1000.41 1407.24 1042.95 1374.05C1094.61 1333.75 1137.09 1282.25 1167.63 1222.92C1174.52 1209.42 1180.75 1193.7 1187.64 1179.12C1238.08 1072.61 1124.58 859.052 1246.51 789.016C1248.85 787.68 1251.36 786.157 1253.84 785.039C1397.89 719.351 1576.41 857.447 1723.28 844.522C1836.85 834.497 1808.53 738.485 1797.05 656.926C1784.35 568.611 1879.05 537.291 1940.99 515.149C1996.92 495.897 2053.89 479.714 2111.65 466.667C2196.24 446.887 2325.96 488.211 2399.54 436.076M-462.007 1345.07C-408.626 1368.69 -349.198 1361.94 -299.85 1349.39C-232.581 1331.94 -191.886 1247 -150.027 1189.62C-125.254 1155.64 -99.2539 1136.18 -70.935 1136.68C-1.69964 1137.74 65.1013 1136.75 126.908 1104.04C146.515 1094.45 166.749 1086.23 187.48 1079.41C267.502 1050.64 332.749 1057.34 396.792 1106.96C461.779 1157.23 529.829 1226.59 598.949 1279.29C680.261 1341.06 791.061 1424.41 889.143 1410.93C937.991 1404.15 991.902 1388.61 1035.18 1357.08C1087.43 1318.84 1130.46 1268.74 1161.17 1210.37C1168.19 1196.93 1174.63 1181.89 1181.62 1166.61C1231.47 1057.59 1104 841.557 1236.27 772.957C1238.71 771.682 1241.36 770.174 1243.94 769.066C1390.19 706.973 1565.09 843.008 1711.92 833.189C1825.59 825.571 1790.95 723.393 1784.49 645.774C1777.19 558.483 1879.04 529.336 1941.47 508.213C1995.95 489.779 2054.22 473.78 2111.23 459.994C2195.06 439.727 2321.64 480.06 2395.46 430.398M-466.706 1323.78C-413.142 1342.01 -355.449 1329.83 -308.354 1313.89C-242.761 1291.66 -205.405 1210.61 -159.125 1156.6C-133.678 1126.87 -107.601 1113.38 -79.1148 1114.36C-9.62094 1116.82 59.7527 1117.23 123.06 1087.32C143.284 1077.94 164.095 1069.9 185.372 1063.23C265.681 1037.8 325.96 1032.41 393.527 1082.35C456.573 1128.95 522.301 1196.84 588.773 1247.78C671.09 1310.83 779.033 1391.8 878.341 1385.64C927.75 1382.53 982.596 1371.02 1027 1340.32C1080.01 1303.97 1123.73 1255.04 1154.73 1197.36C1162.52 1183.25 1169.49 1168.65 1175.62 1153.65C1216.57 1047.78 1087.65 822.362 1227.07 757.669C1229.7 756.465 1232.45 755.018 1235.17 753.976C1382.79 696.003 1554.68 828.971 1700.31 821.831C1812.72 816.375 1774.15 707.618 1772.73 634.502C1771.13 549.844 1878.94 522.136 1942.32 501.571C1996.9 483.861 2054.32 467.365 2110.8 453.371C2194.03 432.481 2317.65 472.097 2391.32 424.817M-471.366 1303.45C-417.536 1315.75 -362.208 1298.78 -316.653 1279.88C-253.016 1253.42 -219.858 1176.62 -167.874 1128.3C-141.511 1103.72 -115.63 1095.82 -86.7582 1096.94C-16.5463 1099.73 55.0459 1100.88 119.731 1072.6C139.606 1063.91 161.856 1055.83 183.216 1048.62C261.649 1022.49 324.042 1012.33 390.839 1058.76C452.199 1101.57 516.151 1168.72 579.867 1218.05C668.057 1286.45 768.898 1356.42 867.237 1362.04C914.959 1364.78 972.684 1354.48 1018.71 1324.66C1072.47 1289.91 1116.94 1241.93 1148.37 1184.76C1156.82 1170.81 1163.52 1155.75 1168.29 1139.93C1195.47 1030.59 1072.76 803.624 1219.32 743.603C1222.05 742.46 1224.93 741.18 1227.7 740.194C1377.22 688.895 1543.88 815.657 1688.78 810.889C1800.14 807.21 1758.13 691.975 1762.21 623.054C1767.09 543.406 1879.11 514.658 1943.63 494.671C1998.31 477.737 2054.62 460.87 2110.49 446.354C2193.11 424.89 2313.43 463.856 2387.29 419.144M-476.063 1283.74C-422.317 1290.17 -369.133 1268.84 -324.997 1247.39C-264.82 1217.98 -233.943 1143.85 -176.6 1105.26C-152.366 1088.88 -123.439 1081.18 -94.0415 1083.28C-22.9857 1085.95 50.6822 1086.96 116.458 1059.35C136.669 1050.81 159.176 1042.55 180.711 1034.9C257.565 1007.23 321.866 992.418 388.471 1035.57C448.499 1074.42 510.774 1140.83 572.131 1189.3C659.318 1258 757.618 1327.66 855.878 1339.39C904.747 1345.1 962.422 1338.83 1010.28 1309.61C1064.9 1276.29 1110.2 1229.11 1142.14 1172.28C1150.37 1158.06 1155.97 1142.29 1158.68 1125.77C1174.36 1015.23 1056.95 784.434 1212.34 732.268C1215.15 731.287 1218.17 730.175 1221.13 729.31C1372.46 684.574 1532.97 803.251 1677.23 800.914C1787.49 799.109 1743.8 678.395 1752.76 612.634C1763.51 535.231 1879.48 508.578 1945.08 488.703C1999.49 472.2 2055.1 455.515 2109.98 440.131C2195.42 416.207 2304.99 456.194 2383.24 413.775M-480.668 1264.9C-427.343 1265.37 -376.174 1240.78 -333.085 1217.13C-277.311 1186.49 -243.228 1116.26 -184.993 1087.2C-158.436 1073.91 -130.72 1071.4 -101.05 1072.35C-29.0436 1074.77 46.4627 1074.69 113.183 1046.93C133.844 1038.27 156.275 1029.65 177.957 1021.2C242.996 995.968 320.172 964.656 386.222 1012.03C447.987 1056.26 506.298 1112.67 565.528 1160.51C651.491 1229.9 747.028 1299.68 844.681 1316.5C894.455 1325.11 952.584 1322.66 1001.41 1293.69C1056.16 1261.31 1106.1 1215.79 1135.27 1158.36C1142.18 1143.19 1146.03 1126.61 1146.57 1109.62C1153.14 998.533 1044 765.338 1206.47 721.968C1209.47 721.159 1212.64 720.113 1215.73 719.365C1367.69 681.374 1522.79 791.123 1665.67 790.376C1773.99 789.797 1729.69 662.901 1744.2 601.288C1761.55 527.021 1878.74 502.178 1946.82 481.849C2000.72 465.7 2055.32 448.603 2109.34 432.875C2194.18 408.226 2300.63 447.734 2379.12 407.788M-485.18 1247C-432.67 1242.28 -383.344 1214.84 -341.081 1189.42C-289.214 1158.27 -251.669 1095.8 -193.104 1073.41C-165.685 1062.91 -138.06 1063.49 -107.981 1064.19C-34.9434 1065.84 42.3584 1064.57 109.557 1035.43C130.435 1026.44 152.855 1017.21 174.586 1007.95C239.335 980.238 316.201 945.936 383.476 988.597C445.066 1027.66 502.263 1084.56 559.696 1132.01C644.39 1202.04 736.95 1272.22 833.613 1293.93C883.619 1305.16 942.641 1306.63 992.531 1278.03C1046.75 1246.97 1103.28 1202.49 1126.03 1143.63C1131.24 1130.15 1132.68 1111.43 1132.61 1093.32C1132.16 977.886 1031.2 750.898 1201.91 713.69C1205 713.044 1208.3 712.114 1211.55 711.433C1362.81 679.845 1513.42 780.152 1654.41 780.635C1760.79 781.027 1716.74 646.966 1736.55 590.344C1761.04 520.084 1876.83 497.135 1948.65 475.41C2002.05 459.261 2055.43 442.088 2108.65 425.816C2193.1 400.209 2296.22 439.421 2375.1 402.065M-489.655 1230.06C-438.28 1220.58 -390.132 1191.49 -348.868 1164.69C-301.309 1133.96 -258.615 1079.83 -201.074 1063.7C-173.227 1055.85 -145.325 1057.54 -114.927 1057.85C-41.1486 1058.67 38.066 1055.1 105.459 1024.4C126.423 1014.81 148.791 1004.8 170.386 994.562C234.97 963.925 310.582 926.789 379.751 965.059C441.638 999.255 498.255 1056 554.368 1103.31C637.854 1173.77 727.3 1244.95 822.761 1271.02C872.426 1284.62 933.26 1290.25 983.571 1262C1035.97 1232.59 1098.37 1191.02 1114.01 1127.74C1117.31 1110.8 1118.24 1093.37 1116.79 1075.97C1110.58 954.066 1019.73 738.942 1198.47 707.162C1201.7 706.582 1205.1 705.763 1208.43 705.193C1357.66 679.563 1504.97 770.346 1643.44 771.689C1747.87 772.692 1705.47 633.399 1730.62 580.393C1762.5 513.098 1876.11 492.012 1950.65 469.245C2003.06 453.298 2055.53 435.622 2107.71 419.345C2191.83 392.836 2291.72 431.762 2371.07 397.107M-494.053 1214.3C-444.001 1200.71 -398.343 1170.49 -356.409 1143.2C-310.263 1113.04 -265.239 1068.28 -208.907 1056.61C-180.643 1050.79 -152.653 1052.64 -122.083 1052.57C-47.4084 1052.4 33.3736 1046.55 100.677 1013.29C121.691 1002.89 143.917 992.005 165.332 980.676C229.341 946.562 302.743 906.952 374.465 941.307C437.543 971.344 493.742 1026.87 548.968 1074.19C631.595 1145.02 717.956 1217.56 811.991 1247.62C860.938 1263.28 923.963 1273.32 974.545 1245.46C1026.16 1216.88 1090.25 1178.95 1099.49 1110.93C1101.24 1093.39 1101.19 1075.65 1099.34 1057.98C1088.59 928.366 1011.28 728.271 1196.03 701.197C1199.31 700.723 1202.84 700.021 1206.22 699.557C1352.57 679.133 1497.28 760.825 1632.62 762.657C1735.16 763.923 1694.99 621.292 1726 570.58C1765.73 505.48 1875.93 486.18 1952.54 462.457C2003.82 446.544 2055.24 428.351 2106.46 411.668C2190.33 384.318 2287.08 423.069 2367.01 391.125M-498.37 1199.63C-450.339 1182.86 -405.975 1152.87 -363.702 1126.48C-317.646 1097.79 -272.174 1060.16 -216.655 1051.32C-188.034 1046.91 -160.153 1048.14 -129.428 1047.93C-54 1046.72 28.3067 1038.48 94.8703 1002.03C115.748 990.646 137.837 978.776 158.884 966.235C222.123 928.625 291.733 886.631 367.133 917.188C432.514 943.386 488.697 996.771 543.675 1044.12C625.422 1114.85 709.252 1189.33 801.878 1223.11C850.023 1240.62 915.042 1255.06 965.636 1227.8C1017.98 1199.35 1077.75 1163.68 1082.59 1092.8C1083.26 1075.07 1082.54 1057.26 1080.44 1039.54C1066.39 901.779 1005.67 718.558 1194.51 696.194C1197.94 695.787 1201.52 695.191 1204.93 694.834C1347.5 679.114 1490.47 752.262 1622.31 754.188C1723.27 755.645 1685.23 611.095 1722.71 561.67C1770.86 498.775 1876.11 480.794 1954.27 455.856C2004.47 439.932 2054.84 421.171 2105.09 404.285C2188.82 376.103 2282.48 414.685 2363.11 385.619M-502.676 1185.56C-456.431 1166.63 -413.151 1138.25 -370.793 1112.89C-325.066 1085.54 -278.609 1054.34 -224.338 1046.59C-195.642 1042.55 -167.861 1043 -137.04 1042.03C-60.9571 1039.77 22.7275 1029.13 88.5763 989.086C109.033 976.535 131.096 963.489 151.722 949.783C220.637 903.892 279.829 877.689 356.6 893.909C421.22 907.636 482.512 965.99 536.968 1013.03C617.7 1082.64 699.92 1160.1 791.43 1197.64C838.872 1216.97 905.631 1234.34 956.443 1209.15C1008.12 1183.54 1062.18 1142.27 1063.77 1074.62C1063.66 1056.73 1062.46 1038.82 1060.17 1021.01C1044.49 875.324 1003.49 710.019 1193.78 692.14C1197.25 691.788 1200.82 691.294 1204.33 690.998C1342.85 679.445 1484.24 744.779 1612.35 746.469C1711.99 747.788 1675.35 601.958 1720.51 553.435C1776.78 493.019 1876.64 475.393 1955.96 449.301C2004.7 432.971 2053.95 413.991 2102.85 396.657C2186.53 367.604 2277.39 406.148 2358.82 380.073M-506.961 1171.96C-462.372 1151.93 -420.404 1124.9 -377.768 1101.41C-332.586 1076.55 -283.789 1048.9 -232.016 1041.76C-203.671 1037.83 -175.723 1036.36 -144.93 1035.04C-68.2953 1031.82 16.5072 1018.99 81.0116 975.192C101.546 961.375 123.448 946.935 142.709 932.22C204.639 885.448 269.419 866.048 340.967 875.145C409.339 883.859 473.543 934.053 528.914 980.622C609.135 1048.14 687.906 1123.26 780.717 1170.06C830.126 1195.05 894.725 1213.93 946.938 1188.37C999.151 1162.82 1042.61 1118.66 1042.58 1054.97C1042.56 1040.08 1040.45 1020.68 1038.47 1001.61C1022.68 848.829 1004.3 701.538 1193.25 687.853C1196.76 687.608 1200.43 687.175 1203.94 686.98C1338.17 678.753 1478.04 737.453 1602.39 738.75C1701.16 739.673 1665.06 593.134 1718.7 545.139C1783.38 487.333 1876.54 469.825 1956.84 442.102C2004.56 425.614 2052.22 406.161 2100.19 388.782C2183.97 358.872 2272.22 397.399 2354.54 374.527M-511.146 1159.13C-468.121 1138.13 -426.702 1112.82 -384.682 1091.35C-338.961 1068.13 -290.571 1044.73 -239.824 1035.85C-211.214 1030.65 -182.276 1027.2 -153.156 1025.51C-76.1138 1021.26 9.67465 1006.81 72.413 958.896C92.1055 943.563 113.469 929.883 131.627 917.093C191.294 874.316 252.35 856.262 321.836 860.452C391.322 864.643 460.296 907.685 517.55 950.015C599.869 1010.61 678.586 1091.44 770.132 1141.22C817.33 1166.95 886.189 1193.41 934.729 1165.94C980.609 1140.13 1020.87 1095.89 1020.35 1035.41C1020.21 1020.77 1018.15 1001.48 1016.55 982.65C1010.83 915.358 985.866 831.22 1019.79 769.186C1052.52 708.966 1131.15 687.697 1194.06 684.317C1197.57 684.122 1201.33 683.801 1204.78 683.702C1332.65 680.471 1470.75 729.554 1593.66 731.771C1679.31 733.313 1677.65 578.079 1718.44 537.362C1774.6 481.216 1876.16 463.921 1958.07 434.887C2005.11 418.227 2050.66 397.739 2097.53 380.653C2181.51 349.948 2267.55 388.448 2350.79 369.087M-515.359 1146.76C-473.849 1125.6 -433.835 1101.52 -391.499 1082.13C-344.805 1060.69 -297.179 1040.11 -247.666 1028.09C-219.538 1020.36 -190.751 1015.11 -161.605 1012.39C-83.3237 1007.2 -0.343615 988.783 62.5407 941.702C81.217 927.691 101.694 916.417 118.944 904.806C172.063 868.485 234.054 844.002 299.765 847.952C372.482 852.428 439.724 884.378 499.26 922.408C585.18 977.263 670.023 1063.31 758.479 1109.72C799.625 1131.4 872.293 1167.99 915.752 1140.71C956.346 1115.22 996.643 1073.68 996.679 1015.3C996.668 1001.02 994.932 981.976 993.856 963.405C990.003 896.206 971.443 815.999 1011.39 757.704C1050.07 701.673 1131.25 682.863 1194.49 680.538C1198.04 680.399 1201.75 680.123 1205.25 680.08C1328.94 679.167 1465.38 724.047 1584.62 725.117C1629.14 725.479 1643.55 697.561 1658.96 662.915C1682.31 610.536 1674.55 569.24 1717.93 529.66C1777.47 475.346 1876.24 457.811 1958 427.231C2003.69 410.174 2047.74 389.174 2093.35 371.904C2177.36 339.877 2262.15 379.319 2346.26 363.465M-519.492 1134.7C-519.492 1134.7 -485.027 1111.22 -398.325 1073.05C-352.797 1052.97 -303.241 1033.82 -255.699 1017.82C-227.404 1008.28 -199.856 996.471 -170.253 994.511C-93.4032 989.374 -13.7457 970.558 51.2314 927.877C69.4868 915.912 88.6117 905.823 104.607 895.407C155.88 861.902 213.57 836.919 276.398 838.12C348.274 839.449 415.279 864.848 476.121 898.424C564.624 947.278 652.166 1027.85 740.25 1076.3C778.343 1097.2 851.376 1138.27 890.584 1112.89C928.144 1088.72 970.274 1051.81 971.647 994.894C972 981.113 970.789 962.324 970.52 944.245C968.038 780.817 1023.62 680.302 1195.37 676.551C1198.97 676.518 1202.67 676.293 1206.17 676.3C1325.8 677.361 1460.36 719.24 1576.29 718.843C1621.29 718.744 1634 689.629 1650.28 655.177C1675.51 601.72 1671.53 561.481 1718.16 521.933C1779.89 469.582 1876.87 450.687 1957.44 419.423C2001.57 402.203 2044.82 379.793 2088.89 362.77C2171.87 330.636 2257.09 369.612 2342.01 358.076M-523.647 1123C-523.647 1123 -491.556 1098.92 -405.152 1063.98C-358.218 1045.06 -310.041 1025.92 -263.701 1004.65C-235.485 991.581 -208.219 974.743 -178.956 972.697C-104.809 967.482 -25.9531 956.129 39.0137 917.628C56.534 907.218 74.6613 898.146 90.0103 888.632C139.166 857.558 192.501 831.355 252.427 830.112C322.454 828.699 388.5 848.847 449.479 877.798C539.44 920.532 628.833 992.577 715.698 1043.25C751.147 1063.93 820.805 1108.67 861.743 1083.98C910.72 1054.21 934.894 1031.6 947.165 975.156C949.782 962.988 947.673 943.595 948.406 926.029C954.602 763.965 1033.46 673.935 1197.05 672.443C1200.65 672.41 1204.35 672.286 1207.79 672.339C1323.63 675.145 1456.18 715.234 1569.06 713.244C1614.49 712.426 1625.7 682.135 1642.76 647.916C1669.86 593.583 1669.96 554.178 1719.24 514.703C1782.54 464.046 1877.41 443.503 1956.91 411.209C1999.82 393.76 2041.26 369.682 2084.8 353.166C2168.44 321.61 2252.69 359.566 2338.16 352.576M-527.802 1111.3C-527.802 1111.3 -497.991 1086.67 -411.785 1054.16C-363.258 1036.47 -316.527 1014.21 -272.158 987.652C-244.213 970.172 -217.545 955.057 -188.267 953.573C-113.76 949.721 -41.4466 944.722 26.085 909.344C43.2218 900.373 60.9081 892.071 74.8015 883.017C124.107 851.091 172.734 829.446 228.233 822.54C290.544 814.509 360.372 834.797 420.539 859.329C510.142 895.855 599.38 960.796 685.54 1010.12C719.637 1029.59 789.213 1075.65 828.801 1052.91C864.508 1032.46 915.036 1004.69 921.177 954.292C922.74 941.657 923.481 923.938 925.36 906.951C942.969 749.8 1042.86 667.421 1198.38 667.686C1201.92 667.699 1205.57 667.57 1209.01 667.724C1321.5 672.068 1451.28 711.613 1561.91 707.807C1607.78 706.219 1617.59 674.66 1635.43 640.523C1664.46 585.371 1668.6 546.744 1720.24 507.159C1784.4 457.764 1877.2 435.832 1954.84 402.427C1996.5 384.49 2036.55 359.043 2079.98 343.383C2164.74 312.811 2247.91 349.991 2333.76 347.272M-531.951 1099.5C-531.951 1099.5 -503.176 1074.1 -418.949 1043.37C-368.598 1024.91 -324.463 997.849 -281.07 966.836C-257.07 948.836 -228.095 939.055 -197.992 938.791C-125.218 937.512 -54.0936 935.856 12.5577 903.599C28.5785 896.297 44.1669 888.067 59.2519 878.947C106.567 848.19 151.701 824.09 204.635 814.877C263.439 804.644 332.401 822.19 390.604 842.642C479.45 873.837 567.268 931.441 652.45 978.265C685.771 996.732 754.962 1042.65 794.087 1021.85C830.719 1002.37 884.95 984.829 895.687 934.143C898.3 922.025 900.068 905.23 903.373 889.054C934.687 737.157 1048.19 660.888 1199.55 662.25C1203.09 662.314 1206.69 662.23 1210.07 662.43C1319.77 668.165 1446.4 708.554 1555.28 702.731C1601.7 700.231 1610.02 667.343 1628.7 633.14C1659.24 577.331 1668.5 538.779 1721.35 499.575C1785.86 451.695 1877.4 428.409 1951.87 393.142C1991.71 374.302 2032.29 348.197 2075.14 333.241C2160.19 303.566 2243.64 340.164 2329.75 342.111M-536.136 1087.48C-536.136 1087.48 -508.363 1061.57 -425.928 1031.17C-376.122 1012.75 -331.924 975.043 -290.283 946.907C-265.383 930.128 -237.108 925.736 -208.199 926.253C-136.757 927.436 -66.9348 928.551 -1.11733 898.654C14.6614 892.021 29.9392 884.244 44.6065 875.379C89.5233 846.004 134.028 819.34 183.199 806.47C238.238 791.817 305.368 810.344 362.125 827.076C449.825 852.9 534.493 905.687 617.769 947.469C652.723 964.985 720.584 1007.71 758.648 990.569C796.711 973.43 854.135 964.838 870.924 914.172C874.784 902.592 877.774 886.74 882.665 871.188C927.212 729.035 1054.88 653.734 1200.47 656.074C1203.96 656.133 1207.45 656.14 1210.84 656.29C1322.23 660.926 1439.8 706.183 1549.28 697.872C1596.21 694.304 1603.09 659.941 1622.61 625.673C1654.7 569.464 1669.15 530.536 1722.57 491.697C1786.86 444.916 1875.92 420.453 1947.91 383.041C1986.6 362.909 2027.81 336.971 2070.43 322.602C2155.87 293.834 2239.84 329.825 2325.94 336.768M-540.306 1075.22C-540.306 1075.22 -514.095 1049.09 -433.052 1017.32C-383.976 997.963 -343.66 953.728 -299.718 929.809C-274.919 916.284 -247.188 914.333 -218.39 915.859C-147.935 919.488 -79.304 923.181 -14.1697 894.793C1.25872 888.51 16.1011 880.864 30.1995 871.939C73.7042 842.314 115.867 812.907 163.528 796.565C214.406 779.132 283.129 798.183 335.212 811.674C419.131 833.33 501.858 880.051 582.358 918.126C617.897 934.938 684.266 975.517 722.839 959.706C763.732 942.964 822.693 944.629 846.579 894.601C851.726 883.716 856.13 868.879 862.793 854.124C921.895 723.432 1059.28 646.086 1201 648.941L1211.18 649.237C1321.19 654.749 1434.51 704.203 1543.5 693.394C1589.21 688.882 1598.62 653.254 1617.01 618.306C1647.52 559.741 1670.81 521.939 1723.69 483.809C1787.34 437.98 1872.54 412.146 1942.79 372.615C1981.12 351.119 2022.84 325.744 2065.48 311.887C2150.85 284.082 2236.29 319.511 2322.03 331.617M-544.552 1062.59C-544.552 1062.59 -519.067 1037.87 -440.306 1001.57C-391.881 979.189 -358.458 934.185 -309.424 914.723C-283.495 904.426 -257.278 903.898 -228.741 906.468C-159.425 912.629 -91.289 918.769 -26.8402 891.126C-11.5354 884.956 3.09844 877.226 16.8537 868.048C59.6411 837.278 100.642 804.333 147.051 784.342C194.918 763.841 262.504 782.162 311.848 795.367C390.672 816.644 470.578 855.575 548.194 890.137C584.656 906.332 650.703 944.939 688.508 929.609C732.68 911.578 791.044 926.183 823.775 875.599C830.299 865.521 836.313 851.718 844.889 837.876C918.246 719.533 1060.78 637.777 1200.94 641.133C1204.29 641.176 1207.73 641.127 1210.77 641.444C1314.49 650.837 1429.49 705.719 1538.09 689.311C1586.33 682.055 1591.48 646.9 1611.86 609.968C1644.34 551.454 1671.09 513.351 1724.14 475.748C1787.53 430.861 1867.59 402.961 1936.53 361.56C1974.95 338.544 2017.09 314.335 2059.94 301.01C2145.55 274.248 2232.52 308.817 2317.61 326.568M-548.77 1049.5C-548.77 1049.5 -519.673 1026.08 -447.619 983.572C-406.78 959.686 -367.268 914.909 -319.486 900.62C-293.318 892.846 -267.567 893.493 -239.287 897.056C-170.906 905.618 -102.88 914.347 -38.9751 886.749C-23.5343 880.698 -8.9045 872.742 4.60938 863.048C47.9224 829.324 86.1104 790.885 133.921 768.899C180.673 747.313 243.402 762.985 292.91 776.717C366.908 797.236 442.847 832.643 516.562 863.381C554.043 879.02 617.122 914.665 656.197 900.284C704.174 882.803 762.697 903.645 802.657 857.181C810.614 847.813 818.131 835.187 828.963 822.294C917.592 716.558 1058.09 628.574 1200.2 631.571C1203.44 631.654 1206.84 631.601 1210.02 631.933C1312.75 642.192 1425.26 704.105 1533.59 684.814C1581.51 676.25 1586.68 639.362 1608.05 602.329C1641.79 544.05 1672.05 504.834 1725.22 466.937C1787.45 422.44 1865.25 390.682 1930.92 349.451C1968.29 326.069 2013.57 298.721 2055.14 289.342C2141.38 269.938 2223.84 296.184 2314.06 320.996M-553.055 1035.9C-553.055 1035.9 -524.064 1011.8 -455.117 963.77C-419.434 938.888 -375.227 897.813 -329.07 887.535C-302.79 881.966 -277.363 883.089 -249.287 887.548C-181.629 898.278 -113.336 909.891 -49.7981 881.847C-34.2669 875.539 -19.67 867.12 -6.37744 856.803C37.7244 819.847 76.3729 776.305 124.753 749.841C170.892 724.622 229.485 739.505 279.389 754.808C348.373 776.028 419.416 810.21 488.598 837.824C527.039 853.053 586.627 885.428 627.009 872.202C678.942 855.236 737.05 881.236 783.752 839.605C793.127 831.201 802.547 819.64 815.578 807.793C918.22 714.329 1053.49 620.19 1198.57 621.254C1201.72 621.276 1204.91 621.354 1208 621.524C1316.99 628.459 1417.11 704.53 1529.23 680.534C1575.35 670.763 1584.69 632.526 1604.33 594.751C1635.36 534.965 1673.91 495.391 1725.92 457.934C1786.9 413.867 1860.4 377.378 1925.04 337.058C1962.5 313.687 2008.32 286.395 2050.15 277.654C2136.81 259.416 2221.06 284.523 2310.31 315.557M-557.452 1021.73C-557.452 1021.73 -531.82 991.41 -462.884 941.952C-428.546 917.337 -383.54 881.699 -339.076 874.152C-312.816 870.163 -285.917 871.002 -259.592 876.632C-192.297 889.262 -123.451 903.89 -60.0068 874.969C-44.1448 868.224 -29.3568 859.159 -16.0768 848.04C28.5103 808.789 65.3635 756.8 120.786 731.886C171.391 709.275 222.95 714.45 271.602 729.316C333.978 748.317 400.122 787.75 465.509 813.03C504.403 828.102 560.371 857.703 601.777 845.451C657.518 828.984 714.916 859.346 767.595 822.979C778.335 815.584 789.722 805.657 805.245 794.121C914.646 713.243 1051.9 609.929 1195.86 610.008C1198.91 610.021 1202.01 610.089 1204.95 610.294C1314.23 617.259 1412.23 703.969 1524.93 676.721C1570.94 665.612 1580.16 625.221 1600.6 587.376C1632.65 527.849 1673.83 487.071 1725.49 448.966C1784.87 405.14 1853.79 363.278 1918.28 324.472C1956.56 301.441 2002.33 274.194 2044.36 266.24C2131.33 249.309 2218.01 273.344 2305.89 310.609M-561.473 1007.03C-561.473 1007.03 -537.263 967.794 -470.274 921.193C-436.704 897.874 -391.44 866.037 -348.408 860.176C-322.121 856.791 -295.308 858.071 -269.102 863.963C-201.845 878.017 -131.966 895.862 -68.5573 865.918C-52.1792 858.699 -37.0535 848.877 -23.7051 836.791C20.8215 793.71 59.35 741.692 118.605 716.872C168.613 695.982 219.568 696.557 268.605 708.353C327.926 722.598 389.453 762.671 448.47 788.307C484.422 803.99 541.316 830.526 581.452 819.722C640.601 803.866 697.228 837.971 754.487 807.181C766.599 800.695 780.979 790.926 798.087 780.014C910.756 708.452 1051.3 598.852 1191.9 596.746C1194.81 596.692 1197.81 596.75 1200.65 596.894C1310.29 603.693 1407.48 703.575 1520.87 672.37C1566.36 660.137 1576.3 617.577 1597.43 579.652C1630.59 520.395 1673.58 478.376 1725.04 439.435C1782.43 395.962 1847.86 348.331 1911.75 311.349C1950.84 288.709 1996.6 261.564 2038.95 253.999C2126.14 238.417 2215.68 261.577 2301.85 305.037M-566.047 991.714C-566.047 991.714 -547.796 944.515 -478.264 901.391C-438.711 876.81 -403.565 851.056 -358.402 844.958C-332.144 841.399 -305.319 842.679 -279.145 848.74C-211.804 863.822 -140.54 884.77 -76.9189 853.777C-59.7783 846.107 -44.1387 835.39 -30.6794 822.092C11.7979 777.115 56.8394 726.438 117.523 704.011C165.761 685.963 218.276 681.965 269.531 692.438C324.07 704.4 382.465 737.773 438.427 763.447C484.673 784.64 530.1 805.543 566.75 795.396C625.08 779.25 689.596 810.711 745.575 791.974C758.638 787.626 774.768 776.613 793.215 766.351C907.163 702.825 1050.28 587.426 1186.64 583.041C1189.46 582.775 1192.12 582.695 1195.06 582.9C1305.43 589.01 1402.9 703.607 1517.47 668.395C1562.37 654.57 1572.79 609.817 1594.46 571.797C1628.26 512.706 1672.89 469.483 1724.07 429.543C1779.8 385.999 1842.72 333.365 1905.1 297.806C1944.16 275.571 1990.9 248.68 2033.4 241.744C2120.75 227.555 2213.9 250.378 2297.8 299.618M-570.432 975.755C-570.432 975.755 -553.455 923.63 -485.948 882.233C-447.793 858.781 -413.113 835.017 -367.714 828.281C-341.518 824.125 -314.633 825.011 -288.386 830.898C-221.002 846.087 -147.155 869.853 -83.7809 838.07C-66.3678 829.601 -50.5927 818.036 -37.1415 803.877C6.09576 756.939 54.9774 711.865 116.902 692.474C167.124 676.359 220.611 672.337 273.401 680.706C325.063 689.819 382.245 716.487 434.232 740.369C477.315 760.161 517.071 782.054 558.758 772.432C619.324 758.355 682.174 792.906 739.471 776.754C753.23 773.091 770.616 762.463 790.163 752.724C904.948 695.608 1047.94 575.861 1179.86 567.547C1182.58 567.371 1185.39 567.257 1188.09 567.335C1300.14 570.918 1397.58 703.563 1513.95 663.949C1558.29 648.893 1569.44 601.82 1591.66 563.753C1626.14 504.735 1671.83 460.347 1722.58 419.343C1777.01 375.255 1836.71 319.072 1898.21 284.136C1937.27 262.002 1984.85 235.709 2027.66 229.468C2119.75 216.996 2214.3 240.021 2293.61 294.234M-574.883 959.229C-574.883 959.229 -559.272 903.698 -494.046 863.388C-457.212 840.614 -422.934 817.778 -377.249 809.593C-351.165 804.334 -324.165 804.381 -297.72 809.732C-230.785 824.211 -154.366 850.184 -91.5174 818.141C-74.2897 809.825 -58.4647 798.806 -44.5768 785.459C1.23619 739.86 52.7376 697.813 116.28 680.936C169.145 666.941 224.48 663.73 279.282 671.479C329.271 678.989 384.756 698.8 434.444 720.046C475.258 737.511 511.244 759.877 555.885 750.257C616.082 737.366 679.083 774.278 735.71 761.014C749.989 757.711 768.365 747.798 788.91 738.622C865.572 704.451 940.452 663.211 1014.79 623.547C1063.49 597.574 1116.24 555.147 1172.71 550.892C1175.38 550.661 1178.2 550.546 1180.9 550.574C1294.27 553.529 1393.05 702.886 1510.5 659.306C1553.96 643.189 1566.2 593.731 1588.93 555.31C1624.09 496.464 1670.05 450.83 1720.44 408.412C1773.79 363.498 1830.19 304.217 1891.36 269.807C1930.64 248.154 1979.3 222.638 2022.18 216.913C2109.89 205.668 2210.82 227.671 2289.66 288.723M-579.393 942.085C-579.393 942.085 -565.186 884.571 -501.997 844.559C-466.163 822.038 -432.429 799.246 -386.353 788.706C-359.896 782.645 -333.285 779.71 -306.667 784.68C-240.797 797.263 -164.151 825.962 -100.713 797.143C-83.2458 789.736 -67.0576 779.58 -52.6988 767.02C-4.66181 722.877 50.3796 680.893 114.746 669.048C170.741 657.85 228.407 655.935 285.637 663.371C337.36 671.132 388.383 684.315 437.919 702.715C477.091 717.255 510.345 739.234 556.428 729.357C614.066 717.269 679.481 755.759 734.256 745.412C748.8 742.595 768.031 733.18 789.331 724.541C867.699 691.953 943.786 654.093 1017.13 611.195C1063.09 584.785 1111.16 538.555 1165.58 533.933C1168.3 533.663 1171.03 533.54 1173.77 533.564C1288.53 535.594 1389.19 701.566 1507.07 654.206C1549.5 637.268 1563.22 584.547 1586.25 546.923C1622.13 488.254 1667.88 441.273 1717.77 397.476C1770.2 351.446 1822.8 289.831 1884.6 255.691C1923.93 233.942 1973.41 208.867 2016.52 204.136C2104.55 193.945 2209.49 216.467 2285.57 283.197M-583.803 924.9C-583.803 924.9 -571.138 866.053 -509.887 825.532C-475.514 802.757 -441.776 779.099 -395.202 765.245C-368.535 757.37 -342.017 751.927 -315.956 757.145C-250.856 770.26 -174.76 801.502 -110.408 776.245C-92.6077 769.967 -75.957 760.816 -61.0517 749.118C-7.96415 704.482 47.0405 671.927 112.877 656.972C168.648 644.027 233.46 644.976 292.177 655.436C341.984 664.304 395.247 673.788 444.309 688.391C482.546 699.723 513.346 720.783 560.31 710.182C614.412 697.98 682.326 737.444 734.396 729.467C749.298 727.248 768.993 718.289 790.901 710.173C870.532 680.864 946.902 643.367 1018.9 598.225C1063.04 570.349 1104.29 522.032 1158.51 516.726C1161.23 516.422 1163.97 516.265 1166.71 516.256C1283.58 517.537 1386.65 697.272 1503.71 648.706C1544.72 631.671 1560.02 575.698 1583.67 538.292C1620.14 479.786 1665.49 431.335 1714.61 386.336C1766.39 338.964 1815.35 275.644 1877.88 241.58C1917.34 220.201 1967.66 195.876 2010.98 191.626C2099.57 182.87 2208.41 205.851 2281.72 277.697M-588.198 908.277C-588.198 908.277 -577.134 848.243 -517.941 805.978C-484.754 782.467 -450.975 757.335 -404.052 739.387C-377.095 729.197 -351.87 723.976 -326.649 729.259C-262.216 742.815 -186.807 776.432 -121.512 755.047C-103.334 749.698 -86.2051 741.329 -70.773 730.257C-15.1502 687.619 42.0233 656.617 109.106 643.016C167.823 630.989 235.443 633.506 296.701 645.863C347.643 656.277 400.018 665.005 451.41 676.129C489.347 684.319 518.21 704.056 565.589 692.325C616.514 679.741 686.332 719.455 735.817 713.502C751.101 711.476 771.285 703.384 793.62 695.516C871.582 669.028 951.939 632.388 1019.45 584.566C1062.05 554.439 1096.02 505.31 1151.08 499.174C1153.8 498.897 1156.62 498.631 1159.23 498.597C1277.34 498.886 1385.23 693.912 1499.86 642.592C1539.89 624.639 1556.67 566.935 1580.67 528.647C1617.36 470.421 1662.09 420.834 1710.37 374.371C1761.32 325.33 1807.41 260.792 1870.62 226.85C1910.32 205.497 1961.41 182.12 2005.04 178.565C2094.08 171.232 2206.87 194.931 2277.36 271.837M-592.69 891.645C-583.2 848.78 -559.429 811.281 -525.505 785.66C-493.371 760.866 -458.15 730.683 -412.662 711.26C-386.493 700.274 -362.03 695.433 -337.549 700.74C-273.19 714.696 -198.969 750.025 -133.005 732.993C-114.374 728.805 -96.6757 721.342 -80.661 710.92C-22.5642 670.478 36.8675 640.374 104.704 627.31C169.021 615.957 235.336 618.041 299.825 633.442C352.9 646.016 405.798 657.45 459.843 665.434C497.266 670.766 525.69 688.825 573.101 675.772C621.316 662.446 691.013 700.924 739.377 697.2C754.213 696.045 775.311 688.303 797.273 680.906C872.666 655.374 955.459 622.353 1019.91 570.541C1061.32 537.383 1088.37 489.572 1143.82 481.845C1146.52 481.44 1149.25 481.214 1151.98 481.167C1271.79 480.256 1387.31 690.559 1495.69 635.886C1533.84 616.614 1552.59 558.759 1577.45 519.388C1614.35 461.03 1658.44 410.561 1705.6 362.349C1755.64 311.175 1799.26 245.971 1863.58 212.298C1903.55 191.381 1953.28 171.074 1999.33 165.681C2088.57 155.156 2211.24 189.422 2273.28 266.108M-597.156 875.372C-587.979 831.921 -565.565 793.17 -533.183 764.769C-499.882 735.406 -462.384 701.789 -421.721 683.188C-396.753 671.72 -372.751 667.187 -348.698 672.246C-283.244 686.01 -212.953 723.632 -145.612 710.619C-126.456 707.559 -108.103 700.962 -91.4087 691.136C-31.3821 652.935 29.5198 622.933 98.3077 609.612C164.638 597.141 233.31 599.818 299.623 617.461C354.214 632.59 410.824 650.122 467.351 655.357C505.183 658.845 533.688 674.771 580.899 660.167C627.005 645.907 697.1 683.509 743.67 680.158C758.5 679.105 779.526 672.528 801.512 665.542C875.705 641.924 958.056 610.488 1018.42 555.598C1057.72 519.925 1080.25 472.613 1136.5 463.999C1139.2 463.561 1141.92 463.301 1144.67 463.22C1265.56 461.454 1385.3 684.791 1490.9 628.196C1528.51 608.002 1548.65 549.935 1574.17 509.409C1610.97 451.142 1654.68 400.531 1700.16 349.9C1748.52 296.359 1791.78 230.608 1856.46 197.584C1896.75 177.057 1947.53 157.267 1993.44 152.675C2083.57 143.671 2209.51 179.094 2268.97 260.202M-601.624 859.15C-593.338 814.538 -572.136 774.083 -540.812 743.118C-508.891 711.367 -472.169 674.355 -431.59 654.725C-407.148 642.998 -383.831 638.394 -360.362 643.342C-295.012 657.196 -226.75 696.595 -159.106 687.489C-139.375 685.601 -120.286 679.917 -102.806 670.723C-41.045 634.743 21.2241 604.119 90.4808 589.572C155.546 575.965 230.849 576.785 296.162 596.857C354.132 614.684 412.271 640.177 473.906 645.588C513.752 649.133 542.2 661.993 589.014 645.819C633.618 630.382 703.644 666.702 748.874 663.517C763.701 662.515 784.589 656.587 806.501 650C879.269 627.967 959.097 597.543 1015.57 540.208C1052.79 502.38 1072.58 455.699 1129.27 446.265C1131.96 445.807 1134.69 445.546 1137.44 445.486C1257.85 442.752 1375.99 675.968 1485.04 619.426C1524.44 598.858 1544.48 540.219 1569.97 500.047C1606.86 441.892 1650.85 389.016 1694.06 337.741C1739.61 283.65 1784.58 215.681 1849.46 183.442C1890.07 163.255 1941.35 144.028 1987.66 140.141C2078.78 132.617 2207.89 169.39 2264.82 254.823M-606.149 843.024C-598.378 796.891 -578.359 754.376 -548.317 720.205C-518.849 686.72 -481.802 646.835 -441.318 626.329C-417.548 614.328 -394.475 609.698 -371.688 614.523C-306.576 628.251 -240.349 669.529 -172.923 663.969C-152.895 663.099 -133.36 658.212 -115.389 649.575C-51.9922 615.806 11.5717 583.328 80.7354 567.089C149.899 550.849 222.275 550.446 287.848 570.29C347.19 588.209 411.399 627.899 477.892 635.143C520.392 639.577 549.722 650.081 596.198 632.189C639.947 615.439 709.471 650.33 754.062 647.13C768.889 646.127 788.949 640.062 811.264 634.129C884.57 614.549 958.961 582.895 1010.98 524.431C1046.13 484.859 1065.45 438.74 1121.96 428.931C1124.66 428.464 1127.39 428.17 1130.14 428.051C1253.81 424.28 1366.9 665.382 1479.11 610.038C1519.71 590.104 1540.5 530.371 1566.19 489.506C1602.78 431.37 1646.09 377.658 1687.21 325.043C1730.71 269.005 1777.16 200.12 1842.59 168.601C1883.57 148.81 1936.91 128.166 1982.06 127.064C2074.09 124.785 2203.27 154.12 2260.76 248.689M-610.62 826.852C-605.07 775.676 -583.012 736.216 -555.785 696.735C-530.395 659.918 -491.383 619.27 -451.295 598.008C-427.995 585.652 -405.122 581.053 -382.768 585.73C-318.084 599.21 -252.996 643.02 -186.667 640.099C-166.924 639.201 -145.101 636.481 -127.641 627.85C-63.4691 595.895 0.416247 562.992 69.9759 541.898C140.893 520.335 212.627 514.358 278.018 536.376C339.891 557.159 407.901 611.115 479.415 623.166C525.454 630.875 556.376 638.691 602.689 619.455C659.116 595.819 701.655 643.752 759.804 631.361C774.217 628.276 794.715 623.887 816.517 618.31C889.978 599.408 955.225 568.381 1004.72 508.481C1038.38 467.682 1059.27 421.574 1114.84 411.055C1117.52 410.528 1120.24 410.199 1122.97 410.068C1249.86 405.205 1357.96 653.843 1473.19 599.935C1514.63 580.6 1536.37 519.844 1562.25 478.234C1598.4 420.103 1640.22 365.777 1679.79 312.031C1722 254.482 1769.56 185.304 1835.54 154.404C1876.94 135.013 1930.87 115.043 1976.29 114.479C2069.48 113.341 2201.46 144.244 2256.44 242.935M-615.138 810.625C-610.647 757.452 -589.546 714.323 -563.154 672.409C-539.484 634.749 -501.16 591.684 -461.175 569.697C-438.205 557.103 -415.475 552.438 -393.556 556.968C-329.153 570.214 -266.078 615.548 -200.312 616.189C-179.767 616.917 -159.45 613.294 -140.596 605.541C-74.7478 575.138 -9.28582 539.799 59.8641 512.544C131.387 484.313 203.12 473.543 268.374 496.974C332.722 519.953 402.382 589.531 476.873 608.419C527.716 621.27 560.81 627.375 606.623 606.66C663.311 581.164 706.377 628.54 764.505 615.687C778.775 612.536 798.637 608.082 820.551 602.261C893.836 583.035 951.191 553.887 997.78 493.225C1029.89 451.194 1052.43 404.697 1107.24 393.64C1109.92 393.087 1112.64 392.723 1115.38 392.552C1245.24 386.571 1348.63 641.499 1466.68 589.721C1509.16 571.106 1531.62 509.048 1557.49 466.876C1593.14 408.846 1633.02 353.961 1671.5 298.725C1713 239.164 1761.34 170.067 1828.22 139.72C1870.08 120.785 1924.61 101.591 1970.29 101.513C2064.71 101.167 2199.34 133.926 2251.85 236.644M-619.6 794.301C-616.201 738.873 -595.964 692.186 -570.398 647.688C-548.351 609.196 -510.789 564.113 -470.917 541.554C-448.075 528.64 -425.541 523.955 -403.847 528.156C-339.621 541.078 -278.363 587.955 -212.906 592.031C-192.284 593.631 -171.739 590.555 -152.7 583.016C-84.2328 553.242 -16.6871 512.818 51.6712 479.208C122.161 444.547 191.313 430.907 259.959 453.621C332.32 477.539 394.004 557.604 470.136 589.87C510.336 606.914 568.661 611.724 608.574 594.116C667.929 567.675 713.477 614.698 768.971 600.652C782.829 596.999 802.672 592.849 824.248 586.941C896.282 567.228 946.915 538.551 990.948 477.827C1022.18 434.888 1045.38 387.951 1100.52 376.52C1103.19 375.919 1105.91 375.539 1108.66 375.38C1241.15 368.247 1340.29 629.003 1460.87 579.223C1542.84 545.249 1608.96 366.696 1663.64 285.616C1704.59 224.621 1753.73 155.251 1821.55 125.564C1863.89 107.035 1919.01 88.6164 1964.91 89.0198C2060.63 89.9308 2197.64 123.958 2247.84 230.718M-624.057 777.876C-620.799 722.955 -604.885 670.132 -577.649 623.832C-554.35 585.012 -520.286 536.76 -480.385 513.745C-457.574 500.522 -434.988 495.791 -413.538 499.967C-349.337 512.478 -289.792 560.809 -224.882 568.193C-204.318 570.645 -183.668 567.975 -164.653 560.403C-92.6605 530.131 -23.4385 479.224 44.3602 442.701C106.709 409.179 179.232 377.483 251.661 407.527C331.72 440.763 388.543 527.052 460.815 564.473C504.654 587.199 556.797 604.52 607.477 580.692C667.325 552.62 716.103 600.745 772.707 586.255C786.369 582.581 805.834 578.187 827.028 572.087C897.55 551.349 942.344 522.369 984.066 462.424C1014.5 418.739 1038.43 371.215 1093.09 359.53C1095.75 358.912 1098.46 358.512 1101.19 358.335C1236.11 350.18 1331.49 616 1454.16 568.223C1537.61 535.831 1601.8 354.171 1655.5 272.274C1696.12 210.225 1745.97 140.521 1814.74 111.543C1857.53 93.4709 1913.19 75.9245 1959.31 76.6574C2056.46 78.4308 2195.58 114.056 2243.54 224.508M-628.503 761.299C-626.231 704.279 -611.361 649.047 -585.037 599.861C-563.258 560.117 -529.588 509.479 -489.455 485.876C-466.533 472.461 -443.699 467.704 -422.482 471.652C-358.237 483.454 -300.076 533.476 -235.756 544.062C-215.338 547.502 -194.607 545.303 -175.663 537.686C-99.606 506.155 -30.7999 445.975 38.1874 403.713C98.4329 366.758 171.038 329.717 243.956 359.812C327.239 394.251 381.668 484.268 451.916 533.817C494.379 563.742 549.708 592.512 603.64 566.219C663.67 536.789 717.208 587.552 775.572 571.665C789.087 567.976 808.066 563.48 828.85 556.827C897.343 535.47 937.434 505.336 977.393 446.838C1007.51 402.713 1031.31 354.92 1086.11 342.637C1088.77 342.027 1091.48 341.611 1094.21 341.391C1226.48 332.195 1324.05 606.505 1447.68 556.737C1534.64 521.652 1593.83 340.591 1647.43 258.684C1687.95 196.625 1738.51 125.771 1808.12 97.4934C1851.42 79.933 1907.63 63.1572 1953.96 64.3716C2052.64 66.967 2193.59 104.007 2239.36 218.156M-632.944 744.621C-631.57 685.697 -617.785 628.276 -592.556 576.386C-572.212 535.167 -538.675 482.678 -498.178 458.757C-475.042 445.058 -451.911 440.282 -430.734 444.072C-366.225 455.595 -309.218 506.772 -245.436 520.514C-225.172 525.058 -204.29 523.465 -185.305 515.927C-106.062 482.994 -36.5705 410.037 32.7943 363.224C91.1255 323.776 163.306 282.407 236.601 311.98C322.002 346.386 376.385 440.375 442.483 499.026C481.131 533.347 538.953 576.858 595.285 549.948C657.049 520.342 715.667 574.95 776.921 557.681C790.387 553.987 808.941 549.192 829.123 542.731C894.954 520.637 932.121 488.414 970.349 431.673C1000.39 387.234 1023.91 339.106 1078.78 326.423C1081.45 325.82 1084.16 325.388 1086.89 325.127C1221.67 315.071 1315.03 593.02 1440.52 545.179C1529.26 511.403 1585.63 327.396 1638.99 245.362C1679.41 183.292 1730.87 111.513 1801.16 84.0713C1845.03 66.9774 1899.89 52.9164 1948.33 52.668C2051.29 52.0389 2193.68 99.2747 2234.76 212.067M-637.375 727.791C-636.91 666.923 -624.235 607.292 -600.16 552.698C-581.101 509.968 -547.358 455.717 -506.481 431.223C-482.981 417.205 -459.655 412.449 -438.119 416.022C-372.44 426.903 -316.677 479.122 -253.571 495.853C-233.278 501.889 -211.858 500.521 -192.942 491.98C-111.4 452.863 -44.5442 373.92 28.0811 322.093C85.7261 280.993 155.959 236.871 229.478 265.193C316.03 298.495 372.013 393.671 433.31 460.795C471.266 502.386 524.389 555.911 585.843 530.556C651.474 503.699 712.528 562.741 776.482 543.97C789.85 540.266 808.035 535.075 827.652 528.199C941.424 488.416 964.127 335.672 1071.7 310.336C1074.34 309.707 1077.03 309.273 1079.75 309.034C1217.46 297.907 1305.66 577.97 1433.53 533.13C1522.25 502.054 1578.4 313.69 1630.86 231.818C1671.15 168.765 1723.33 97.2643 1794.7 70.7003C1839.07 54.1692 1894.42 40.975 1943.14 41.0612C2047.86 41.2796 2191.18 89.6307 2230.51 205.812M-641.752 710.864C-644.282 646.965 -628.309 587.137 -607.691 529.425C-591.402 483.704 -556.069 429.211 -514.235 404.358C-493.578 391.418 -469.265 385.762 -444.781 388.2C-377.16 395.51 -321.961 448.894 -259.563 468.356C-239.239 475.277 -217.433 474.094 -198.477 465.041C-115.407 423.483 -48.9946 335.723 23.8016 281.11C80.0384 238.893 148.781 194.208 222.362 220.701C309.766 252.154 367.136 347.984 424.157 419.813C459.299 463.966 511.489 533.506 576.513 508.523C644.672 482.185 704.274 549.643 774.508 530.404C788.316 526.746 805.584 521.256 824.725 514.126C935.551 472.608 958.643 319.956 1064.85 294.426C1067.51 293.766 1070.22 293.299 1072.96 293.028C1213.15 281.497 1296.84 562.109 1426.42 520.61C1514.73 492.295 1571.35 300.106 1622.89 218.136C1663.09 154.156 1716.22 83.0617 1788.43 57.4002C1833.36 41.437 1889.08 29.2514 1938.27 29.6927C2045.07 30.6371 2188.96 79.9159 2226.38 199.313M-646.226 693.928C-649.689 628.401 -634.812 566.368 -615.042 506.427C-599.699 459.281 -564.404 402.999 -521.414 377.757C-500.337 364.71 -475.918 358.26 -450.973 359.152C-381.801 362.035 -326.059 416.19 -264.205 438.093C-254.187 441.904 -243.607 443.603 -233.097 443.087C-222.587 442.571 -212.364 439.852 -203.039 435.093C-119.138 391.224 -53.7474 297.647 19.6651 241.008C74.8936 198.38 141.497 155.665 215.124 179.816C303.853 208.909 360.698 302.084 415.013 377.098C448.548 423.378 499.466 505.635 567.043 483.978C638.337 461.077 694.403 538.058 770.263 516.959C786.918 512.274 803.295 506.682 819.327 500.203C927.222 456.748 952.505 304.477 1057.56 279.184C1060.22 278.541 1062.93 278.091 1065.67 277.837C1207.66 265.781 1287.81 546.482 1418.6 508.424C1506.11 482.728 1563.8 286.774 1614.39 205.114C1654.59 140.216 1708.77 69.7407 1781.7 45.0222C1826.94 29.652 1883.54 18.526 1932.95 19.3475C2041.12 21.1999 2185.97 70.9354 2221.63 193.412M-650.65 676.996C-654.25 610.745 -644.805 544.927 -622.893 483.58C-605.51 435.27 -577.736 380.447 -529.118 351.713C-507.342 338.134 -482.505 330.416 -456.766 329.228C-386.238 327.664 -329.166 380.988 -267.727 405.653C-257.735 409.823 -247.075 411.738 -236.473 411.27C-225.87 410.801 -215.573 407.959 -206.283 402.936C-122.042 357.523 -58.3714 259.891 15.3261 202.618C69.894 160.33 133.845 122.335 207.356 143.568C297.409 169.535 353.352 256.548 405.88 333.415C438.896 381.731 492.737 476.531 557.621 457.041C625.218 436.66 683.97 526.006 763.86 503.391C777.786 499.439 793.978 493.836 812.039 486.644C920.389 442.982 945.208 289.439 1050.57 264.075C1053.23 263.416 1055.94 262.949 1058.67 262.678C1202.16 250.419 1279.64 530.485 1410.8 495.168C1497.22 472.01 1556.82 272.228 1606.22 191.361C1646.22 125.831 1701.65 55.8424 1775.5 32.1885C1824.66 16.2976 1876.12 8.34333 1928.15 8.59734C2037.93 11.3832 2183.27 61.1697 2217.47 186.655M-655.03 660.121C-663.253 544.586 -635.207 389.799 -536.583 325.745C-408.416 242.236 -310.129 422.9 -208.706 369.387C-77.8197 300.133 16.8187 73.1058 198.823 113.358C286.917 132.747 343.926 212.784 393.711 285.439C427.692 334.875 475.994 442.15 548.267 428.173C597.627 418.638 617.867 456.188 658.498 476.642C708.531 501.901 754.173 496.822 804.151 473.992C907.176 427.275 940.735 270.871 1043.7 249.133C1190.33 218.54 1264.6 514.077 1402.82 481.639C1477.73 463.96 1517.57 315.91 1554.83 250.043C1606.97 158.296 1667.82 48.8456 1769.31 19.9678C1904.87 -18.6642 2163.93 -15.0397 2212.84 180.206" stroke="url(#paint0_linear_320_19517)" stroke-width="0.5" stroke-miterlimit="10"/>
<defs>
<linearGradient id="paint0_linear_320_19517" x1="1919.59" y1="183.337" x2="29.0662" y2="608.902" gradientUnits="userSpaceOnUse">
<stop offset="0.683304" stop-color="#FD6721"/>
<stop offset="0.820933" stop-color="#FD6721" stop-opacity="0"/>
</linearGradient>
</defs>
</svg>
