<svg width="267" height="122" fill="none" xmlns="http://www.w3.org/2000/svg"><path d="M0 28.16C0 12.609 12.64 0 28.234 0h65.85c15.592 0 28.233 12.608 28.233 28.16v65.68c0 15.552-12.641 28.16-28.234 28.16h-65.85C12.642 122 0 109.392 0 93.84V28.16z" fill="#000"/><path d="M97.39 57.267c-1.278-8.287-8.34-14.306-16.784-14.306a17.963 17.963 0 00-5.322.805 3.689 3.689 0 00-2.598 3.511v5.758c1.896-2.027 4.588-3.281 7.637-3.281 2.84 0 5.49 1.076 7.449 3.03 1.97 1.965 3.049 4.63 3.049 7.482 0 5.883-4.62 10.502-10.498 10.512-2.818 0-5.448-1.087-7.397-3.051-1.948-1.965-3.027-4.608-3.027-7.45V35.973a3.196 3.196 0 00-3.196-3.196h-3.677v24.489s.088 2.74.368 4.468c.44 2.715.737 4.335 1.97 6.763 1.248 2.457 4.545 5.405 4.545 5.405 3.007 2.382 6.768 3.699 10.728 3.699 3.384 0 6.622-.982 9.367-2.853 5.992-4.075 8.559-10.125 7.417-17.482h-.031zm-72.186-.052c1.278-8.287 8.34-14.306 16.783-14.306a17.974 17.974 0 015.322.805 3.689 3.689 0 012.599 3.51v5.759c-1.896-2.028-4.589-3.282-7.638-3.282-2.839 0-5.49 1.077-7.449 3.03-1.97 1.965-3.048 4.63-3.048 7.483 0 5.883 4.62 10.502 10.497 10.512 2.819 0 5.448-1.087 7.397-3.051 1.949-1.965 3.028-4.608 3.028-7.45V43.556h3.195a3.67 3.67 0 013.678 3.668v41.307h-3.206a3.67 3.67 0 01-3.678-3.668V73.85c-3.007 2.383-6.768 3.7-10.728 3.7-3.384 0-6.621-.983-9.366-2.853-5.993-4.076-8.56-10.126-7.418-17.482h.032z" fill="#FF5100"/><path d="M157.696 72.656c-.764.624-1.702 1.092-2.814 1.404a12.32 12.32 0 01-3.441.468c-3.057 0-5.42-.797-7.088-2.392-1.668-1.594-2.502-3.916-2.502-6.966V51.809h-4.587V46.61h4.587v-6.343h6.515v6.343h7.454v5.199h-7.454v13.205c0 1.352.33 2.392.991 3.12.66.693 1.615 1.04 2.866 1.04 1.46 0 2.676-.382 3.649-1.145l1.824 4.627zm16.954 1.872c-2.815 0-5.352-.607-7.61-1.82-2.259-1.213-4.031-2.894-5.317-5.043-1.251-2.183-1.877-4.644-1.877-7.382 0-2.738.626-5.181 1.877-7.33 1.286-2.15 3.058-3.83 5.317-5.043 2.258-1.213 4.795-1.82 7.61-1.82 2.849 0 5.403.607 7.662 1.82 2.259 1.213 4.013 2.894 5.264 5.043 1.286 2.148 1.929 4.592 1.929 7.33 0 2.738-.643 5.199-1.929 7.382-1.251 2.15-3.005 3.83-5.264 5.043-2.259 1.213-4.813 1.82-7.662 1.82zm0-5.563c2.397 0 4.378-.797 5.942-2.391 1.563-1.595 2.345-3.691 2.345-6.29 0-2.6-.782-4.697-2.345-6.292-1.564-1.594-3.545-2.391-5.942-2.391-2.398 0-4.379.797-5.943 2.391-1.528 1.595-2.293 3.692-2.293 6.291 0 2.6.765 4.696 2.293 6.29 1.564 1.595 3.545 2.392 5.943 2.392zm33.595 5.563c-2.815 0-5.351-.607-7.61-1.82-2.259-1.213-4.031-2.894-5.317-5.043-1.251-2.183-1.876-4.644-1.876-7.382 0-2.738.625-5.181 1.876-7.33 1.286-2.15 3.058-3.83 5.317-5.043 2.259-1.213 4.795-1.82 7.61-1.82 2.849 0 5.404.607 7.662 1.82 2.259 1.213 4.014 2.894 5.265 5.043 1.285 2.148 1.928 4.592 1.928 7.33 0 2.738-.643 5.199-1.928 7.382-1.251 2.15-3.006 3.83-5.265 5.043-2.258 1.213-4.813 1.82-7.662 1.82zm0-5.563c2.398 0 4.378-.797 5.942-2.391 1.564-1.595 2.346-3.691 2.346-6.29 0-2.6-.782-4.697-2.346-6.292-1.564-1.594-3.544-2.391-5.942-2.391s-4.378.797-5.942 2.391c-1.529 1.595-2.294 3.692-2.294 6.291 0 2.6.765 4.696 2.294 6.29 1.564 1.595 3.544 2.392 5.942 2.392zm21.086-33.377h6.515v38.576h-6.515V35.588zm23.667 38.94c-2.258 0-4.465-.295-6.619-.884-2.155-.589-3.875-1.334-5.161-2.235l2.502-4.94c1.251.833 2.745 1.508 4.483 2.028 1.772.486 3.51.728 5.212.728 3.892 0 5.838-1.022 5.838-3.067 0-.97-.504-1.647-1.511-2.028-.973-.381-2.555-.745-4.744-1.091-2.293-.347-4.17-.746-5.629-1.196-1.425-.45-2.676-1.23-3.753-2.34-1.043-1.144-1.564-2.72-1.564-4.73 0-2.635 1.095-4.732 3.284-6.291 2.224-1.595 5.212-2.392 8.965-2.392 1.912 0 3.823.225 5.734.676 1.911.416 3.475.988 4.691 1.716l-2.502 4.938c-2.363-1.386-5.021-2.079-7.975-2.079-1.911 0-3.37.295-4.378.884-.973.554-1.46 1.3-1.46 2.235 0 1.04.522 1.785 1.564 2.236 1.077.416 2.728.814 4.952 1.196 2.224.346 4.048.745 5.473 1.195a8.384 8.384 0 013.649 2.288c1.042 1.074 1.563 2.6 1.563 4.575 0 2.6-1.129 4.679-3.388 6.239-2.259 1.56-5.334 2.339-9.226 2.339z" fill="#000"/></svg>