<svg width="140" height="140" fill="none" xmlns="http://www.w3.org/2000/svg"><g filter="url(#filter0_di_414_3571)"><rect x="20" y="20" width="100" height="100" rx="50" fill="url(#paint0_linear_414_3571)" shape-rendering="crispEdges"/><path d="M85.72 83.58v7.92H53.98v-6.3l16.2-15.3c1.72-1.64 2.88-3.04 3.48-4.2.6-1.2.9-2.38.9-3.54 0-1.68-.58-2.96-1.74-3.84-1.12-.92-2.78-1.38-4.98-1.38-1.84 0-3.5.36-4.98 1.08-1.48.68-2.72 1.72-3.72 3.12l-7.08-4.56c1.64-2.44 3.9-4.34 6.78-5.7 2.88-1.4 6.18-2.1 9.9-2.1 3.12 0 5.84.52 8.16 1.56 2.36 1 4.18 2.44 5.46 4.32 1.32 1.84 1.98 4.02 1.98 6.54 0 2.28-.48 4.42-1.44 6.42s-2.82 4.28-5.58 6.84l-9.66 9.12h18.06z" fill="#fff"/></g><defs><linearGradient id="paint0_linear_414_3571" x1="20" y1="73.075" x2="120.266" y2="75.556" gradientUnits="userSpaceOnUse"><stop stop-color="#FF5B29"/><stop offset="1" stop-color="#FFA917"/></linearGradient><filter id="filter0_di_414_3571" x="0" y="0" width="140" height="140" filterUnits="userSpaceOnUse" color-interpolation-filters="sRGB"><feFlood flood-opacity="0" result="BackgroundImageFix"/><feColorMatrix in="SourceAlpha" values="0 0 0 0 0 0 0 0 0 0 0 0 0 0 0 0 0 0 127 0" result="hardAlpha"/><feOffset/><feGaussianBlur stdDeviation="10"/><feComposite in2="hardAlpha" operator="out"/><feColorMatrix values="0 0 0 0 1 0 0 0 0 0.368627 0 0 0 0 0.0745098 0 0 0 0.4 0"/><feBlend in2="BackgroundImageFix" result="effect1_dropShadow_414_3571"/><feBlend in="SourceGraphic" in2="effect1_dropShadow_414_3571" result="shape"/><feColorMatrix in="SourceAlpha" values="0 0 0 0 0 0 0 0 0 0 0 0 0 0 0 0 0 0 127 0" result="hardAlpha"/><feOffset dx="4" dy="4"/><feGaussianBlur stdDeviation="7.5"/><feComposite in2="hardAlpha" operator="arithmetic" k2="-1" k3="1"/><feColorMatrix values="0 0 0 0 1 0 0 0 0 1 0 0 0 0 1 0 0 0 0.2 0"/><feBlend in2="shape" result="effect2_innerShadow_414_3571"/></filter></defs></svg>