<svg width="140" height="140" fill="none" xmlns="http://www.w3.org/2000/svg"><g filter="url(#filter0_di_414_216)"><rect x="20" y="20" width="100" height="100" rx="50" fill="url(#paint0_linear_414_216)" shape-rendering="crispEdges"/><path d="M73.96 66.6c3.68.6 6.5 1.98 8.46 4.14 1.96 2.12 2.94 4.76 2.94 7.92 0 2.44-.64 4.7-1.92 6.78-1.28 2.04-3.24 3.68-5.88 4.92-2.6 1.24-5.8 1.86-9.6 1.86-2.96 0-5.88-.38-8.76-1.14-2.84-.8-5.26-1.92-7.26-3.36l3.78-7.44c1.6 1.2 3.44 2.14 5.52 2.82 2.12.64 4.28.96 6.48.96 2.44 0 4.36-.46 5.76-1.38 1.4-.96 2.1-2.3 2.1-4.02 0-3.44-2.62-5.16-7.86-5.16h-4.44v-6.42l8.64-9.78H54.04v-7.8h29.4v6.3l-9.48 10.8z" fill="#fff"/></g><defs><linearGradient id="paint0_linear_414_216" x1="20" y1="73.075" x2="120.266" y2="75.556" gradientUnits="userSpaceOnUse"><stop stop-color="#FF5B29"/><stop offset="1" stop-color="#FFA917"/></linearGradient><filter id="filter0_di_414_216" x="0" y="0" width="140" height="140" filterUnits="userSpaceOnUse" color-interpolation-filters="sRGB"><feFlood flood-opacity="0" result="BackgroundImageFix"/><feColorMatrix in="SourceAlpha" values="0 0 0 0 0 0 0 0 0 0 0 0 0 0 0 0 0 0 127 0" result="hardAlpha"/><feOffset/><feGaussianBlur stdDeviation="10"/><feComposite in2="hardAlpha" operator="out"/><feColorMatrix values="0 0 0 0 1 0 0 0 0 0.368627 0 0 0 0 0.0745098 0 0 0 0.4 0"/><feBlend in2="BackgroundImageFix" result="effect1_dropShadow_414_216"/><feBlend in="SourceGraphic" in2="effect1_dropShadow_414_216" result="shape"/><feColorMatrix in="SourceAlpha" values="0 0 0 0 0 0 0 0 0 0 0 0 0 0 0 0 0 0 127 0" result="hardAlpha"/><feOffset dx="4" dy="4"/><feGaussianBlur stdDeviation="7.5"/><feComposite in2="hardAlpha" operator="arithmetic" k2="-1" k3="1"/><feColorMatrix values="0 0 0 0 1 0 0 0 0 1 0 0 0 0 1 0 0 0 0.2 0"/><feBlend in2="shape" result="effect2_innerShadow_414_216"/></filter></defs></svg>