<svg width="150" height="150" fill="none" xmlns="http://www.w3.org/2000/svg"><path d="M108.519 46.033h10.2l-7.48 27.541h-9.86l7.14-27.54zM39.158 76.294h10.2l-7.14 26.861h-9.86l6.8-26.861z" fill="#3E3B46"/><path d="M129.259 57.253h10.201l-9.521 35.021h-9.86l9.18-35.02zM15.695 76.293h10.2l-4.42 15.98h-9.86l4.08-15.98zm124.104-13.259H150l-6.461 23.46h-9.86l6.12-23.46zm-132.603 0h10.2l-6.46 23.46h-9.86l6.12-23.46zm111.525-10.881h10.2l-12.24 45.221h-9.861l11.901-45.221zM27.256 76.294h10.2l-5.44 21.42h-10.2l5.44-21.42z" fill="#5A585C"/><path d="M51.398 75.954h59.162l-4.42 16.66H47.318l4.08-16.66z" fill="#D81D16"/><path d="M47.772 96.452l-.245 1.225h2.15l-.178.86h-2.138l-.337 1.688h-1.08l.927-4.633h3.502l-.179.86h-2.422zm3.393-.86h1.079l-.927 4.633h-1.079l.927-4.633zm3.019.873h-1.483l.179-.873h4.037l-.178.873h-1.476l-.755 3.76h-1.072l.748-3.76zm7.626-.873l-.927 4.633h-.88l-1.727-2.9-.583 2.9h-1.059l.927-4.633h.887l1.727 2.905.576-2.905h1.059zm2.056.86l-.199 1.006h2.151l-.165.834h-2.158l-.212 1.072h2.529l-.179.861h-3.587l.926-4.633h3.502l-.179.86h-2.43zm4.302 3.852c-.367 0-.718-.048-1.053-.145a2.546 2.546 0 01-.807-.371l.436-.827c.212.154.45.273.715.357.265.084.536.126.814.126.296 0 .53-.049.702-.146.172-.097.258-.23.258-.397 0-.137-.068-.24-.205-.311a3.323 3.323 0 00-.655-.238 7.28 7.28 0 01-.735-.252 1.398 1.398 0 01-.497-.37c-.136-.164-.205-.38-.205-.65 0-.312.086-.588.258-.826.177-.239.424-.422.742-.55a3.015 3.015 0 011.118-.192c.314 0 .61.035.887.106.278.066.517.163.715.291l-.404.821a1.844 1.844 0 00-.582-.265 2.444 2.444 0 00-.675-.092c-.305 0-.545.053-.722.158-.176.106-.264.243-.264.41 0 .102.037.188.112.259a.93.93 0 00.285.165c.114.04.275.089.483.146.296.08.538.161.728.245.19.08.35.199.483.357.137.155.205.36.205.616 0 .318-.088.596-.264.834a1.734 1.734 0 01-.748.549 3.035 3.035 0 01-1.126.192zm4.286 0c-.366 0-.717-.048-1.052-.145a2.546 2.546 0 01-.807-.371l.436-.827c.212.154.45.273.715.357.265.084.536.126.814.126.296 0 .53-.049.702-.146.172-.097.258-.23.258-.397 0-.137-.068-.24-.205-.311a3.323 3.323 0 00-.655-.238 7.28 7.28 0 01-.735-.252 1.398 1.398 0 01-.496-.37c-.137-.164-.206-.38-.206-.65 0-.312.086-.588.258-.826.177-.239.424-.422.742-.55a3.015 3.015 0 011.118-.192c.314 0 .61.035.887.106.278.066.517.163.715.291l-.404.821a1.844 1.844 0 00-.582-.265 2.444 2.444 0 00-.675-.092c-.305 0-.545.053-.722.158-.176.106-.264.243-.264.41 0 .102.037.188.112.259a.93.93 0 00.285.165c.115.04.276.089.483.146.296.08.538.161.728.245.19.08.35.199.483.357.137.155.205.36.205.616 0 .318-.088.596-.264.834a1.734 1.734 0 01-.748.549 3.035 3.035 0 01-1.126.192zm7.049 0c-.463 0-.87-.084-1.218-.251a1.857 1.857 0 01-.794-.709 1.983 1.983 0 01-.278-1.052c0-.525.119-.997.357-1.416a2.612 2.612 0 011.02-1c.436-.242.937-.364 1.502-.364.415 0 .781.07 1.099.212.317.141.558.344.721.609l-.774.635c-.247-.362-.62-.542-1.119-.542-.34 0-.64.079-.9.238-.26.159-.463.375-.609.648a1.962 1.962 0 00-.212.914c0 .357.113.642.338.854.23.207.55.31.96.31.49 0 .9-.178 1.23-.535l.636.648c-.459.534-1.112.801-1.96.801zm3.411-4.712h1.08l-.755 3.76h2.323l-.179.873h-3.395l.926-4.633zm5.26 4.712c-.582 0-1.039-.143-1.37-.43-.33-.291-.496-.688-.496-1.191 0-.146.017-.311.053-.497l.516-2.594h1.079l-.516 2.574c-.027.146-.04.276-.04.39 0 .279.075.489.225.63.154.136.377.205.668.205.327 0 .587-.097.782-.291.194-.194.335-.506.423-.934l.516-2.574h1.053l-.523 2.64c-.282 1.382-1.072 2.072-2.37 2.072zm6.991-2.469a.954.954 0 01.622.927c0 .481-.19.845-.57 1.092-.38.247-.884.371-1.515.371h-2.43l.927-4.633h2.237c.499 0 .883.092 1.152.278.27.18.404.44.404.78 0 .283-.075.526-.225.729a1.38 1.38 0 01-.602.456zM93.099 96.4l-.218 1.092h1.092c.282 0 .5-.055.655-.165a.568.568 0 00.239-.49c0-.291-.228-.437-.682-.437h-1.086zm.669 3.018c.3 0 .534-.057.701-.172a.565.565 0 00.252-.496c0-.318-.232-.477-.695-.477h-1.297l-.225 1.145h1.264z" fill="#fff"/><path d="M26.793 58.375c1.935 0 3.436.422 4.5 1.266 1.065.843 1.597 2.025 1.597 3.546 0 1.217-.304 2.288-.912 3.215-.595.926-1.452 1.645-2.572 2.157-1.106.511-2.392.767-3.858.767h-2.51l-.705 3.568H17.44l2.903-14.519h6.45zm-.996 7.177c.677 0 1.203-.166 1.576-.498.374-.346.56-.823.56-1.431 0-.982-.608-1.473-1.825-1.473h-1.639l-.684 3.402h2.012zm14.397 7.674c-1.48 0-2.779-.27-3.899-.81-1.106-.552-1.963-1.32-2.572-2.301-.594-.982-.892-2.11-.892-3.381 0-1.687.388-3.187 1.162-4.5a8.149 8.149 0 013.256-3.091c1.397-.733 2.973-1.1 4.729-1.1 1.48 0 2.772.277 3.878.83 1.12.54 1.978 1.3 2.572 2.282.609.981.913 2.108.913 3.38 0 1.687-.394 3.194-1.182 4.522-.775 1.313-1.86 2.337-3.257 3.07-1.382.732-2.952 1.099-4.708 1.099zm.415-3.962c.774 0 1.445-.2 2.012-.601a3.824 3.824 0 001.327-1.618 5.356 5.356 0 00.457-2.22c0-.857-.256-1.541-.768-2.053-.498-.511-1.189-.767-2.074-.767-.774 0-1.452.2-2.032.601a3.882 3.882 0 00-1.307 1.618 5.355 5.355 0 00-.456 2.22c0 .857.249 1.541.746 2.053.512.511 1.21.767 2.095.767zm34.165-10.889l-7.55 14.519h-5.247l-.83-7.654-3.981 7.654h-5.248l-1.742-14.519h4.833l.933 8.276 4.314-8.276h4.5l.83 8.4 4.377-8.4h4.811zm4.323 3.692l-.332 1.7h6.14l-.706 3.527h-6.16l-.373 1.908h7.28l-.747 3.692H72.128l2.904-14.519h11.801l-.747 3.692h-6.99zm21.608 1.079c0 1.286-.345 2.412-1.037 3.38-.677.954-1.638 1.666-2.883 2.137l2.427 4.23h-5.081l-2.054-3.65h-1.203l-.725 3.65h-4.895l2.903-14.518h6.513c1.908 0 3.388.422 4.439 1.266 1.064.83 1.596 1.998 1.596 3.505zm-4.956.477c0-.982-.609-1.473-1.826-1.473h-1.638l-.685 3.402h2.012c.678 0 1.203-.166 1.577-.498.373-.346.56-.823.56-1.431z" fill="#D81D16"/><path d="M62.917 83.94h4.252l-1.244 6.264a9.074 9.074 0 01-2.676 1.286c-.995.29-2.067.436-3.215.436-1.48 0-2.786-.27-3.92-.81-1.12-.552-1.99-1.32-2.613-2.301-.608-.982-.913-2.109-.913-3.381 0-1.687.395-3.187 1.183-4.5.788-1.314 1.887-2.337 3.297-3.07 1.41-.747 3.029-1.12 4.854-1.12 3.014 0 5.212.947 6.595 2.841l-3.505 2.717c-.456-.58-.947-.989-1.473-1.224-.525-.249-1.14-.373-1.846-.373-.843 0-1.583.187-2.219.56a3.814 3.814 0 00-1.452 1.576c-.331.664-.497 1.425-.497 2.282s.283 1.548.85 2.074c.567.511 1.348.767 2.344.767.498 0 .974-.069 1.43-.207l.768-3.816zm14.675 2.386l-1.037 5.268H71.66l1.058-5.33-3.63-9.188h4.916l1.97 5.019 4.045-5.02h4.915l-7.342 9.25zm25.552-9.25l-2.862 14.518h-4.46l1.286-6.616-4.086 5.31h-2.157l-2.24-5.227-1.306 6.533h-4.46l2.904-14.518h3.983l3.152 7.715 6.077-7.715h4.169z" fill="#fff"/></svg>