<svg width="150" height="150" fill="none" xmlns="http://www.w3.org/2000/svg"><path d="M58.462 78.142a10.25 10.25 0 00-1.089.263c-.46.141-.85.36-1.173.658-.322.297-.56.689-.713 1.174-.153.485-.23 1.135-.23 1.95v6.857a41.02 41.02 0 00-2.737.212c-1.027.11-2.368.352-4.024.728a66.58 66.58 0 01-3.795.822c-1.12.203-2.369.305-3.749.305-2.606 0-4.876-.486-6.808-1.456-1.932-.97-3.541-2.224-4.83-3.758a15.5 15.5 0 01-2.874-5.167 19.898 19.898 0 01-.382-1.308l.08-.075-.012-.013.016.017a.94.94 0 00.062-.065l.111-.11-.013-.014v-.002l.017.016.003-.004.004-.003v-.001l.033-.035.121-.13c.048-.05.019-.022.162-.178.151-.166.143-.152.178-.193.015-.016.07-.08.175-.204l.002.003c.03-.034.056-.07.08-.105l.052-.063.002.002.002-.002.002.001a.816.816 0 00.05-.066l.125-.154-.023-.019.026.022c.02-.025.038-.05.056-.075l.025-.033.003.002c.02-.024.037-.05.054-.075l.11-.14.003.002c.02-.027.038-.053.055-.08l.09-.115.05-.068.001.001.01-.012.001.001c.018-.023.034-.046.05-.07l.14-.19.002.002v-.001l.002.001.036-.052.006-.008h.002a1.918 1.918 0 00.182-.342c.04-.1.07-.203.09-.31l-.042-.009.046.009c.014-.079.02-.157.018-.234a1.462 1.462 0 00-.007-.178l-.01.001.012-.002a1.56 1.56 0 00-.096-.377l-.001-.005.004-.001a1.204 1.204 0 00-.066-.143 1.346 1.346 0 00-.404-.483 1.414 1.414 0 00-1.1-.258V74.8l-.009.002v-.001l-.043.009-.001-.01-.004-.043-.002-.022a2.662 2.662 0 00-.029-.185l-.01.002-.001-.002.013-.002a2.323 2.323 0 00-.063-.248l-.011.004-.001-.003.013-.004a1.175 1.175 0 00-.059-.152 2.204 2.204 0 00-.183-.361l-.002.001.003-.003a1.177 1.177 0 00-.064-.09 2.38 2.38 0 00-.456-.495l.001-.002a1.168 1.168 0 00-.09-.066l-.04-.03c.166-1.58.539-3.068 1.119-4.465.812-1.957 1.924-3.664 3.335-5.12a15.27 15.27 0 014.921-3.405c1.87-.814 3.88-1.221 6.026-1.221.49 0 1.08.031 1.77.094.69.062 1.457.235 2.3.516.844.282 1.772.705 2.784 1.268 1.012.564 2.085 1.347 3.22 2.35.398-.752.682-1.37.85-1.856.17-.486.3-.948.392-1.386h.965l.184 9.16h-.874c-.306-1.065-.666-1.989-1.08-2.772a10.012 10.012 0 00-1.38-2.02 9.637 9.637 0 00-1.587-1.432 13.422 13.422 0 00-1.656-1.01 8.997 8.997 0 00-1.656-.705 10.045 10.045 0 00-1.426-.328 7.635 7.635 0 00-1.058-.094h-.552c-1.135 0-2.323.195-3.565.587-1.242.391-2.376 1.12-3.404 2.184-1.027 1.065-1.878 2.505-2.553 4.321-.674 1.816-1.011 4.165-1.011 7.046 0 1.315.1 2.818.298 4.509a16.02 16.02 0 001.357 4.838 10.118 10.118 0 003.128 3.875c1.38 1.05 3.235 1.574 5.566 1.574 1.81 0 3.243-.235 4.3-.705 1.059-.47 1.856-1.057 2.393-1.761a5.381 5.381 0 001.035-2.349c.106-.599.176-1.17.208-1.717.095-.047.172-.09.232-.129a3.324 3.324 0 00.418-.322h.001l.014-.012.002.003c.024-.022.047-.044.068-.067a3.052 3.052 0 00.3-.33c.047-.058.1-.132.16-.216l.004.003a4.492 4.492 0 00.139-.217l.001.001a1.2 1.2 0 00.073-.139c.233-.455.365-1.002.397-1.639a7.49 7.49 0 00-.05-1.222c.364-.244.686-.483.966-.718.478-.4.837-.799 1.075-1.193h4.985c-.083.332-.156.663-.221.996a11.296 11.296 0 00-.047.267zM22.539 74.68c-1.851 1.464-3.706 2.827-7.64.349a18.872 18.872 0 00-.227-.14c-2.197-1.345-4.223-1.991-6.206-1.953-2.056.04-4.05.812-6.127 2.302a.284.284 0 00-.067.39.27.27 0 00.382.068c.122-.087.243-.172.364-.254 1.855-1.259 3.637-1.912 5.456-1.947 1.655-.032 3.351.446 5.173 1.442.317.173.639.362.964.567 3.375 2.127 5.333 1.637 6.997.555l-.028.062a4.446 4.446 0 00-.33 1.189 3.28 3.28 0 00.02 1.124c.069.337.22.634.456.89.118.125.255.231.411.313.156.082.333.142.53.181a1.781 1.781 0 00.713-.022 2.648 2.648 0 00.706-.267c.221-.118.455-.282.706-.488a7.614 7.614 0 00.664-.6 13.747 13.747 0 00.623-.685c.108-.132.207-.25.295-.36.087-.11.165-.207.229-.29l.208-.273c.073-.095.148-.198.229-.307a.467.467 0 00.064-.159.3.3 0 00-.017-.152c-.033-.101-.109-.157-.227-.171a.25.25 0 00-.158.029.308.308 0 00-.118.128c-.047.072-.097.152-.156.234a6.507 6.507 0 01-.198.26c-.073.092-.151.188-.239.292l-.274.323a9.627 9.627 0 01-.602.651c-.104.101-.21.203-.319.302-.11.098-.222.195-.337.291a3.665 3.665 0 01-.336.254 2.324 2.324 0 01-.628.305 1.524 1.524 0 01-.302.064.638.638 0 01-.52-.17c-.323-.262-.427-.778-.311-1.547.025-.167.073-.353.146-.553.07-.202.165-.424.283-.665a6.28 6.28 0 01.532-.907c.177-.244.354-.43.533-.557.23-.167.425-.205.588-.116.33.18.278.681.555.719.057.007.12-.015.194-.065a.538.538 0 00.156-.155.274.274 0 00.038-.17.97.97 0 00-.154-.473 1.257 1.257 0 00-.621-.516 1.501 1.501 0 00-.385-.092 1.43 1.43 0 00-.392.022 2.11 2.11 0 00-.383.11 2.151 2.151 0 00-.363.193 3.283 3.283 0 00-.363.27l-.187.175zm70.887-4.508c-.042.101-.094.236-.16.403-.064.166-.142.366-.227.6a28.04 28.04 0 00-.29.815 47.751 47.751 0 00-.699 2.192c-.114.381-.218.757-.32 1.134-.099.373-.188.752-.264 1.133-.078.379-.144.762-.198 1.148-.111.77-.133 1.391-.062 1.864a2.868 2.868 0 00.227.806.903.903 0 00.25.34.6.6 0 00.352.142c.215.007.484-.12.81-.384a6.592 6.592 0 00.919-.897c.29-.337.602-.74.935-1.208.165-.231.31-.439.432-.62.12-.178.222-.332.3-.46l.234-.372c.078-.12.151-.238.224-.357a.326.326 0 00.043-.098.21.21 0 00.004-.085.143.143 0 00-.075-.116.367.367 0 00-.187-.038.44.44 0 00-.226.04.31.31 0 00-.14.143l-.078.12c-.042.063-.099.148-.172.254l-.222.318c-.076.109-.151.215-.227.326-.153.22-.333.472-.54.762l-.3.42c-.1.132-.194.262-.289.385a23.7 23.7 0 01-.545.7 7.606 7.606 0 01-.463.523 1.204 1.204 0 01-.172.142c-.048.034-.085.049-.114.049-.026 0-.05-.015-.07-.042a.344.344 0 01-.046-.127 1.106 1.106 0 01-.02-.186 3.069 3.069 0 01-.008-.217v-.241c.083-1.136.409-2.621.976-4.45.283-.916.569-1.765.857-2.551.285-.784.574-1.505.867-2.163a10.593 10.593 0 001.764.024 8.947 8.947 0 001.126-.128c.18-.031.361-.072.546-.125a6.77 6.77 0 00.562-.19c.38-.15.713-.334.996-.553.142-.108.272-.234.395-.376.12-.142.231-.302.33-.478.102-.176.182-.366.241-.566.059-.2.099-.413.121-.635a.361.361 0 00-.007-.159.24.24 0 00-.083-.115.287.287 0 00-.135-.06.324.324 0 00-.149.016.283.283 0 00-.129.084.36.36 0 00-.078.157 2.681 2.681 0 01-.1.56c-.052.176-.122.34-.212.492-.09.152-.191.289-.3.412-.111.123-.23.231-.359.323a3.048 3.048 0 01-.413.249 4.32 4.32 0 01-.477.202c-.34.12-.666.205-.978.256-.31.048-.635.077-.975.084-.168.003-.324.005-.46.005a7.359 7.359 0 01-.662-.036 7.123 7.123 0 01-.274-.027 15.037 15.037 0 01.664-1.2.303.303 0 00.061-.198.403.403 0 00-.083-.213.609.609 0 00-.43-.26.624.624 0 00-.273.02.953.953 0 00-.28.149 3.115 3.115 0 00-.415.509 4.998 4.998 0 00-.408.73l-.173.357a12.417 12.417 0 01-.892-.106 20.87 20.87 0 00-1.177-.132 6.408 6.408 0 00-.547-.022c-.196 0-.407.005-.628.014a3.875 3.875 0 00-1.266.275c-.201.082-.39.179-.57.294a3.33 3.33 0 00-.51.393.282.282 0 00-.07.07.372.372 0 00-.069.285.36.36 0 00.1.173c.051.054.103.08.158.075.056-.002.11-.033.165-.094a2.02 2.02 0 01.338-.28c.125-.084.262-.159.41-.221a3.566 3.566 0 01.865-.256c.276-.04.602-.063.975-.063a11.07 11.07 0 01.919.034c.123.012.255.024.401.041.144.017.303.034.473.056.167.021.307.038.413.053.108.012.184.021.229.024l.014-.07zm37.514 6.301c-.139.147-.29.287-.456.42a12.482 12.482 0 01-1.209.81 20.468 20.468 0 01-.231-1.143 9.672 9.672 0 01-.109-.863 2.094 2.094 0 010-.297c.003-.053.01-.109.014-.164.007-.058.017-.118.026-.183a.757.757 0 01.125-.316c.064-.087.14-.128.23-.128.023 0 .042.005.059.014a.09.09 0 01.03.041.25.25 0 010 .15l-.021.094a1.033 1.033 0 01-.111.323.126.126 0 00-.007.027.438.438 0 00.005.096.573.573 0 00.03.097.478.478 0 00.111.154c.05.043.111.05.187.022a.33.33 0 00.113-.075.686.686 0 00.116-.145l.047.036a1.26 1.26 0 00.187-.376 1.09 1.09 0 00.042-.393 1.02 1.02 0 00-.087-.357.825.825 0 00-.203-.265.878.878 0 00-.373-.19.88.88 0 00-.451.007 1.153 1.153 0 00-.227.084 1.617 1.617 0 00-.224.133c-.144.106-.27.263-.373.468a2.132 2.132 0 00-.135.332 2.888 2.888 0 00-.087.389c-.031.229-.015.598.047 1.106.063.51.175 1.158.335 1.944a6.436 6.436 0 00-.425.319 9.204 9.204 0 00-.42.359 6.451 6.451 0 00-.803.912 3.265 3.265 0 00-.305.508 1.659 1.659 0 00-.144.468c-.017.123-.021.239-.017.35.008.11.026.215.06.313.03.1.07.188.118.266a.814.814 0 00.177.2c.068.058.144.106.224.15.078.043.163.079.253.113.179.062.375.084.581.062a2.273 2.273 0 00.609-.15 1.57 1.57 0 00.293-.146 2.271 2.271 0 00.527-.477c.075-.095.146-.198.212-.307.352-.63.402-1.618.146-2.966.702-.423 1.281-.911 1.824-1.433.254-.243.501-.488.751-.722 1.048-.981 2.15-1.777 4.036-1.563 1.116.127 2.309.556 3.534 1.192a21.27 21.27 0 011.923 1.14c1.215.804 2.543 1.018 3.91.78 1.484-.257 3.012-1.05 4.488-2.195a.283.283 0 00.052-.391.27.27 0 00-.383-.054c-.109.084-.218.167-.327.247-1.303.958-2.635 1.618-3.92 1.84-1.236.215-2.432.025-3.521-.696a23.842 23.842 0 00-1.162-.723c-1.564-.91-3.101-1.534-4.534-1.697-2.735-.31-3.58.728-5.157 2.45zm-27.62-.161a.972.972 0 00-.17.2 2.49 2.49 0 00-.182.323 6.548 6.548 0 00-.338.868 4.818 4.818 0 00-.208 1.018 4.746 4.746 0 000 .97c.017.144.052.276.104.395.052.12.121.224.206.318.087.092.189.16.307.205.118.046.25.065.399.063.243-.007.692-.311 1.348-.912.659-.6 1.28-1.237 1.868-1.907.588-.673.935-1.131 1.039-1.38a.708.708 0 00.026-.072.359.359 0 00.014-.068c.012-.074 0-.132-.03-.17-.033-.04-.085-.061-.163-.064a.491.491 0 00-.222.041.627.627 0 00-.192.143c-.122.173-.335.441-.642.8-.309.36-.708.815-1.199 1.363-.492.547-.884.96-1.177 1.234-.292.275-.486.413-.58.413a.169.169 0 01-.088-.022.156.156 0 01-.057-.07.39.39 0 01-.028-.116c-.002-.045-.005-.098 0-.159a3.74 3.74 0 01.043-.383c.018-.133.054-.29.101-.466l.073-.255c.024-.082.05-.162.074-.239.023-.077.049-.16.077-.241l.088-.253.087-.241c.029-.07.052-.135.073-.19l.13-.348a2.33 2.33 0 00.048-.133 1.065 1.065 0 00.075-.316.478.478 0 00-.113-.35.405.405 0 00-.132-.098.565.565 0 00-.166-.048.76.76 0 00-.519.118l.026.029zm.935-.67c.009-.006.021-.01.035-.018.012-.004.026-.012.04-.02a.857.857 0 00.331-.281.514.514 0 00.078-.355.603.603 0 00-.099-.265.596.596 0 00-.22-.18c-.229-.119-.449-.078-.663.127a.655.655 0 00-.229.494.685.685 0 00.042.273.546.546 0 00.151.203.395.395 0 00.239.089.7.7 0 00.302-.075l-.007.007zm14.156-.36c.038.058.085.091.139.099.057.007.121-.015.194-.065a.535.535 0 00.156-.155.272.272 0 00.038-.17.97.97 0 00-.154-.473 1.292 1.292 0 00-.621-.517 1.5 1.5 0 00-.385-.091c-.13-.01-.26-.005-.392.022-.13.023-.257.062-.382.11a2.123 2.123 0 00-.364.193 3.039 3.039 0 00-.451.35 3.627 3.627 0 00-.413.456 5.02 5.02 0 00-.645 1.08 4.485 4.485 0 00-.331 1.189c-.056.407-.049.784.021 1.124.069.337.22.634.456.89.118.125.255.231.411.313.156.082.333.142.529.181a1.774 1.774 0 00.713-.022 2.62 2.62 0 00.706-.267 4.39 4.39 0 00.707-.488 7.754 7.754 0 00.963-.919c.104-.113.213-.236.324-.366.108-.132.207-.25.295-.36.087-.11.165-.207.229-.29l.208-.273c.073-.095.149-.198.229-.307a.482.482 0 00.064-.159.3.3 0 00-.017-.152c-.033-.101-.109-.157-.227-.171a.25.25 0 00-.158.029.308.308 0 00-.118.128c-.047.072-.097.152-.156.234a12.023 12.023 0 01-.437.552l-.274.323a9.517 9.517 0 01-.602.651c-.104.101-.21.203-.319.302a16.01 16.01 0 01-.337.291 3.665 3.665 0 01-.336.254 2.63 2.63 0 01-.321.185 2.45 2.45 0 01-.307.12 1.518 1.518 0 01-.302.064.64.64 0 01-.52-.17c-.323-.262-.427-.778-.311-1.547.025-.167.073-.353.146-.553a6.21 6.21 0 01.283-.665 6.28 6.28 0 01.532-.907c.177-.244.354-.43.533-.557.229-.167.426-.205.588-.116.163.09.296.304.395.646l.021-.026zm9.998 3.636c.002.015.009.053.014.114.007.06.016.145.026.256.012.108.019.197.026.27.007.07.009.12.009.151v.348c0 .161-.014.304-.04.424-.014.06-.031.12-.05.179a1.59 1.59 0 01-.061.18 1.911 1.911 0 01-.125.283c-.201.347-.458.523-.77.53a.628.628 0 01-.326-.07.6.6 0 01-.234-.234.748.748 0 01-.082-.477c.023-.174.099-.364.229-.567a3.72 3.72 0 01.566-.694c.232-.232.508-.459.832-.685l-.014-.008zM36.173 74.37c-.333.07-.63.246-.893.528a3.442 3.442 0 00-.637.963c-.17.364-.288.735-.352 1.111a4.05 4.05 0 00-.036 1.148c.029.232.08.442.16.63.081.19.185.359.317.508.263.297.624.459 1.08.488.392.029.77-.078 1.138-.316.366-.241.72-.613 1.063-1.12a2.537 2.537 0 001.211-.062 3.39 3.39 0 001.08-.53 6.65 6.65 0 00.43-.35 4.757 4.757 0 00.661-.709c.084-.116.16-.23.221-.34a.295.295 0 00.031-.123.144.144 0 00-.03-.094.189.189 0 00-.078-.065.39.39 0 00-.116-.03.31.31 0 00-.126.018.267.267 0 00-.101.062c-.534.625-1.037 1.076-1.509 1.35-.475.276-.916.377-1.33.302.215-.403.39-.786.52-1.155.132-.369.224-.72.276-1.056.133-1.003-.082-1.688-.642-2.055a1.516 1.516 0 00-.67-.239 1.502 1.502 0 00-.707.111 1.7 1.7 0 00-.611.398 1.709 1.709 0 00-.386.627h.036zm1.592 3.23a1.384 1.384 0 01-.36-.145 1.29 1.29 0 01-.3-.24 1.674 1.674 0 01-.23-.305 1.53 1.53 0 01-.157-.343 4.247 4.247 0 01-.158-.777 2.896 2.896 0 01-.014-.402c.002-.13.017-.256.043-.376.03-.208.092-.393.181-.557.09-.162.213-.304.364-.425.305-.24.63-.24.975 0 .395.268.539.77.435 1.505a5.3 5.3 0 01-.274.96c-.13.345-.3.714-.505 1.112v-.008zm-.369.57a4.347 4.347 0 01-.208.298 1.942 1.942 0 01-.122.147c-.047.053-.102.11-.161.17a1.67 1.67 0 01-.33.276.65.65 0 01-.347.099.368.368 0 01-.175-.044.45.45 0 01-.15-.125c-.202-.234-.318-.567-.354-.996a4.458 4.458 0 01.069-1.252 4.14 4.14 0 01.333-1.017c.017.284.059.55.125.8.066.249.158.483.276.697.237.432.588.736 1.058.912l-.014.036zm13.472-2.727c.087-.123.148-.248.186-.376a1.108 1.108 0 00-.045-.75.813.813 0 00-.203-.265.877.877 0 00-.373-.19.88.88 0 00-.45.007 1.18 1.18 0 00-.228.084 1.662 1.662 0 00-.224.133c-.144.106-.27.263-.373.468a2.112 2.112 0 00-.135.332 3.05 3.05 0 00-.087.389c-.03.229-.014.598.047 1.106.064.51.175 1.158.336 1.944a6.52 6.52 0 00-.426.319c-.141.113-.28.233-.42.359a6.453 6.453 0 00-.803.912c-.127.178-.23.347-.305.508a1.675 1.675 0 00-.144.468c-.016.123-.02.239-.016.35.007.11.026.215.059.313.03.1.07.188.118.266.05.077.109.144.177.2a1.3 1.3 0 00.224.15c.078.043.163.079.253.113.18.062.376.084.581.062a2.267 2.267 0 00.61-.15c.1-.038.198-.086.292-.146a2.21 2.21 0 00.527-.477c.075-.095.146-.198.212-.307.352-.63.402-1.618.147-2.966 1.209-.729 1.983-1.38 2.324-1.951.047-.12.047-.213 0-.275a.272.272 0 00-.093-.08.415.415 0 00-.257-.04.19.19 0 00-.094.047 3.441 3.441 0 01-.366.473 4.54 4.54 0 01-.456.42 12.518 12.518 0 01-1.21.81 21.25 21.25 0 01-.23-1.143 9.696 9.696 0 01-.11-.863 2.036 2.036 0 010-.297c.003-.053.01-.109.015-.164a5.73 5.73 0 01.026-.183.743.743 0 01.125-.316c.064-.087.14-.128.229-.128a.12.12 0 01.059.014.09.09 0 01.03.041.264.264 0 010 .15l-.02.094a1.21 1.21 0 01-.027.096 2.06 2.06 0 01-.063.17l-.022.057a.151.151 0 00-.007.027.439.439 0 00.005.096.589.589 0 00.03.097.44.44 0 00.111.154c.05.043.112.05.187.022a.34.34 0 00.114-.075.67.67 0 00.115-.145l.048.036zm-1.481 3.475c.002.015.01.053.014.114.007.06.017.145.026.256.012.108.019.197.026.27.007.07.01.12.01.151v.348a2.1 2.1 0 01-.04.424 2.794 2.794 0 01-.112.359 1.8 1.8 0 01-.125.283c-.2.347-.458.523-.77.53a.627.627 0 01-.326-.07.593.593 0 01-.233-.234.75.75 0 01-.083-.477c.024-.174.1-.364.229-.567a3.68 3.68 0 01.567-.694 6.12 6.12 0 01.831-.685l-.014-.008zm12.06-2.884a.267.267 0 00.011-.147.26.26 0 00-.073-.12.489.489 0 00-.255-.138 1.168 1.168 0 00-.388-.017c-.297.03-.479.12-.54.275-.237.615-.442 1.384-.624 2.31-.18.926-.2 1.614-.061 2.057a.303.303 0 00.087.136.4.4 0 00.156.084.606.606 0 00.392 0 .515.515 0 00.18-.094.536.536 0 00.118-.16 5.05 5.05 0 00.172-.318 29.5 29.5 0 00.25-.508c.097-.203.187-.377.265-.526.08-.15.15-.273.212-.372.052-.098.123-.229.213-.388a185 185 0 01.328-.574c.425-.75.784-1.353 1.08-1.808.292-.456.521-.767.684-.931.104-.111.163-.133.177-.07.014.065-.014.214-.087.45l-.165.55c-.104.345-.18.608-.23.784l-.09.338c-.035.137-.075.299-.124.482-.047.184-.088.352-.12.504a6.19 6.19 0 00-.074.408c-.033.241-.068.509-.104.805-.016.15-.026.287-.026.415 0 .126.005.244.019.35.014.103.033.2.059.29.024.086.057.163.094.23.034.068.08.119.14.153a.4.4 0 00.213.053.497.497 0 00.214-.044.347.347 0 00.144-.132c.012-.015.04-.07.09-.164l.208-.41.416-.825c.625-1.228 1.114-2.074 1.466-2.54.352-.465.567-.552.642-.26.022.075.031.174.029.297a3.987 3.987 0 01-.04.446c-.024.173-.05.35-.078.528-.029.18-.057.362-.088.547a9.656 9.656 0 00-.125 1.102c-.021.367.028.685.147.956a.84.84 0 00.6.506.873.873 0 00.432.007 1.31 1.31 0 00.439-.212 4.11 4.11 0 00.54-.478c.197-.2.412-.446.643-.738a22.534 22.534 0 001.176-1.603c.16-.244.298-.458.411-.642.113-.183.203-.337.267-.46a.585.585 0 00.042-.102.316.316 0 00.014-.089.207.207 0 00-.056-.135.284.284 0 00-.151-.063.402.402 0 00-.227.032.558.558 0 00-.203.166 18.91 18.91 0 00-.387.55l-.322.473-.342.496c-.118.17-.238.34-.361.51l-.378.515c-.13.174-.253.333-.369.475a7.657 7.657 0 01-.33.386c-.104.114-.194.2-.265.26-.07.059-.127.092-.165.095-.054.002-.1-.012-.13-.046a.288.288 0 01-.064-.16 1.229 1.229 0 01-.004-.25c.007-.097.02-.205.047-.328a9.52 9.52 0 01.075-.383c.029-.13.062-.266.095-.403a15.265 15.265 0 00.194-.912c.06-.332.096-.622.103-.868.015-.502-.103-.863-.352-1.08a.888.888 0 00-.41-.212 1.066 1.066 0 00-.49.021c-.077.02-.157.049-.238.085a1.801 1.801 0 00-.472.313 2.528 2.528 0 00-.222.23 7.502 7.502 0 00-.203.243 4.85 4.85 0 00-.55.796 10.922 10.922 0 00-.29.516c-.03.053-.065.12-.107.2-.043.082-.092.178-.151.287a29.8 29.8 0 00.42-1.553c.113-.473.198-.902.257-1.288.06-.383.034-.68-.082-.887-.114-.208-.312-.326-.595-.355a.682.682 0 00-.184.005 1.179 1.179 0 00-.204.058 1.22 1.22 0 00-.207.115c-.071.049-.142.11-.213.174-.073.068-.144.138-.215.207l-.208.21c-.068.07-.141.152-.215.244a6.86 6.86 0 00-.229.309c-.158.224-.297.422-.413.59a5.57 5.57 0 00-.189.292 319.292 319.292 0 00-.538.953l-.135.243-.17.324c-.061.118-.11.214-.149.284-.038.073-.061.118-.073.138-.019.043-.068.142-.144.299a21.185 21.185 0 01.47-1.614l.262-.75zM79.2 77.351a.7.7 0 00.067-.014c.028-.008.06-.013.099-.02.141-.036.274-.072.401-.106a18.5 18.5 0 00.352-.099 6.578 6.578 0 00.713-.256c.13-.052.25-.115.364-.185.116-.068.222-.147.323-.232a2.097 2.097 0 00.478-.586c.09-.176.143-.344.16-.504a.962.962 0 00-.05-.45 1.186 1.186 0 00-.233-.391c-.1-.109-.22-.196-.362-.258a1.671 1.671 0 00-.907-.128 2.088 2.088 0 00-.86.311 3.596 3.596 0 00-.677.555 4.55 4.55 0 00-.58.752 4.57 4.57 0 00-.665 1.739 6.359 6.359 0 00-.03.371 4.727 4.727 0 00-.005.372 2.237 2.237 0 00.14.706c.082.224.186.422.309.593.064.085.137.162.224.232.085.07.182.13.288.186.109.05.222.091.343.115.12.027.25.039.385.039.24 0 .49-.043.746-.128.13-.04.253-.091.375-.147.12-.055.239-.118.352-.183a4.46 4.46 0 00.35-.23 6.61 6.61 0 00.364-.286c.25-.213.47-.418.663-.615a16.913 16.913 0 001.17-1.336l.228-.292.25-.33a.474.474 0 00.071-.172.285.285 0 00-.01-.154c-.035-.099-.11-.154-.228-.169a.277.277 0 00-.16.027.318.318 0 00-.124.123 10.1 10.1 0 01-.975 1.27 9.803 9.803 0 01-1.412 1.315 4.043 4.043 0 01-.72.456c-.218.1-.411.151-.581.151a.677.677 0 01-.284-.057.618.618 0 01-.229-.176 1.052 1.052 0 01-.16-.256 1.197 1.197 0 01-.088-.301 2.65 2.65 0 01-.033-.328 3.115 3.115 0 01.005-.33c.014-.22.05-.41.104-.572l.05-.022zm.166-.641c.18-.5.387-.9.623-1.2.236-.3.5-.5.796-.604a.757.757 0 01.222-.053.468.468 0 01.435.232.374.374 0 01.052.153.55.55 0 01-.017.191.81.81 0 01-.087.212 1.709 1.709 0 01-.416.434c-.097.07-.203.135-.321.195s-.227.112-.328.155a2.617 2.617 0 01-.282.099c-.084.026-.186.053-.3.084-.115.032-.243.065-.384.102h.007zM47.59 78.206c-.492-.11-1.095-.176-1.81-.2v-1.127h2.184a18.979 18.979 0 00.146.862 13.529 13.529 0 00-.34.292l.1.116v.001l-.101-.118-.062.06a6.765 6.765 0 00-.117.114zm40.233-10.58c-.215-1.629-.583-2.882-1.104-3.758-.522-.877-1.104-1.527-1.748-1.95-.644-.422-1.311-.673-2.001-.751a16.386 16.386 0 00-1.817-.118h-4.278v15.56a5.454 5.454 0 00-.125.599h-.004a6.78 6.78 0 00-.027.267l-.013.214v.002h-.002a9.195 9.195 0 00-.002.456l.064-.001.002.004-.07.001c0 .044.003.086.008.128.004.06.008.113.013.16h-.002a3.042 3.042 0 00.047.286l.001.001h-.004a.966.966 0 00.029.112 3.412 3.412 0 00.085.305v5.627c0 .657.046 1.252.138 1.785.092.532.3 1.002.621 1.409.322.407.79.72 1.403.94.613.218 1.426.36 2.438.422v1.221H66.941v-1.221c.981-.063 1.778-.196 2.392-.4.613-.203 1.08-.5 1.403-.892a3.12 3.12 0 00.644-1.409 9.714 9.714 0 00.16-1.855v-7.23l.083-.133a6.33 6.33 0 00.307-.53l.004-.006h.002c.02-.037.036-.075.052-.114l.01-.026.003.002a1.24 1.24 0 00.052-.152l.003-.01h.002v-.002h.002a1.21 1.21 0 00.04-.176l.004-.028a1.203 1.203 0 00.007-.42 1.411 1.411 0 00-.097-.349l-.014.006.014-.007a1.19 1.19 0 00-.108-.2 1.163 1.163 0 00-.365-.38V61.047h-3.634c-.706 0-1.457.04-2.254.118a5.546 5.546 0 00-2.254.728c-.705.407-1.311 1.057-1.817 1.95-.506.892-.836 2.152-.989 3.78h-.966V59.45H88.79v8.173h-.966zm28.15 22.921v-1.221c.92-.063 1.656-.204 2.208-.423.552-.219.974-.524 1.265-.916.291-.391.483-.86.575-1.409.092-.548.138-1.15.138-1.808v-5.91l.033-.035c.151-.166.143-.152.179-.193l.174-.204.002.003c.029-.034.056-.07.08-.105l.052-.063.002.002.002-.002.002.001c.018-.021.034-.043.051-.066l.124-.154-.023-.019h.001l.025.022c.02-.025.038-.05.056-.075l.025-.033.003.002a1.29 1.29 0 00.054-.075l.11-.14.003.002c.02-.027.038-.053.055-.08l.089-.115.051-.068.001.001.009-.012.002.001a1.16 1.16 0 00.05-.07l.139-.19.003.002.001-.001.001.001a.713.713 0 00.036-.052l.006-.008h-.001.003c.053-.072.097-.148.132-.228a1.55 1.55 0 00.14-.429h.004c.013-.073.019-.147.018-.22a1.451 1.451 0 00-.1-.564l-.002-.006.004-.001a1.127 1.127 0 00-.066-.142 1.357 1.357 0 00-.403-.484 1.415 1.415 0 00-1.101-.258l-.001-.004-.008.002v-.001l-.017.003V62.881l-4.403 10.509a4.552 4.552 0 00-.279.234l-.009.008-.001-.002-.047.047c-.076.073-.151.156-.228.24-.028.031-.055.064-.082.096a4.896 4.896 0 00-.176.213l-.004-.003a1.453 1.453 0 00-.07.1 6.231 6.231 0 00-.717 1.227l-.004-.001a5.798 5.798 0 00-.262.744h-.002l-.013.053c-.06.224-.107.462-.14.711h-.001v.004h-.003l-.008.08a5.025 5.025 0 00-.035.682c.003.16.014.312.032.459l-5.139 12.265h-1.104l-3.82-8.809a1.1 1.1 0 00.1-.018c.28-.052.579-.186.897-.401.263-.178.581-.438.957-.782l.002.003.003-.003.001.001a26.334 26.334 0 001.954-2.001l.003.003a3.16 3.16 0 00.039-.046l.102-.12 2.108 4.893 10.027-23.815h9.66v1.222c-.92.031-1.656.164-2.208.399-.552.235-.966.54-1.242.916s-.46.837-.552 1.385a11.277 11.277 0 00-.138 1.856v14.72a2.647 2.647 0 00-.192.68h-.002a.99.99 0 00-.011.121 3.355 3.355 0 00-.013.447l.079-.003h.001l-.084.004a2.618 2.618 0 00.041.33h.001-.002a2.65 2.65 0 00.073.283l-.001.001.008.026.016.045c.021.058.047.123.08.196h-.002l.001.005h-.001l.008.02v2.665c0 .657.038 1.252.115 1.785.077.532.253.994.529 1.385.276.392.69.705 1.242.94s1.303.383 2.254.446v1.221h-13.524zM101.64 77.114l-2.66-6.133c.072-.025.146-.053.221-.082v-.005h.001l.002.004c.039-.015.076-.032.112-.05.205-.085.39-.173.554-.263h.004l.029-.016a4.82 4.82 0 00.572-.383l.005-.004.003.004c.03-.023.059-.048.086-.074a3.595 3.595 0 00.475-.461 1.1 1.1 0 00.073-.093c.064-.079.123-.157.176-.235l.002.002c.026-.038.049-.076.07-.115a4.23 4.23 0 00.135-.22l.005-.009.004.003c.019-.034.035-.068.051-.102a3.61 3.61 0 00.138-.293c.066-.154.117-.295.155-.422a4.384 4.384 0 00.157-.82l.004-.034h.003c.003-.032.005-.064.005-.096.003-.052.003-.103.001-.153v-.003h.004a1.23 1.23 0 00-.031-.221 1.389 1.389 0 00-.234-.545l.003-.003-.003-.003.002-.001a1.455 1.455 0 00-.283-.29l.002-.003a1.607 1.607 0 00-.306-.178l.001-.002-.003-.001.002-.003a1.12 1.12 0 00-.152-.055 1.31 1.31 0 00-.579-.053v-.001a1.549 1.549 0 00-.287.064 1.427 1.427 0 00-.34.162c-.108.07-.21.16-.302.267l-.002-.002-.001.001a1.61 1.61 0 00-.201.31l-.005-.003a1.876 1.876 0 00-.117.326h-.003a1.237 1.237 0 00-.038.268 1.352 1.352 0 01-.013.11c-.004.023-.016.07-.037.139a1.075 1.075 0 01-.173.349c-.02.028-.052.065-.092.111l-.001-.001a.792.792 0 01-.156.146l-.003-.003a1.34 1.34 0 01-.264.165 3.775 3.775 0 01-.356.148v.003l-.001-.005c-.03.01-.057.022-.085.034-.045.016-.09.03-.136.044l-2.65-6.111v4.372c-.034 0-.067.002-.1.004-.112.008-.231.03-.358.066l.022.08-.003.002-.023-.086a1.127 1.127 0 00-.163.06c-.07.028-.139.06-.204.095l.01.018h-.002l-.01-.02c-.017.01-.032.022-.048.031a2.41 2.41 0 00-.229.148l.012.017-.013-.018a1.158 1.158 0 00-.193.18 4.293 4.293 0 00-.225.255l-.037.046v-1.258c0-.877-.007-1.644-.022-2.301-.016-.658-.139-1.222-.368-1.691-.23-.47-.606-.838-1.127-1.104-.522-.266-1.304-.415-2.346-.446v-1.222h9.797l6.844 15.888-.04.04.01.01-.012-.011a1.15 1.15 0 00-.145.19l-.177.224c-.138.172-.258.317-.351.427l-.003-.002-.003.004h-.001a.626.626 0 00-.026.031l-.226.262-.001-.01a1.81 1.81 0 00-.031-.298c.105-.1.197-.213.278-.337.111-.173.189-.358.231-.552h.004a1.28 1.28 0 00.026-.183 1.775 1.775 0 00-.004-.406l-.04.005-.001-.003.044-.006a.993.993 0 00-.022-.122 1.739 1.739 0 00-.282-.668l.003-.002a1.291 1.291 0 00-.116-.142 1.783 1.783 0 00-.524-.401l.001-.003-.004-.001.002-.003a1.254 1.254 0 00-.111-.05 1.583 1.583 0 00-.949-.108v.001l-.001-.004a1.813 1.813 0 00-.894.48l.001.001-.001.002-.003-.003a1.12 1.12 0 00-.073.077 1.64 1.64 0 00-.145.169l.015.011-.001.002-.018-.014a1.94 1.94 0 00-.195.33h-.002a1.219 1.219 0 00-.054.138 1.92 1.92 0 00-.07.231c-.025.113-.04.23-.045.35h-.003c-.003.06-.002.12.005.178a1.932 1.932 0 00.029.261 1.182 1.182 0 00-.159.253l-.044.064.013.01-.018-.013c-.02.031-.039.062-.057.094a2.94 2.94 0 00-.209.386l-.004-.002c-.015.03-.028.062-.04.093a3.906 3.906 0 00-.17.395 8.795 8.795 0 00-.144.399zm-6.457-4.816v2.639a1.512 1.512 0 00-.568.357l.128.131-.13-.132a1.639 1.639 0 00-.18.231h-.001c-.015.02-.026.04-.085.135l-.002-.001-.001.001h-.001l-.016.025a.509.509 0 00-.03.05l-.12.172-.008.012-.2.293-.005-.003a1.129 1.129 0 00-.053.081l-.025.035-.046.066c.096-.344.204-.71.324-1.098a56.27 56.27 0 011.02-2.994zm0 7.22v4.218c0 .846.023 1.605.07 2.278.045.674.199 1.245.46 1.715.26.47.674.838 1.241 1.104.568.266 1.373.43 2.415.493v1.221h-9.613v-1.221c1.012-.063 1.786-.227 2.323-.493.536-.266.92-.642 1.15-1.128.23-.485.352-1.056.368-1.714.015-.658.023-1.41.023-2.255v-2.554a.94.94 0 00.066-.06 6.978 6.978 0 00.468-.416c.024-.023.048-.044.07-.069a7.579 7.579 0 00.46-.501l.003.002a.902.902 0 00.055-.071c.13-.155.272-.33.423-.525l.018-.024z" fill="#B38C0A"/></svg>