<svg width="150" height="150" fill="none" xmlns="http://www.w3.org/2000/svg"><g clip-path="url(#clip0_395_244)"><path d="M75.857 71.664c0 3.747-5.86 3.957-7.979 3.957-3.36 0-8.533-.552-8.533-4.509h2.615c0 2.13 4.296 2.264 5.842 2.264.801 0 5.497.038 5.497-1.636 0-1.35-2.386-1.541-5-1.826l-1.776-.19c-3.245-.343-7.006-.8-7.006-3.767 0-3.539 5.536-4.033 8.037-4.033 2.577 0 7.902.551 7.883 4.261h-2.806c0-1.845-3.99-2.017-5.536-2.017-.668 0-5.02.038-5.02 1.694 0 1.217 1.623 1.331 4.39 1.655l2.883.342c2.29.266 6.51.628 6.51 3.805z" fill="url(#paint0_radial_395_244)"/><path d="M82.176 70.028l1.87-3.729c.86-1.731 1.146-2.093 2.138-2.093.993 0 1.375.495 2.157 2.093l1.863 3.728h-8.028zm10.728 5.402h2.863l-5.269-10.12c-1.183-2.283-2.004-3.387-4.256-3.387-2.253 0-3.074 1.104-4.257 3.387l-5.269 10.12h2.75l1.64-3.272H91.27l1.635 3.272z" fill="url(#paint1_radial_395_244)"/><path d="M56.653 64.397v-2.283H42.337V75.43h14.316v-2.283H44.742V69.8h10.544v-2.13H44.742v-3.272h11.911z" fill="url(#paint2_radial_395_244)"/><path d="M75.865 83.075c-1.132-1.454-2.226-2.945-4.664-2.945-2.437 0-3.512 1.53-4.663 2.983-1.056 1.339-1.536 2.18-2.821 2.18-1.287 0-1.766-.86-2.822-2.218-1.152-1.434-2.226-2.945-4.664-2.945-2.437 0-3.512 1.53-4.663 2.983-1.056 1.339-1.535 2.18-2.821 2.18v2.296c2.341 0 3.588-1.626 4.663-3.08 1.113-1.491 1.574-2.084 2.821-2.084 1.248 0 1.709.593 2.822 2.085 1.075 1.453 2.322 3.079 4.664 3.079 2.34 0 3.588-1.626 4.663-3.08 1.113-1.491 1.574-2.084 2.821-2.084 1.248 0 1.708.593 2.822 2.085 1.074 1.453 2.322 3.079 4.663 3.079v-2.295c-1.286 0-1.766-.86-2.821-2.219z" fill="url(#paint3_radial_395_244)"/><path d="M44.12 83.152c-1.036-1.435-2.206-3.022-4.778-3.022-2.572 0-3.723 1.606-4.779 3.022-.825 1.128-1.593 2.142-2.898 2.142v2.295c2.533 0 3.685-1.626 4.76-3.06 1.094-1.454 1.631-2.104 2.917-2.104 1.267 0 1.804.65 2.879 2.104 1.094 1.434 2.245 3.06 4.798 3.06v-2.295c-1.305 0-2.073-1.014-2.898-2.142z" fill="url(#paint4_radial_395_244)"/><path d="M86.234 86.349c-.259 0-.477-.196-.477-.57 0-.376.218-.572.477-.572.26 0 .478.196.478.571 0 .375-.218.571-.478.571zm0-1.486c-.545 0-.92.364-.92.915s.375.915.92.915c.544 0 .921-.364.921-.915s-.377-.915-.92-.915z" fill="url(#paint5_radial_395_244)"/><path d="M88.023 86.31h-.174v-1.066h.174c.308 0 .587.066.587.532 0 .469-.279.534-.587.534zm-.007-1.417h-.585v1.769h.585c.58 0 1.037-.21 1.037-.886 0-.673-.457-.883-1.037-.883z" fill="url(#paint6_radial_395_244)"/><path d="M90.122 85.595l-.242-.049c-.123-.026-.206-.09-.206-.178 0-.11.12-.17.281-.17.18 0 .309.075.35.207h.414c-.061-.39-.392-.542-.739-.542-.348 0-.737.169-.737.53 0 .317.262.454.55.515l.217.043c.193.042.33.098.33.213 0 .146-.162.192-.304.192-.218 0-.364-.085-.41-.27h-.417c.063.38.362.607.818.607.369 0 .744-.21.744-.58 0-.371-.363-.46-.65-.518z" fill="url(#paint7_radial_395_244)"/><path d="M37.411 86.349c-.259 0-.477-.196-.477-.57 0-.376.218-.572.477-.572.26 0 .477.196.477.571 0 .375-.217.571-.477.571zm0-1.486c-.546 0-.92.364-.92.915s.374.915.92.915c.544 0 .92-.364.92-.915s-.376-.915-.92-.915z" fill="url(#paint8_radial_395_244)"/><path d="M39.2 86.31h-.173v-1.066h.174c.309 0 .587.066.587.532 0 .469-.278.534-.587.534zm-.006-1.417h-.585v1.769h.585c.58 0 1.037-.21 1.037-.886 0-.673-.457-.883-1.037-.883z" fill="url(#paint9_radial_395_244)"/><path d="M41.297 85.595l-.242-.049c-.122-.026-.205-.09-.205-.178 0-.11.12-.17.281-.17.179 0 .308.075.35.207h.414c-.062-.39-.392-.542-.74-.542-.347 0-.736.169-.736.53 0 .317.262.454.55.515l.216.043c.193.042.33.098.33.213 0 .146-.161.192-.303.192-.218 0-.365-.085-.411-.27h-.417c.064.38.362.607.818.607.37 0 .744-.21.744-.58 0-.371-.362-.46-.649-.518z" fill="url(#paint10_radial_395_244)"/><path d="M27.117 83.075c-1.133-1.454-2.226-2.945-4.664-2.945-2.437 0-3.512 1.53-4.663 2.983-1.056 1.339-1.536 2.18-2.822 2.18s-1.765-.86-2.821-2.218c-1.152-1.434-2.226-2.945-4.664-2.945-2.437 0-3.512 1.53-4.663 2.983-1.056 1.339-1.536 2.18-2.821 2.18v2.296c2.341 0 3.588-1.626 4.663-3.08 1.113-1.491 1.574-2.084 2.821-2.084 1.248 0 1.709.593 2.822 2.085 1.074 1.453 2.322 3.079 4.663 3.079 2.342 0 3.59-1.626 4.664-3.08 1.113-1.491 1.574-2.084 2.821-2.084 1.248 0 1.708.593 2.822 2.085 1.074 1.453 2.322 3.079 4.663 3.079v-2.295c-1.286 0-1.766-.86-2.821-2.219z" fill="url(#paint11_radial_395_244)"/><path d="M92.869 83.152c-1.037-1.435-2.207-3.022-4.78-3.022-2.571 0-3.722 1.606-4.778 3.022-.825 1.128-1.593 2.142-2.898 2.142v2.295c2.533 0 3.685-1.626 4.76-3.06 1.094-1.454 1.631-2.104 2.917-2.104 1.267 0 1.804.65 2.879 2.104 1.094 1.434 2.245 3.06 4.798 3.06v-2.295c-1.305 0-2.073-1.014-2.898-2.142z" fill="url(#paint12_radial_395_244)"/><path d="M30.16 73.147h-5.078v-8.75h5.078c4.562 0 6.93 1.502 6.93 4.375s-2.368 4.375-6.93 4.375zm.19-11.033h-7.673V75.43h7.674c5.936 0 9.296-2.435 9.296-6.658 0-4.223-3.36-6.658-9.296-6.658z" fill="url(#paint13_radial_395_244)"/><path d="M9.944 75.62c6.318 0 9.945-2.492 9.945-6.848s-3.627-6.848-9.945-6.848c-6.319 0-9.945 2.492-9.945 6.848s3.626 6.849 9.945 6.849zm0-2.244c-5.02 0-7.388-1.598-7.388-4.604 0-3.006 2.367-4.604 7.388-4.604 5.02 0 7.387 1.598 7.387 4.604 0 3.006-2.367 4.604-7.387 4.604z" fill="url(#paint14_radial_395_244)"/><path d="M100.428 66.949h.712v-4.907h-.712v4.907z" fill="url(#paint15_radial_395_244)"/><path d="M106.371 64.308c-.216-.508-.844-.848-1.688-.848-.784 0-1.185.216-1.52.594v-.497h-.663v3.392h.663v-1.613c0-.903.502-1.313 1.401-1.313.844 0 1.263.361 1.263 1.133v1.793h.655v-1.835c0-.278 0-.542-.111-.806z" fill="url(#paint16_radial_395_244)"/><path d="M108.63 64.1h1.109v-.542h-1.088v-.966h-.656v.966h-.593v.542h.579v1.814c0 .716.293 1.084.942 1.084.272 0 .537-.02.802-.049v-.583a3.82 3.82 0 01-.621.048c-.411 0-.474-.16-.474-.59V64.1z" fill="url(#paint17_radial_395_244)"/><path d="M111.162 65.33h3.493v-.097c0-.626-.571-1.787-2.106-1.787-.864 0-2.071.438-2.071 1.8 0 1.175.983 1.808 2.085 1.808.691 0 1.618-.216 2.023-1.092l-.635-.173c-.223.507-.774.736-1.297.736-.976 0-1.465-.618-1.492-1.195zm2.747-.493h-2.726c.222-.605.794-.897 1.408-.897.76 0 1.144.403 1.318.897z" fill="url(#paint18_radial_395_244)"/><path d="M117.579 63.502c-.602 0-.995.264-1.248.56v-.505h-.663v3.392h.663v-1.89c0-.911.892-.974 1.15-.974.265 0 .426.021.551.05v-.578c-.098-.02-.223-.055-.453-.055z" fill="url(#paint19_radial_395_244)"/><path d="M122.668 64.308c-.216-.508-.844-.848-1.688-.848-.784 0-1.185.216-1.52.594v-.497h-.663v3.392h.663v-1.613c0-.903.502-1.313 1.402-1.313.844 0 1.262.361 1.262 1.133v1.793h.655v-1.835c0-.278 0-.542-.111-.806z" fill="url(#paint20_radial_395_244)"/><path d="M128.193 66.949v-.507s-.161.034-.272.034c-.3 0-.356-.125-.356-.486v-1.258c0-1.008-.879-1.279-1.785-1.279-.914 0-1.646.167-1.842.862l.67.063c.139-.327.655-.41 1.137-.41 1.158 0 1.199.41 1.199.688v.18h-.969c-.802 0-1.332.014-1.66.16a.964.964 0 00-.6.91c0 .473.3 1.168 1.597 1.168 1.019 0 1.514-.417 1.639-.667.028.25.077.577.656.577.258 0 .446-.014.586-.035zm-2.49-1.605h1.248c0 .854-.69 1.223-1.59 1.223-.676 0-.983-.334-.983-.667 0-.556.655-.556 1.325-.556z" fill="url(#paint21_radial_395_244)"/><path d="M129.866 64.1h1.109v-.542h-1.088v-.966h-.656v.966h-.593v.542h.579v1.814c0 .716.293 1.084.942 1.084.272 0 .537-.02.802-.049v-.583a3.82 3.82 0 01-.621.048c-.412 0-.474-.16-.474-.59V64.1z" fill="url(#paint22_radial_395_244)"/><path d="M132 62.987h.711v-.68H132v.68zm.027 3.962h.663v-3.392h-.663v3.392z" fill="url(#paint23_radial_395_244)"/><path d="M138.145 65.268c0-1.321-1.158-1.794-2.232-1.794-.914 0-2.211.46-2.211 1.849 0 1.077.942 1.73 2.232 1.73 1.409 0 2.211-.805 2.211-1.785zm-.663-.014c0 .903-.851 1.25-1.513 1.25-.963 0-1.597-.514-1.597-1.223 0-.834.767-1.265 1.527-1.265.683 0 1.583.306 1.583 1.238z" fill="url(#paint24_radial_395_244)"/><path d="M143.027 64.308c-.216-.508-.844-.848-1.687-.848-.785 0-1.186.216-1.521.594v-.497h-.662v3.392h.662v-1.613c0-.903.502-1.313 1.402-1.313.844 0 1.262.361 1.262 1.133v1.793h.656v-1.835c0-.278 0-.542-.112-.806z" fill="url(#paint25_radial_395_244)"/><path d="M148.55 66.949v-.507s-.16.034-.272.034c-.299 0-.355-.125-.355-.486v-1.258c0-1.008-.879-1.279-1.785-1.279-.914 0-1.646.167-1.842.862l.67.063c.139-.327.655-.41 1.137-.41 1.157 0 1.199.41 1.199.688v.18h-.969c-.802 0-1.332.014-1.66.16a.964.964 0 00-.6.91c0 .473.3 1.168 1.597 1.168 1.019 0 1.514-.417 1.639-.667.028.25.077.577.656.577.258 0 .446-.014.585-.035zm-2.489-1.605h1.248c0 .854-.69 1.223-1.59 1.223-.676 0-.983-.334-.983-.667 0-.556.655-.556 1.325-.556z" fill="url(#paint26_radial_395_244)"/><path d="M149.344 66.949H150v-4.907h-.656v4.907z" fill="url(#paint27_radial_395_244)"/><path d="M104.91 75.42h.809l-2.525-4.907h-.746l-2.552 4.906h.788l.599-1.209h3.027l.6 1.21zm-2.106-4.206l1.206 2.433h-2.434l1.228-2.433z" fill="url(#paint28_radial_395_244)"/><path d="M106.382 71.458h.711v-.681h-.711v.68zm.028 3.961h.662v-3.391h-.662v3.391z" fill="url(#paint29_radial_395_244)"/><path d="M110.237 71.972c-.601 0-.994.264-1.248.56v-.504h-.662v3.391h.662v-1.89c0-.91.893-.973 1.151-.973.265 0 .425.02.551.049v-.577c-.098-.021-.224-.056-.454-.056z" fill="url(#paint30_radial_395_244)"/><path d="M113.55 74.954c-.649 0-1.465-.306-1.465-1.21 0-.715.467-1.278 1.437-1.278.907 0 1.43.542 1.43 1.21 0 .75-.552 1.278-1.402 1.278zm.042-3.01c-.593 0-1.153.205-1.472.609v-.525h-.662v4.747h.662V74.9c.187.212.608.581 1.604.581 1.318 0 1.946-.882 1.946-1.786 0-.945-.753-1.751-2.078-1.751z" fill="url(#paint31_radial_395_244)"/><path d="M120.881 73.738c0-1.32-1.158-1.793-2.232-1.793-.914 0-2.211.458-2.211 1.848 0 1.078.941 1.73 2.232 1.73 1.408 0 2.211-.805 2.211-1.785zm-.663-.014c0 .903-.851 1.25-1.513 1.25-.963 0-1.598-.514-1.598-1.222 0-.834.768-1.265 1.528-1.265.683 0 1.583.306 1.583 1.237z" fill="url(#paint32_radial_395_244)"/><path d="M123.802 71.972c-.602 0-.995.264-1.249.56v-.504h-.662v3.391h.662v-1.89c0-.91.893-.973 1.151-.973.265 0 .425.02.551.049v-.577c-.098-.021-.223-.056-.453-.056z" fill="url(#paint33_radial_395_244)"/><path d="M125.949 72.57h1.11v-.542h-1.088v-.966h-.656v.966h-.593v.542h.579v1.814c0 .716.293 1.084.942 1.084.272 0 .536-.02.802-.048v-.584a3.806 3.806 0 01-.621.049c-.412 0-.475-.16-.475-.591V72.57z" fill="url(#paint34_radial_395_244)"/></g><defs><radialGradient id="paint0_radial_395_244" cx="0" cy="0" r="1" gradientUnits="userSpaceOnUse" gradientTransform="rotate(-140.041 51.391 24.124) scale(20.5324 19.4215)"><stop stop-color="#0654F2"/><stop offset="1" stop-color="#103C96"/></radialGradient><radialGradient id="paint1_radial_395_244" cx="0" cy="0" r="1" gradientUnits="userSpaceOnUse" gradientTransform="rotate(-144.392 59.668 22.443) scale(22.3337 20.3139)"><stop stop-color="#0654F2"/><stop offset="1" stop-color="#103C96"/></radialGradient><radialGradient id="paint2_radial_395_244" cx="0" cy="0" r="1" gradientUnits="userSpaceOnUse" gradientTransform="rotate(-136.785 43.019 26.593) scale(18.7233 17.9531)"><stop stop-color="#0654F2"/><stop offset="1" stop-color="#103C96"/></radialGradient><radialGradient id="paint3_radial_395_244" cx="0" cy="0" r="1" gradientUnits="userSpaceOnUse" gradientTransform="matrix(-28.5362 -7.18157 3.26585 -12.97696 77.657 87.589)"><stop stop-color="#0654F2"/><stop offset="1" stop-color="#103C96"/></radialGradient><radialGradient id="paint4_radial_395_244" cx="0" cy="0" r="1" gradientUnits="userSpaceOnUse" gradientTransform="matrix(-14.63404 -7.1815 5.4574 -11.12078 46.491 87.589)"><stop stop-color="#0654F2"/><stop offset="1" stop-color="#103C96"/></radialGradient><radialGradient id="paint5_radial_395_244" cx="0" cy="0" r="1" gradientUnits="userSpaceOnUse" gradientTransform="rotate(-134.884 61.552 25.258) scale(2.48597 2.38833)"><stop stop-color="#0654F2"/><stop offset="1" stop-color="#103C96"/></radialGradient><radialGradient id="paint6_radial_395_244" cx="0" cy="0" r="1" gradientUnits="userSpaceOnUse" gradientTransform="matrix(-1.54651 -1.70252 1.62814 -1.47895 88.998 86.662)"><stop stop-color="#0654F2"/><stop offset="1" stop-color="#103C96"/></radialGradient><radialGradient id="paint7_radial_395_244" cx="0" cy="0" r="1" gradientUnits="userSpaceOnUse" gradientTransform="rotate(-130.199 65.48 22.291) scale(2.30607 2.18447)"><stop stop-color="#0654F2"/><stop offset="1" stop-color="#103C96"/></radialGradient><radialGradient id="paint8_radial_395_244" cx="0" cy="0" r="1" gradientUnits="userSpaceOnUse" gradientTransform="rotate(-134.883 37.14 35.398) scale(2.48595 2.38831)"><stop stop-color="#0654F2"/><stop offset="1" stop-color="#103C96"/></radialGradient><radialGradient id="paint9_radial_395_244" cx="0" cy="0" r="1" gradientUnits="userSpaceOnUse" gradientTransform="rotate(-132.248 39.268 34.44) scale(2.29993 2.19942)"><stop stop-color="#0654F2"/><stop offset="1" stop-color="#103C96"/></radialGradient><radialGradient id="paint10_radial_395_244" cx="0" cy="0" r="1" gradientUnits="userSpaceOnUse" gradientTransform="rotate(-130.202 41.066 33.624) scale(2.30619 2.18462)"><stop stop-color="#0654F2"/><stop offset="1" stop-color="#103C96"/></radialGradient><radialGradient id="paint11_radial_395_244" cx="0" cy="0" r="1" gradientUnits="userSpaceOnUse" gradientTransform="matrix(-28.5362 -7.18157 3.26585 -12.97696 28.909 87.589)"><stop stop-color="#0654F2"/><stop offset="1" stop-color="#103C96"/></radialGradient><radialGradient id="paint12_radial_395_244" cx="0" cy="0" r="1" gradientUnits="userSpaceOnUse" gradientTransform="matrix(-14.63404 -7.1815 5.4574 -11.12078 95.239 87.589)"><stop stop-color="#0654F2"/><stop offset="1" stop-color="#103C96"/></radialGradient><radialGradient id="paint13_radial_395_244" cx="0" cy="0" r="1" gradientUnits="userSpaceOnUse" gradientTransform="matrix(-16.17428 -12.8205 11.99179 -15.12878 39.064 75.43)"><stop stop-color="#0654F2"/><stop offset="1" stop-color="#103C96"/></radialGradient><radialGradient id="paint14_radial_395_244" cx="0" cy="0" r="1" gradientUnits="userSpaceOnUse" gradientTransform="matrix(-18.9579 -13.18688 11.8778 -17.07592 19.205 75.62)"><stop stop-color="#0654F2"/><stop offset="1" stop-color="#103C96"/></radialGradient><radialGradient id="paint15_radial_395_244" cx="0" cy="0" r="1" gradientUnits="userSpaceOnUse" gradientTransform="matrix(-.67807 -4.724 1.27659 -.18324 101.115 66.949)"><stop stop-color="#0654F2"/><stop offset="1" stop-color="#103C96"/></radialGradient><radialGradient id="paint16_radial_395_244" cx="0" cy="0" r="1" gradientUnits="userSpaceOnUse" gradientTransform="rotate(-138.491 65.858 13.324) scale(5.0684 4.83325)"><stop stop-color="#0654F2"/><stop offset="1" stop-color="#103C96"/></radialGradient><radialGradient id="paint17_radial_395_244" cx="0" cy="0" r="1" gradientUnits="userSpaceOnUse" gradientTransform="matrix(-2.2269 -4.24234 3.35454 -1.76088 109.658 66.998)"><stop stop-color="#0654F2"/><stop offset="1" stop-color="#103C96"/></radialGradient><radialGradient id="paint18_radial_395_244" cx="0" cy="0" r="1" gradientUnits="userSpaceOnUse" gradientTransform="rotate(-138.903 69.824 12.064) scale(5.28335 5.02885)"><stop stop-color="#0654F2"/><stop offset="1" stop-color="#103C96"/></radialGradient><radialGradient id="paint19_radial_395_244" cx="0" cy="0" r="1" gradientUnits="userSpaceOnUse" gradientTransform="rotate(-124.175 76.709 2.232) scale(4.0114 3.58198)"><stop stop-color="#0654F2"/><stop offset="1" stop-color="#103C96"/></radialGradient><radialGradient id="paint20_radial_395_244" cx="0" cy="0" r="1" gradientUnits="userSpaceOnUse" gradientTransform="rotate(-138.491 74.007 10.236) scale(5.06839 4.83324)"><stop stop-color="#0654F2"/><stop offset="1" stop-color="#103C96"/></radialGradient><radialGradient id="paint21_radial_395_244" cx="0" cy="0" r="1" gradientUnits="userSpaceOnUse" gradientTransform="matrix(-4.2673 -3.48629 3.28208 -4.01735 128.039 67.074)"><stop stop-color="#0654F2"/><stop offset="1" stop-color="#103C96"/></radialGradient><radialGradient id="paint22_radial_395_244" cx="0" cy="0" r="1" gradientUnits="userSpaceOnUse" gradientTransform="matrix(-2.2269 -4.24234 3.35454 -1.76088 130.894 66.998)"><stop stop-color="#0654F2"/><stop offset="1" stop-color="#103C96"/></radialGradient><radialGradient id="paint23_radial_395_244" cx="0" cy="0" r="1" gradientUnits="userSpaceOnUse" gradientTransform="matrix(-.6779 -4.4697 1.27325 -.1931 132.686 66.949)"><stop stop-color="#0654F2"/><stop offset="1" stop-color="#103C96"/></radialGradient><radialGradient id="paint24_radial_395_244" cx="0" cy="0" r="1" gradientUnits="userSpaceOnUse" gradientTransform="rotate(-140.86 80.915 9) scale(5.45934 5.13559)"><stop stop-color="#0654F2"/><stop offset="1" stop-color="#103C96"/></radialGradient><radialGradient id="paint25_radial_395_244" cx="0" cy="0" r="1" gradientUnits="userSpaceOnUse" gradientTransform="rotate(-138.491 84.186 6.379) scale(5.0684 4.83325)"><stop stop-color="#0654F2"/><stop offset="1" stop-color="#103C96"/></radialGradient><radialGradient id="paint26_radial_395_244" cx="0" cy="0" r="1" gradientUnits="userSpaceOnUse" gradientTransform="rotate(-140.752 86.156 7.081) scale(5.51037 5.18761)"><stop stop-color="#0654F2"/><stop offset="1" stop-color="#103C96"/></radialGradient><radialGradient id="paint27_radial_395_244" cx="0" cy="0" r="1" gradientUnits="userSpaceOnUse" gradientTransform="matrix(-.62467 -4.724 1.17965 -.15599 149.977 66.949)"><stop stop-color="#0654F2"/><stop offset="1" stop-color="#103C96"/></radialGradient><radialGradient id="paint28_radial_395_244" cx="0" cy="0" r="1" gradientUnits="userSpaceOnUse" gradientTransform="matrix(-5.5503 -4.724 4.48016 -5.2638 105.519 75.42)"><stop stop-color="#0654F2"/><stop offset="1" stop-color="#103C96"/></radialGradient><radialGradient id="paint29_radial_395_244" cx="0" cy="0" r="1" gradientUnits="userSpaceOnUse" gradientTransform="rotate(-98.624 85.956 -8.318) scale(4.52088 1.28779)"><stop stop-color="#0654F2"/><stop offset="1" stop-color="#103C96"/></radialGradient><radialGradient id="paint30_radial_395_244" cx="0" cy="0" r="1" gradientUnits="userSpaceOnUse" gradientTransform="matrix(-2.2533 -3.31886 2.96356 -2.01207 110.61 75.42)"><stop stop-color="#0654F2"/><stop offset="1" stop-color="#103C96"/></radialGradient><radialGradient id="paint31_radial_395_244" cx="0" cy="0" r="1" gradientUnits="userSpaceOnUse" gradientTransform="rotate(-130.805 75.336 11.945) scale(6.14357 5.83914)"><stop stop-color="#0654F2"/><stop offset="1" stop-color="#103C96"/></radialGradient><radialGradient id="paint32_radial_395_244" cx="0" cy="0" r="1" gradientUnits="userSpaceOnUse" gradientTransform="rotate(-140.861 73.788 16.303) scale(5.45932 5.13554)"><stop stop-color="#0654F2"/><stop offset="1" stop-color="#103C96"/></radialGradient><radialGradient id="paint33_radial_395_244" cx="0" cy="0" r="1" gradientUnits="userSpaceOnUse" gradientTransform="matrix(-2.25347 -3.31888 2.96366 -2.01229 124.174 75.42)"><stop stop-color="#0654F2"/><stop offset="1" stop-color="#103C96"/></radialGradient><radialGradient id="paint34_radial_395_244" cx="0" cy="0" r="1" gradientUnits="userSpaceOnUse" gradientTransform="rotate(-117.696 86.298 -.643) scale(4.79118 3.78859)"><stop stop-color="#0654F2"/><stop offset="1" stop-color="#103C96"/></radialGradient><clipPath id="clip0_395_244"><rect width="150" height="150" rx="30" fill="#fff"/></clipPath></defs></svg>