<svg width="150" height="150" fill="none" xmlns="http://www.w3.org/2000/svg"><g clip-path="url(#clip0_395_318)"><g clip-path="url(#clip1_395_318)"><path d="M18.359 91.11c9.526 0 17.248-7.71 17.248-17.221 0-9.512-7.722-17.222-17.248-17.222S1.111 64.376 1.111 73.888c0 9.511 7.722 17.222 17.248 17.222z" fill="#282525"/><path d="M28.881 76.309a3.213 3.213 0 01-5.308-1.998 3.2 3.2 0 011.045-2.796 3.212 3.212 0 014.263-.015l.626-.721a4.16 4.16 0 10-4.455 6.93 4.155 4.155 0 004.455-.647l-.626-.753zm-8.636-3.679a2.78 2.78 0 00-2.769-2.765h-9.63v8.014H8.8v-2.516h2.801v-.954h-2.8v-3.622h4.815v7.092h.955v-2.516h2.945c.173 0 .345-.016.514-.048l1.108 2.564h1.011l-1.252-2.9a2.759 2.759 0 001.348-2.349zm-2.769 1.812h-2.945v-3.623h2.945a1.815 1.815 0 011.814 1.811 1.81 1.81 0 01-1.814 1.812z" fill="#fff"/><path d="M24.145 67.38l-.87-.395-2.265 4.985.87.394 2.265-4.985z" fill="#DB0A88"/><path d="M125.939 76.333a7.063 7.063 0 01-5.81-3.013 7.04 7.04 0 014.038-10.856 7.064 7.064 0 016.37 1.503l1.373-1.603a9.163 9.163 0 00-9.801-1.405 9.142 9.142 0 00-3.899 13.26 9.158 9.158 0 009.006 4.109 9.163 9.163 0 004.694-2.14l-1.373-1.602a7.02 7.02 0 01-4.598 1.747zm-14.897-1.811L100.609 60.44h-2.095v17.695h2.095V64.063l10.433 14.073h2.095V60.44h-2.095v14.08zm-67.899 3.614h2.103v-7.798h9.286v-2.091H45.27V62.54h10.89v-2.1H43.167l-.024 17.695zm37.433 0h12.986v-2.092H82.695v-5.706h9.286v-2.091h-9.286V62.54h10.891v-2.1H80.6l-.024 17.695zm66.992-17.695v7.806h-9.847V60.44h-2.095v17.695h2.095v-7.798h9.847v7.798h2.095V60.44h-2.095zm-72.474 6.083a6.087 6.087 0 00-1.786-4.3 6.104 6.104 0 00-4.305-1.783h-8.91v17.695h2.096v-5.53h6.838a5.911 5.911 0 001.14-.12l2.407 5.61h2.215l-2.753-6.411a6.063 6.063 0 003.082-5.161h-.024zm-6.091 4.007h-6.839v-7.958h6.839a4.02 4.02 0 013.138.983 4.006 4.006 0 01.996 4.638 4.008 4.008 0 01-2.46 2.181 4.019 4.019 0 01-1.674.156zm13.812 12.574a2.412 2.412 0 00-2.3 1.656 2.4 2.4 0 00-.108.996 2.354 2.354 0 002.352 2.573c1.477 0 2.408-1.042 2.408-2.66a2.329 2.329 0 00-1.396-2.373 2.337 2.337 0 00-.956-.192zm0 4.263c-.802 0-1.204-.801-1.204-1.603 0-.801.313-1.667 1.204-1.667s1.204.85 1.204 1.603c-.032 1.026-.506 1.675-1.236 1.675l.032-.008zm-5 .89h1.124v-5.065h-1.132l.008 5.065zm-26.317-1.146l-.088-.337a1.498 1.498 0 00-.53-.905 1.42 1.42 0 00.281-2.285 2.347 2.347 0 00-1.565-.416 7.603 7.603 0 00-1.356.112h-.105v4.977h1.108V86.31h.313c.401 0 .602.12.746.746.073.396.183.785.33 1.162v.072h1.187l-.096-.184a8.008 8.008 0 01-.225-.994zm-1.838-1.715h-.417v-1.282c.139-.011.278-.011.417 0 .37 0 .803.112.803.64 0 .53-.297.634-.803.634v.008zm25.298-.169c-.658-.256-.803-.4-.803-.673 0-.272.177-.449.666-.449.315-.003.626.069.907.209l.145.08.273-.962-.089-.048a2.617 2.617 0 00-1.211-.256c-1.084 0-1.838.617-1.838 1.514 0 .682.457 1.178 1.388 1.515.642.233.803.425.803.681 0 .257-.281.53-.747.53a2.41 2.41 0 01-1.131-.257l-.145-.088-.265.977.08.056a2.99 2.99 0 001.373.321c1.445 0 1.95-.85 1.95-1.603s-.441-1.218-1.388-1.555l.032.008zm-19.615-2.123a2.412 2.412 0 00-2.302 1.656 2.4 2.4 0 00-.106.996 2.352 2.352 0 001.398 2.373c.3.132.625.2.953.2 1.477 0 2.408-1.042 2.408-2.66a2.329 2.329 0 00-1.395-2.373 2.338 2.338 0 00-.956-.192zm0 4.263c-.803 0-1.204-.801-1.204-1.603 0-.801.313-1.667 1.203-1.667.891 0 1.204.85 1.204 1.603-.032 1.026-.505 1.675-1.236 1.675l.032-.008zm9.63-1.25h1.814v-.962h-1.813v-.985h1.918v-.978h-3.05v5.065h3.162v-.978h-2.03v-1.162zm-5.738 2.14h1.132v-2.052h1.717v-.97h-1.773v-1.065h1.91v-.978h-3.042l.056 5.065zm11.108-3.046c-.658-.256-.843-.4-.843-.673 0-.272.177-.449.666-.449.315-.003.626.069.907.209l.145.08.273-.962-.089-.048a2.62 2.62 0 00-1.292-.264c-1.083 0-1.838.617-1.838 1.514 0 .682.458 1.178 1.389 1.515.65.232.802.425.802.681 0 .257-.28.53-.746.53a2.41 2.41 0 01-1.1-.29l-.144-.088-.265.978.08.056a2.99 2.99 0 001.373.32c1.445 0 1.95-.849 1.95-1.602 0-.753-.417-1.162-1.332-1.499l.064-.008zm-25.635-2.06a7.559 7.559 0 00-1.364.105h-.113v4.985h1.132v-1.803c.099.008.198.008.297 0a2.25 2.25 0 001.605-.553 1.602 1.602 0 00.45-1.178 1.48 1.48 0 00-.522-1.162 2.282 2.282 0 00-1.549-.385l.064-.008zm-.048 2.405h-.297v-1.41h.377c.394 0 .851.12.851.68 0 .562-.361.682-.995.682l.064.048zm45.05-.537v1.338a20.934 20.934 0 00-.546-1.017l-1.284-2.124h-1.204v5.065h1.067v-3.334c.177.353.377.73.626 1.146l1.292 2.188h1.116v-5.065H89.71v1.803zm9.438-1.803h-1.132v5.065h3.114v-1.01h-2.046l.064-4.055zm-4.117 0h-1.309l-1.605 4.897-.048.168h1.172l.417-1.363h1.333l.409 1.275v.088h1.196l-1.605-4.977.04-.088zm-1.116 2.78l.321-1.025c0-.136.072-.289.113-.433l.12.441.329 1.018h-.883zm50.291-1.874c.305-.007.608.05.89.168l.137.064.249-.946-.089-.048a2.802 2.802 0 00-1.219-.224 2.547 2.547 0 00-2.545 1.616c-.13.335-.187.694-.168 1.052a2.41 2.41 0 001.578 2.41c.324.119.67.166 1.014.139.444.014.887-.062 1.3-.225h.089l-.185-.945-.153.064a2.57 2.57 0 01-.906.16 1.45 1.45 0 01-1.549-1.603 1.452 1.452 0 01.346-1.2 1.463 1.463 0 011.146-.499l.065.017zm-5.346 4.159h1.076v-5.065h-1.14l.064 5.065zm-5.168-4.08h1.372v4.08h1.132v-4.08h1.332v-.985h-3.893l.057.986zm15.056 1.034c-.666-.256-.842-.4-.842-.673 0-.272.176-.448.666-.448.314-.004.625.068.907.208l.136.08.281-.962-.096-.048a2.559 2.559 0 00-1.204-.256c-1.084 0-1.838.617-1.838 1.514 0 .682.457 1.178 1.388 1.515.642.233.803.425.803.681 0 .257-.281.53-.746.53a2.34 2.34 0 01-1.1-.29l-.145-.088-.264.978.072.056a3.02 3.02 0 001.38.32c1.437 0 1.951-.849 1.951-1.602 0-.753-.53-1.194-1.413-1.53l.064.015zm-39.383-1.114c.305-.006.609.052.891.169l.136.064.249-.946-.088-.048a2.81 2.81 0 00-1.22-.224 2.552 2.552 0 00-1.958.725 2.542 2.542 0 00-.755 1.943 2.4 2.4 0 001.579 2.411c.324.118.67.165 1.014.138.444.016.887-.06 1.3-.225h.096l-.193-.945-.152.064a2.55 2.55 0 01-.907.16 1.455 1.455 0 01-1.479-.977 1.446 1.446 0 01-.07-.626 1.467 1.467 0 011.493-1.699l.064.017zm4.671-.993a2.415 2.415 0 00-1.797.79 2.402 2.402 0 00-.611 1.862 2.354 2.354 0 002.344 2.573c1.477 0 2.408-1.042 2.408-2.66a2.334 2.334 0 00-2.408-2.589l.064.024zm0 4.263c-.802 0-1.212-.801-1.212-1.603 0-.801.321-1.666 1.212-1.666s1.196.849 1.196 1.602c-.088 1.002-.554 1.651-1.284 1.651l.088.016zm5.707-2.156c-.667-.256-.843-.4-.843-.673 0-.272.176-.448.666-.448.315-.004.625.068.907.208l.136.08.281-.962-.096-.048a2.556 2.556 0 00-1.204-.256c-1.083 0-1.838.617-1.838 1.514 0 .682.458 1.178 1.389 1.515.642.233.802.425.802.681 0 .257-.281.53-.746.53a2.34 2.34 0 01-1.1-.29l-.144-.088-.265.978.08.056a2.99 2.99 0 001.373.32c1.444 0 1.95-.849 1.95-1.602 0-.753-.53-1.194-1.437-1.53l.089.015zm10.835.906h1.813v-.962h-1.813v-.985h1.918v-.978h-3.05v5.065h3.162v-.978h-2.03v-1.162zm-3.026-2.925h-1.357l-.69 2.011c-.152.45-.273.874-.369 1.227a27.965 27.965 0 00-.329-1.219l-.634-1.931v-.088h-1.365l-.329 4.928v.137h1.084l.112-2.06c0-.344 0-.737.056-1.154.089.337.185.681.281 1.01l.675 2.14h.858l.731-2.164c.128-.345.249-.713.353-1.074 0 .353 0 .705.048 1.034l.104 2.268h1.116l-.289-4.945-.056-.12z" fill="#282525"/></g></g><defs><clipPath id="clip0_395_318"><rect width="150" height="150" rx="30" fill="#fff"/></clipPath><clipPath id="clip1_395_318"><path fill="#fff" transform="translate(1.111 56.666)" d="M0 0h148.889v34.444H0z"/></clipPath></defs></svg>