<svg width="150" height="150" fill="none" xmlns="http://www.w3.org/2000/svg"><path fill-rule="evenodd" clip-rule="evenodd" d="M66.972 16.19c-.31.496-1.252 1.402-2.487 2.389a39.521 39.521 0 00-2.217 1.978c-1.26 1.215-1.363 1.237-.564.123.364-.507.4-.61.228-.646-.244-.051-1.326 1.102-1.796 1.912-.173.299-.716 1.404-1.206 2.455-1.024 2.195-1.687 3.191-2.67 4.011-.382.319-1.026.89-1.43 1.27-.406.38-.88.727-1.055.77-.244.062-.32.156-.32.4-.001.18-.184.548-.427.853-.535.674-1.212 2.035-1.442 2.9-.097.366-.177 1.101-.178 1.635-.002 1.259.347 2.034 1.113 2.473.443.253.662.293 1.598.287 2.254-.013 4.09-.757 9.08-3.678.856-.502.903-.514 1.447-.39.309.07.883.245 1.275.39 1.875.695 3.723.611 6.387-.288 1.438-.486 1.746-.549 2.68-.549 1.393 0 1.203-.223-.339-.397-.947-.107-1.065-.143-.748-.226a.737.737 0 00.53-.465c.196-.476.088-.568-.305-.259-.287.226-.727.349-2.027.562-.428.07-.458.057-.422-.195.034-.23.214-.325 1.185-.615.63-.19 1.486-.376 1.902-.417.416-.04.784-.117.817-.17.112-.18-1.191-.47-2.117-.47-1.143 0-1.877.212-2.933.85-1.247.752-1.989.97-3.515 1.035l-1.326.057.542-.492c2.343-2.128 8.132-4.866 9.871-4.67.43.048.625.003.969-.224.629-.415 1.854-.699 2.593-.6.335.044.745.07.91.058.95-.07 3.231-.007 4.22.118 2.364.3 2.713.466 7.053 3.358 4.312 2.874 6.87 4.401 9.64 5.757 3.645 1.784 6.448 2.738 9.784 3.33 1.3.23 1.961.274 4.138.27 3.512-.006 6.44-.399 11.571-1.553a117.75 117.75 0 013.797-.79c.796-.144 1.63-.366 1.854-.494.98-.56 4.362-1.186 6.417-1.187 2.422-.001 4.363.516 6.253 1.666 1.435.873 1.894 1.069 2.078.885.166-.166.258-.093-1.071-.846-4.171-2.363-7.781-3.127-11.677-2.472-1.353.228-1.865.171-1.865-.206 0-.388.519-.805 1.277-1.025.558-.163.982-.19 2.092-.132.765.04 1.555.105 1.754.145l.361.074-.301-.248c-1.025-.841-3.505-1.045-5.424-.444-2.236.7-4.46 1.04-4.46.683 0-.051.651-.27 1.446-.487.796-.217 1.447-.442 1.447-.5 0-.15-.088-.14-1.286.15-.586.142-1.471.262-1.969.268-.822.008-1.005-.038-2.027-.512-1.057-.49-1.175-.519-1.989-.474-.79.043-1.049.135-2.974 1.052-2.902 1.382-5.052 2.326-5.192 2.279-.065-.022 1.213-.768 2.84-1.66 1.627-.89 2.941-1.672 2.92-1.735-.021-.063-.305-.183-.631-.266-.773-.196-1.264-.722-1.262-1.352.002-.247.042-.512.091-.588.176-.275 2.149-1.383 2.796-1.571.628-.183.749-.179 2.273.075.885.147 1.636.24 1.669.207.092-.091-.472-.43-1.131-.68-1.452-.553-4.76-.641-6.001-.161-.517.2-1.798.901-3.599 1.971l-.465.276.185-.357c.101-.197.517-.591.924-.877.407-.285.716-.543.687-.572-.078-.078-5.013 1.038-5.506 1.245-.338.142-.554.152-1.085.05a29.65 29.65 0 00-1.803-.256c-.628-.07-1.166-.152-1.197-.183-.162-.162.932-.654 1.456-.656.112 0 .233-.048.269-.106.108-.175-1.136-.244-2.1-.116-.507.067-2.174.534-3.797 1.063-4.186 1.364-5.252 1.614-6.87 1.61-1.99-.004-2.698-.322-6.283-2.822-1.456-1.016-1.731-1.259-1.898-1.677-.108-.27-.196-.536-.196-.594 0-.212.773-.207 1.788.01 1.413.305 4.043.404 6.096.231.922-.077 1.736-.18 1.808-.226.072-.047-.79-.194-1.916-.327-1.788-.21-2.053-.27-2.09-.465-.04-.209.028-.218 1.083-.14 1.222.091 3.087-.072 4.235-.37.835-.216 2.08-.747 1.982-.846-.038-.038-.866.158-1.84.435-1.222.347-1.81.465-1.895.378-.087-.086-.017-.148.223-.202 1.49-.33 2.335-.691 3.604-1.536.88-.586 4.446-4.189 4.295-4.34-.058-.058-.289-.088-.512-.067-.359.035-.483.155-1.094 1.064-1.2 1.784-2.754 2.968-4.966 3.782-1.072.395-.858.385-6.16.303-1.895-.029-2.194-.002-3.959.353-2.707.545-4.416.508-5.033-.11-.13-.13-.411-.267-.625-.304-.213-.037-1.5-.437-2.859-.889-3.59-1.192-4.012-1.267-7.111-1.26-2.352.004-2.735.035-4.14.334-2.442.519-4.694 1.325-7.157 2.562-1.209.606-2.224 1.075-2.258 1.042-.034-.034.051-.261.188-.505.301-.535 1.69-1.5 3.043-2.112 2.03-.918 3.538-2.241 4.65-4.077.152-.252.248-.487.213-.523-.036-.035-.546.345-1.135.845-1.184 1.009-1.975 1.436-2.373 1.285-.158-.06-.237-.18-.213-.32.04-.225.152-.355 2.095-2.411.966-1.022 1.386-1.63 1.595-2.305.125-.404-.117-.33-.398.12zm-15.64 3.315c.035.116.127.469.204.784.17.695.415.742.518.098.107-.665-.078-1.093-.472-1.093-.24 0-.298.048-.25.21zm1.648.203c-.193.233-.006 1.213.23 1.213.208 0 .41-.715.312-1.104-.08-.318-.327-.368-.542-.109zm-2.957.422c-.081.256.465 1.455.662 1.455.25 0 .015-1.407-.264-1.584-.24-.152-.317-.127-.398.13zm4.421.032c-.08.08-.145.405-.145.723 0 .757.267.775.549.038.167-.438.178-.576.055-.724-.182-.22-.27-.227-.459-.037zm-5.569 1.08c0 .32.552 1.066.79 1.066.222 0 .22-.14-.01-.693-.272-.648-.78-.892-.78-.373zm6.645.023c-.195.234-.323 1.284-.157 1.284.195 0 .78-1.059.7-1.267-.085-.224-.364-.233-.543-.017zm-7.488 1.214c0 .336.908 1.139 1.087.96.17-.17-.562-1.252-.846-1.252-.175 0-.241.08-.241.292zm8.212.112c-.228.273-.313.923-.121.92.223-.002.705-.709.625-.917-.081-.21-.33-.213-.505-.003zm45.666 1.158c-.479.254-1.164.939-.815.813.115-.041.685-.221 1.266-.4 1.212-.372 1.23-.382.992-.532-.286-.181-.988-.123-1.443.119zm-54.12.291c0 .234.946.833 1.176.745.155-.06.114-.152-.215-.491-.408-.422-.96-.567-.96-.254zm-2.83.311c-.087.275.483 1.212.737 1.212.198 0 .2-.044.034-.663-.186-.693-.626-1.007-.77-.549zm-1.505.218c.003.229.768 1.115.962 1.115.18 0 .146-.18-.146-.78-.2-.413-.333-.546-.542-.546-.185 0-.276.07-.274.21zm2.978.301c-.072.209.415 1.188.566 1.138.117-.039.108-1.006-.01-1.198-.091-.147-.5-.103-.556.06zm-4.394.175c-.091.239.862 1.12 1.213 1.12.19.001.163-.08-.18-.558-.46-.637-.91-.882-1.033-.562zm5.745.716c-.066.175-.092.347-.057.382.036.035.34-.065.676-.223.493-.23.57-.303.392-.373-.5-.197-.886-.115-1.01.214zm-6.984.347c0 .1.176.291.392.424.938.58 1.512.386.677-.229-.551-.405-1.07-.5-1.07-.195zm58.712.122c-.358.167-.619.334-.58.372.132.133 2.135-.097 2.135-.245 0-.498-.645-.55-1.555-.127zm-59.196 1.38c.07.131.222.29.338.351.339.181 1.11.295 1.11.164 0-.206-.905-.753-1.246-.753-.29 0-.314.028-.202.238zm-.119 1.513c0 .225.477.42 1.032.42.531 0 .527-.144-.011-.4-.54-.258-1.02-.267-1.02-.02zm.331 1.226c-.115.03-.21.132-.21.227 0 .13.177.172.723.172.398 0 .723-.03.723-.067 0-.079-.794-.422-.93-.402-.052.008-.19.04-.306.07zm.874 1.544c0 .196.322.231.95.106.601-.12.436-.287-.287-.287-.509 0-.663.042-.663.181zm1.474.73c-.329.23-.338.424-.038.794.285.351.328.31.435-.409.092-.614.024-.68-.397-.385zm-1.782.709c-.221.163-.202.187.344.43.758.337.918.264.47-.215-.408-.438-.485-.458-.814-.215zm-1.299.63c-.285.286.289.644 1.03.644.44 0 .346-.17-.27-.484-.504-.257-.634-.285-.76-.16zm-1.004 1.194c-.105.276.064.38.773.474.84.111.867-.161.044-.453-.717-.255-.727-.255-.817-.02zm-.643 1.41c0 .374.33.5.854.328.605-.2.717-.359.253-.359a4.5 4.5 0 01-.73-.075c-.288-.058-.377-.033-.377.105zm96.766.978c-1.129.191-1.19.362-.098.274.497-.04 1.907-.108 3.134-.15 1.226-.043 2.311-.123 2.411-.18.269-.152-4.507-.103-5.447.056zm-95.922.383c-.1.022-.384.072-.633.113-.634.103-.616.424.024.424.563 0 1.09-.214 1.09-.441 0-.156-.1-.176-.481-.096zm104.02.013c0 .099.915.896 1.254 1.093.351.203.756.19.839-.027.051-.133-.187-.31-.888-.663-.939-.472-1.205-.561-1.205-.403zm-103.73 1.361c-.49.117-.652.225-.652.436 0 .245.41.216.97-.07.762-.39.594-.584-.317-.366zm27.08-.007c-.226.04-.435.145-.464.232-.04.12.104.148.592.12.5-.028.653-.084.684-.248.043-.224-.068-.239-.812-.104zm27.029.088c-.12.314.118 1.064.353 1.11.175.033.211-.05.211-.488 0-.683-.38-1.102-.564-.622zm1.528.59c0 .582.03.662.241.662.212 0 .242-.08.242-.663 0-.582-.03-.663-.242-.663s-.24.08-.24.663zm-2.954-.058c-.14.225.315 1.203.56 1.203.273 0 .275-.05.033-.763-.182-.533-.425-.713-.594-.44zm4.428.148c-.067.083-.142.408-.166.723-.036.471-.008.573.157.573.262 0 .604-.96.444-1.246-.134-.24-.268-.255-.434-.05zm-56.31.422c-.54.275-.616.512-.163.512.21 0 .512-.141.764-.357.41-.35.412-.357.116-.361-.166-.003-.488.09-.716.206zm26.993.21c.396.227.897.227 1.085 0 .13-.157.051-.18-.618-.176-.727.004-.752.014-.467.177zm23.757.172c-.139.088-.111.205.156.66.178.306.403.555.5.555.231 0 .222-.113-.06-.774-.246-.572-.312-.621-.596-.441zm-49.533.372c-.562.407-.634.602-.223.602.251 0 1.049-.67 1.049-.88 0-.184-.35-.067-.826.278zm56.044.173c-.17.673-.17.67.038.67.245 0 .671-.584.671-.92 0-.22-.065-.286-.287-.286-.239 0-.31.09-.422.536zm5.13.037c-.124.208-.218 1.356-.112 1.356.307 0 .805-.93.677-1.264-.072-.188-.47-.252-.565-.092zm1.499.342c-.14.178-.255.393-.255.478a1.2 1.2 0 01-.073.346c-.142.371.37.196.656-.225.464-.68.164-1.226-.328-.599zm-2.951.08c-.04.15-.073.475-.074.724-.002.366.042.452.23.452.186 0 .253-.127.34-.633.06-.348.087-.674.062-.724-.102-.201-.489-.076-.558.181zm-33.878-.058c-.154.154-.04.256.49.436.633.216.988.126.739-.188-.15-.189-1.097-.38-1.23-.248zm22.783.373c-.035.057.115.311.333.564.284.328.457.437.607.38.184-.071.163-.138-.18-.564-.376-.47-.627-.594-.76-.38zm15.509.047c-.142.177-.512.893-.512.989 0 .036.07.066.157.066.225 0 .927-.757.927-1 0-.241-.394-.279-.572-.055zm-38.36 1.047c0 .178.675.61.953.61.403 0 .296-.355-.166-.548-.48-.2-.787-.225-.787-.062zm39.123.391c-.63.736-.519.938.254.467.491-.3.733-.717.502-.864-.255-.161-.298-.139-.756.397zm-19.355.458c0 .065.087.337.194.603.135.34.266.485.434.485.254 0 .25-.18-.024-.9-.112-.295-.604-.449-.604-.188zm-43.392.21l-.466.174c-.234.087-.258.136-.136.284.22.264.431.22.87-.18.336-.304.358-.357.153-.352a1.555 1.555 0 00-.421.075zm41.948.124c.002.116.162.401.355.633.276.333.382.391.499.276.242-.24-.209-1.12-.574-1.12-.19 0-.282.07-.28.211zm-18.927.007c0 .21.811.867 1.07.867.426 0 .27-.371-.287-.688-.498-.282-.783-.347-.783-.18zm17.411.396c-.103.166.651.954.914.954.382 0 .359-.17-.086-.626-.459-.47-.685-.56-.828-.328zm22.798.24c-.292.347-.395.593-.248.593.234 0 1.262-.64 1.262-.786 0-.34-.673-.213-1.014.193zm-41.293.204c0 .05.137.294.305.542.214.315.395.45.603.45.452 0 .364-.312-.203-.723-.503-.364-.705-.441-.705-.27zm-21.937.48c-.513.256-.64.633-.213.633.259 0 .936-.55.936-.76 0-.143-.283-.093-.723.127zm20.732.12c0 .361.46.995.72.995.343 0 .303-.235-.127-.756-.404-.49-.594-.567-.593-.239zm-1.327.143c0 .322.227.888.4.998.43.274.52-.201.145-.768-.335-.506-.545-.594-.545-.23zm19.768-.021c0 .127 1.056.752 1.27.752.264 0 .214-.16-.162-.52-.317-.304-1.108-.47-1.108-.232zm24.257.403c-.775.453-.818.642-.12.53.453-.074 1.054-.344 1.054-.475 0-.132-.156-.429-.223-.426-.043.001-.363.168-.711.371zm-62.86.655c-.491.334-.615.78-.218.78.213 0 .973-.776.973-.993 0-.178-.308-.09-.755.213zm38.123.267c.004.22.226.398.711.57.634.223.734.227.732.033-.002-.218-.786-.693-1.142-.693-.167 0-.302.04-.301.09zm24.135.516c-.42.169-.321.358.186.358.429 0 .748-.164.748-.386 0-.127-.592-.11-.934.028zm-61.358.394c-.46.474-.515.843-.118.786.234-.033.809-.804.815-1.093.005-.213-.34-.061-.697.307zm14.681-.154c0 .274.647 1.091.813 1.028.094-.036.194-.066.221-.066.191 0-.02-.398-.375-.71-.437-.385-.659-.47-.659-.252zm-10.562.721c-.068.333-.097.63-.064.664.148.148.501.042.503-.152 0-.116.034-.414.076-.663.064-.392.043-.452-.159-.452-.183 0-.26.13-.356.604zm-2.602-.271c-.557.638-.561 1.37-.006 1.016.23-.146.53-1.227.34-1.227-.083 0-.233.095-.334.21zm1.262.422c-.263.685-.251.813.076.813.157 0 .25-.16.355-.611.178-.775.177-.835-.024-.835-.09 0-.274.284-.407.633zm34.457-.11c-.207.25.084.436.816.523.985.116.731-.243-.433-.613-.145-.046-.3-.01-.383.09zm-29.404.55c-.334.593-.225 1.02.192.755.147-.093.39-.761.39-1.074 0-.313-.328-.134-.582.319zm52.914-.38c.022.05.119.294.215.543.182.473.41.584.534.26.152-.394.071-.66-.236-.776-.369-.14-.569-.151-.513-.027zm1.675.48c-.41.497-.436.58-.228.71.165.101 1.097-.886.994-1.053-.134-.217-.405-.095-.766.343zm-48.396-.058c.162.526.43.95.573.902.26-.086.233-.583-.049-.884-.354-.377-.638-.387-.524-.018zm49.723.297c-.21.255-.323.493-.263.553.194.194 1.338-.558 1.338-.88 0-.066-.159-.12-.353-.12-.26 0-.449.116-.722.447zm-54.86.607l-.17.474c-.027.078.029.206.124.286.275.228.535-.076.535-.624 0-.564-.3-.648-.488-.136zm4.14.398c.09.457.168.599.314.571.307-.058.308-.565.002-.89-.394-.42-.45-.363-.316.319zm24.518-.475c-.51.297.522.645 1.172.396.325-.125.212-.255-.345-.395-.63-.159-.556-.159-.827 0zm27.488.121c-.182.136-.332.324-.332.418 0 .214.008.214.631-.032.49-.193.689-.35.694-.55.003-.186-.674-.074-.993.164zm-77.353.117c-2.115.174-4.963.649-9.354 1.56-4.85 1.008-4.916 1.024-6.194 1.513-1.67.639-2.985.836-5.545.831-1.928-.003-2.365-.04-3.23-.275-1.21-.328-2.117-.72-3.09-1.334-1.099-.694-1.758-1.004-1.965-.925-.34.131.15.488 1.876 1.37 3.241 1.655 5.351 2.232 8.157 2.232 1.127 0 1.987-.067 2.591-.2 1.048-.232 1.315-.245 1.744-.081.305.115.308.128.126.48-.103.2-.417.482-.697.629-.69.36-2.564.445-3.741.17-1.1-.258-1.276-.252-.913.032.849.663 2.255 1.056 3.358.939.366-.04 1.696-.295 2.956-.568 1.26-.273 2.567-.525 2.906-.561.723-.076.97.125.38.31l-1.84.575c-1.8.562-1.55.67.376.16 1-.263 1.718-.379 2.378-.383.862-.005 1.022.034 1.798.44 1.675.875 2.322.809 5.151-.528 3.113-1.471 5.304-2.397 5.304-2.242 0 .021-1.33.762-2.955 1.646-1.625.884-2.938 1.654-2.92 1.711.02.057.318.2.665.317.779.264 1.076.524 1.229 1.077.09.33.077.492-.06.7-.259.397-1.547 1.236-2.332 1.52-.963.35-2.444.342-3.617-.018-1.194-.366-1.355-.169-.27.332 1.216.56 2.54.78 4.293.709 2.204-.088 3.39-.54 5.695-2.173 1.923-1.361 4.163-2.373 5.635-2.544.578-.067.562-.056-.374.274-1.403.495-3.232 1.467-4.723 2.508a68.32 68.32 0 00-1.341.951c-.182.175.34.104 2.467-.337 2.142-.444 2.595-.5 4.152-.508.962-.006 1.951.033 2.2.085.84.179.471.534-.785.756-.666.118-.653.26.032.354 1.188.164 2.229-.071 6.147-1.387 3.526-1.184 4.422-1.372 6.195-1.3 2.298.094 3.794.77 6.503 2.939 2.402 1.923 2.369 2.595-.102 2.084-.597-.123-1.763-.258-2.592-.3-1.654-.083-4.89.125-5.403.347-.275.12-.102.15 1.184.212 1.656.08 2.893.314 2.893.547 0 .114-.452.15-1.838.15-2.474-.001-4.303.395-5.153 1.117-.248.21-.259.241-.06.174l1.284-.433c.607-.205 1.286-.35 1.627-.346.57.005.55.017-.75.452-1.945.65-2.51 1.035-4.587 3.123-1.704 1.713-2.24 2.447-1.784 2.447.447 0 .796-.305 1.423-1.249 1.328-1.997 3.069-3.153 5.776-3.838.85-.215 1.145-.235 2.133-.146.63.057 2.068.099 3.195.093 1.785-.009 2.295-.06 3.958-.389 3.085-.612 3.672-.553 6.325.628 2.91 1.297 5.314 1.868 8.293 1.97 4.19.145 7.67-.68 12.125-2.875 1.19-.586 2.217-1.066 2.282-1.066.065 0-.007.226-.16.502-.334.602-1.195 1.185-3.353 2.273-1.358.685-1.613.868-2.591 1.856-.93.94-1.942 2.362-1.68 2.362.046 0 .28-.178.52-.395.241-.217.856-.656 1.366-.974 1.014-.632 1.454-.696 1.521-.22.03.217-.24.566-1.22 1.567-1.198 1.226-2.616 2.999-2.616 3.27 0 .296.375.091.706-.385.44-.631 1.16-1.318 2.186-2.084 1.642-1.225 2.792-2.35 3.513-3.435.109-.164.229-.268.267-.232.037.036-.199.468-.525.959-.327.491-.572.916-.544.943.028.028.229-.054.448-.182.668-.39 1.485-1.542 2.153-3.036 1.481-3.31 2.081-4.24 3.403-5.278.477-.374 1.15-.953 1.494-1.286.541-.523.653-.583.82-.446.26.217.49-.005.329-.318-.147-.284-.085-.458.396-1.128 1.002-1.391 1.51-2.869 1.52-4.415.01-1.579-.586-2.429-1.892-2.7-1.876-.39-4.925.674-9.15 3.191-.727.434-1.493.821-1.702.86-.26.049-.725-.047-1.478-.306-1.343-.461-2.657-.625-3.895-.485-1.125.127-1.566.238-3.36.849-1.066.363-1.592.477-2.23.484-.863.01-.78.12.214.287.421.07.444.096.377.431-.066.33-.045.357.275.356.19 0 .645-.081 1.01-.18a5.9 5.9 0 011.25-.179c.504 0 .566.024.44.177-.371.446-1.42.802-2.793.946l-1.368.144.567.279c1.267.621 2.554.43 4.8-.711.637-.324 1.507-.666 1.933-.76.962-.213 2.612-.346 2.691-.217.075.121-2.24 1.874-3.362 2.545-2.479 1.484-5.993 2.762-9.16 3.332-1.48.266-4.484.36-5.719.18-2.882-.422-3.358-.657-10.855-5.376-7.106-4.474-10.437-6.036-15.007-7.042-2.197-.483-5.635-.687-8.136-.481zm22.54.593c0 .555.041.723.177.723.304 0 .423-.393.283-.943-.198-.782-.46-.658-.46.22zm1.447-.07c0 .688.092.914.374.914.268 0 .272-.034.087-.835-.18-.782-.461-.83-.461-.08zm54.33.437c-.784.419-.455.627.55.348.33-.092.448-.185.421-.331-.056-.29-.446-.297-.971-.017zm.482 1.357c-.182.072-.331.175-.331.228 0 .172 1.286.11 1.435-.07.258-.31-.458-.413-1.104-.158zm-.081 1.396c-.161.045-.315.148-.342.229-.035.106.173.147.745.147.793 0 .92-.066.649-.337-.156-.156-.58-.171-1.052-.04zm-.973 1.313c0 .317 1.119.724 1.434.522.31-.2.051-.494-.436-.496-.251 0-.578-.034-.727-.074-.149-.04-.271-.019-.271.048zm-.965 1.09c0 .15.903.626 1.185.626.293 0 .402-.135.276-.34-.168-.27-1.461-.524-1.461-.285zm-1.205.596c0 .194.83.773 1.048.731.314-.06.318-.308.008-.511-.363-.238-1.056-.382-1.056-.22zm-.888.421c-.127.474-.086 1.056.074 1.052.218-.006.573-.3.573-.474 0-.186-.385-.849-.494-.849-.044 0-.113.122-.153.271zm1.37 2.801c0 .099.136.207.302.242l.614.128c.399.083.712-.148.517-.383-.198-.239-1.433-.227-1.433.014zm.121 1.248c0 .194 1.164.653 1.437.566.579-.184-.085-.661-.925-.664-.282-.001-.512.043-.512.098zm0 1.333c0 .221.838.737 1.197.737.628 0 .426-.388-.344-.66-.592-.208-.853-.232-.853-.077zm-.482 1.317c0 .237.814.867 1.12.867.362 0 .381-.034.202-.368-.214-.4-1.322-.819-1.322-.5zm-5.992.63c-.118.315-.182.356-.448.289-.503-.126-.383.247.13.405.745.228 1.052-.08.746-.753-.182-.397-.26-.387-.428.06zm4.967.117c-.134.216.675 1.205.985 1.205.455 0 .342-.416-.244-.896-.569-.466-.629-.491-.741-.31zm-3.851.682c.047.321.108.624.137.674.107.187.507.081.581-.154.096-.303-.293-1.005-.589-1.062-.189-.036-.204.025-.129.542zm2.465-.256c0 .209.624 1.244.788 1.307.595.228.572-.328-.04-.925-.403-.394-.748-.57-.748-.382zm-1.15.508c.102.557.372.995.614.995.326 0 .326-.348.001-.903-.407-.694-.734-.743-.615-.092zm-3.135.402c-.108.174.656.954.934.954.389 0 .24-.434-.263-.767-.544-.36-.561-.366-.671-.187zm-7.64 1.605c-.307.447-.337.552-.194.671.264.22.638-.048.779-.558.223-.81-.067-.866-.584-.113zm7.349-.259c.007.295.673 1.116.935 1.154.421.061.33-.349-.191-.858-.465-.454-.752-.568-.744-.296zm-6.622 1.364c-.33.558-.336 1.017-.016 1.017.285 0 .452-.283.558-.949.104-.647-.18-.683-.542-.069zm6.015-.206c0 .286.297.947.509 1.133.312.273.421.266.516-.032.054-.169-.038-.389-.303-.723-.347-.438-.722-.634-.722-.378zm-4.996 1.205c-.197.594-.156.983.103.983.291 0 .433-.305.433-.928 0-.837-.267-.864-.536-.055zm3.986-.367c-.082.133.15 1.124.308 1.315.071.086.2.156.287.156.292 0 .307-.451.034-1.013-.251-.516-.487-.688-.629-.458zm-2.66.93c-.093.62-.003 1.023.228 1.023.32 0 .442-.325.358-.954-.062-.474-.13-.614-.293-.614-.159 0-.232.137-.293.545zm1.5.303c0 .538.048.746.183.797.22.085.545-.159.48-.357a16.113 16.113 0 01-.18-.654c-.078-.31-.2-.513-.306-.513-.136 0-.177.17-.177.727z" fill="#FF9236"/><path fill-rule="evenodd" clip-rule="evenodd" d="M28.08 77.808c-1.015 1.017-.351 2.613 1.088 2.613 1.44 0 2.104-1.596 1.088-2.613-.36-.36-.47-.4-1.088-.4-.617 0-.727.04-1.087.4zm.207 4.426c-.493.3-.794.968-.689 1.528.233 1.244 1.898 1.714 2.737.774.914-1.023.216-2.546-1.167-2.546a1.95 1.95 0 00-.88.244zm21.177 6.625c-3.957.383-7.257 1.874-9.82 4.438-1.023 1.023-2.19 2.63-2.816 3.875-2.449 4.874-2.449 11.3 0 16.174 1.774 3.53 4.96 6.267 8.758 7.521 3.99 1.317 8.928 1.134 12.242-.455 1.22-.585 2.862-1.691 2.856-1.924-.001-.081-.16-.336-.35-.567l-.348-.42-.583.488c-1.965 1.642-3.735 2.335-6.656 2.605-4.477.413-8.048-1.158-10.642-4.684-1.233-1.676-2.357-4.447-2.828-6.974-.344-1.842-.312-5.92.06-7.656 1.103-5.154 3.602-8.73 7.294-10.433 3.741-1.727 9.12-1.076 12.538 1.519l.833.631.34-.41c.186-.225.34-.473.343-.55.003-.172-1.19-.935-2.473-1.58-2.591-1.302-5.78-1.885-8.748-1.598zm-48.963.686c-.044.044-.08 7.152-.08 15.794v15.714h3.857v-14.709l2.32.002 2.32.002 5.043 7.353 5.042 7.352h4.818l-.276-.391c-1.994-2.834-9.819-13.688-9.938-13.786-.088-.071-.799-.204-1.58-.294-1.385-.16-1.406-.167-.818-.265 3.82-.642 5.635-1.424 7.353-3.165 2.296-2.327 2.855-5.458 1.495-8.38-1.294-2.78-4.397-4.688-8.423-5.182-1.11-.136-11.002-.176-11.133-.045zM27.3 105.259v15.794h3.736V89.465H27.3v15.794zm36.642 0v15.794h3.737V105.74l8.648.031 8.648.03.031 7.626.031 7.626h3.736l-.03-15.764-.031-15.764-1.838-.034-1.838-.033v15.198H67.678V89.464h-3.737v15.795zm28.808 0v15.794h3.736v-8.551l2.36-2.898c1.297-1.594 2.401-2.898 2.453-2.898.051 0 .708.908 1.46 2.019 5.775 8.537 9.498 13.416 13.058 17.112 4.15 4.309 7.879 6.75 11.397 7.46 1.606.325 3.704.203 5.21-.302 1.988-.666 3.918-1.977 5.661-3.844.78-.836.833-.924.636-1.068-.118-.087-.286-.157-.374-.157-.087 0-.63.406-1.206.902-1.256 1.083-2.83 1.915-4.133 2.188-4.027.843-8.934-1.802-14.338-7.727-2.842-3.116-5.378-6.407-9.947-12.906-1.445-2.056-2.82-3.976-3.055-4.268l-.428-.53-1.615.073-1.615.074.411-.508 6.414-7.923c3.302-4.078 6.086-7.51 6.187-7.626.173-.197.139-.21-.549-.21h-.732l-8.597 10.542-8.598 10.543-.03-10.543-.031-10.543H92.75v15.795zm41.907-15.469c-.307.604-13.823 31.101-13.823 31.19 0 .047.275.07.611.049l.612-.036 5.915-13.353c3.253-7.344 5.948-13.351 5.988-13.349.04.002 2.741 6.011 6.002 13.353l5.93 13.349 2.055.033c1.131.018 2.055-.009 2.053-.06-.002-.052-3.138-7.147-6.97-15.767l-6.967-15.674-.617-.036c-.571-.034-.63-.011-.789.301zm-124.352.932c3.724.674 6.205 3.257 6.459 6.723.208 2.845-1.356 5.553-3.94 6.821-1.703.835-2.079.9-5.503.961l-3.043.053V90.55l2.561.004c1.615.002 2.896.064 3.466.168z" fill="#278780"/></svg>