<svg width="150" height="150" fill="none" xmlns="http://www.w3.org/2000/svg"><path fill-rule="evenodd" clip-rule="evenodd" d="M102.401 51.98c-5.475 5.975-5.869 6.126-9.327 3.57-4.581-3.389-5.595-3.451-8.915-.553-1.676 1.464-3.303 2.663-3.613 2.664-.31.002-1.973 1.206-3.696 2.679-6.366 5.441-6.977 5.492-11.586.97-3.981-3.908-4.109-3.96-4.109-1.67 0 2.417 3.109 7.203 4.68 7.203.48 0 .196-1.034-.631-2.296-2.784-4.249-.709-2.345 5.402 4.956 3.34 3.989 7.304 8.13 8.81 9.203l2.74 1.95-1.425-2.857c-1.115-2.236-1.204-3.348-.405-5.1.935-2.053.872-2.16-.749-1.293-2.957 1.582-5.44 1.072-7.099-1.46-1.508-2.3-1.499-2.466.208-3.73.982-.729 2.854-1.543 4.159-1.81 1.426-.293 3.954-2.469 6.336-5.454 2.18-2.731 4.456-4.967 5.058-4.967.602 0 2.209 2.047 3.57 4.55 1.836 3.372 2.863 4.402 3.971 3.977 1.641-.63 1.13.711-1.386 3.642-.76.883-1.006 1.594-.55 1.578 1.066-.037 5.883-4.258 5.883-5.154 0-.374 1.714-3.565 3.809-7.091l3.8-5.95 3.708 3.95c1.372 1.54 10.818 13.463 10.818 13.463s-8.494-11.914-8.859-12.46c-1.797-2.686-5.724-6.933-6.276-6.933-.151 0-2.098 1.99-4.326 4.423zm-48.593 6.64c-5.623 4.951-6.64 5.123-11.31 1.91l-4-2.75-2.78 2.78c-2.445 2.446-3.007 2.64-4.65 1.614-1.682-1.05-2.39-.669-7.084 3.817-2.868 2.742-6.526 5.456-8.13 6.032-1.602.577-5.6 2.333-8.883 3.902L1 78.78h4.92c4.133.001 5.202-.36 6.697-2.26.979-1.244 3.181-2.525 4.894-2.846 1.713-.322 3.832-1.376 4.707-2.344.876-.968 3.115-2.003 4.976-2.3 2.642-.423 4.162-1.526 6.944-5.038 1.958-2.473 3.858-4.496 4.221-4.496.986 0 5.346 5.963 5.346 7.31 0 .738.716.982 1.941.661l1.943-.508-1.943 2.067c-3.018 3.214-2.296 3.557 1.666.792 1.982-1.384 3.828-3.343 4.101-4.353.852-3.16 6.157-8.887 7.688-8.3 1.155.444 1.195.295.234-.863-.638-.77-1.213-1.38-1.277-1.359-.066.021-1.978 1.676-4.25 3.677zm56.042-2.68c-.021 1.48 2.434 4.162 3.153 3.444.206-.207-.415-1.402-1.379-2.657-1.307-1.701-1.759-1.902-1.774-.787zm26.612 9.644c0 .495 1.498 2.322 3.329 4.063 2.011 1.91 2.954 2.437 2.381 1.328-1.206-2.332-5.71-6.585-5.71-5.39zm-33.33 1.554c-.273.711-2.425 2.873-4.782 4.804-3.768 3.088-4.51 3.373-6.136 2.357-2.538-1.584-3.01-.775-.745 1.275 1.81 1.638 1.954 1.61 5.746-1.136 4.15-3.004 7.774-7.232 6.927-8.08-.283-.281-.738.069-1.01.78zm27.754 1.162c-.783.943-2.246 1.336-4.146 1.114l-4.878-2.464 5.267 6.18 3.326 4.06.705-3.392c.387-1.866 1.134-4.194 1.658-5.174 1.148-2.145-.229-2.376-1.932-.324zM46.49 72.783c-2.247 2.29-3.655 4.162-3.128 4.162 1.65 0 7.986-6.004 7.59-7.192-.224-.671-2.041.563-4.462 3.03zm96.563 1.35c.608 1.943 4.961 4.938 6.401 4.404.879-.326.707-.666-.594-1.163-1.01-.387-2.823-1.57-4.029-2.632-1.397-1.23-2.042-1.45-1.778-.608zm-123.322 3.07c-1.316 1.121-3.176 2.554-4.133 3.186-1.63 1.075-1.602 1.133.446.918 1.203-.127 3.218-1.572 4.48-3.214 2.682-3.488 2.5-3.693-.793-.89z" fill="url(#paint0_linear_395_285)"/><path d="M11.176 99.059c-.635 0-1.206-.113-1.715-.34a2.8 2.8 0 01-1.2-1.017c-.292-.448-.437-1-.437-1.656 0-.566.104-1.033.313-1.403.209-.37.493-.665.854-.887.361-.222.768-.39 1.22-.502a9.924 9.924 0 011.415-.255c.587-.06 1.064-.115 1.429-.163.365-.052.63-.13.796-.234.17-.11.254-.276.254-.503v-.039c0-.491-.146-.872-.437-1.141-.291-.27-.711-.405-1.259-.405-.578 0-1.037.127-1.376.379-.335.252-.561.55-.678.893l-2.205-.313c.174-.609.46-1.117.86-1.526.4-.413.89-.722 1.468-.926a5.615 5.615 0 011.918-.313c.483 0 .963.056 1.441.17.479.112.916.3 1.312.56.395.257.713.607.952 1.05.243.444.365.998.365 1.664v6.705h-2.27V97.48h-.078a2.867 2.867 0 01-1.578 1.362c-.387.144-.842.216-1.364.216zm.614-1.735c.473 0 .884-.093 1.232-.28.348-.192.615-.444.803-.757a1.94 1.94 0 00.287-1.024v-1.18c-.074.06-.2.117-.379.169a5.39 5.39 0 01-.587.137 17.3 17.3 0 01-.646.104l-.554.078a4.128 4.128 0 00-.946.235 1.573 1.573 0 00-.659.457c-.16.191-.24.439-.24.743 0 .435.158.763.475.985.318.222.722.333 1.213.333zm10.856-1.611l-.007-2.85h.379l3.6-4.025h2.76l-4.43 4.931h-.489l-1.813 1.944zm-2.153 3.144V85.499h2.362v13.358h-2.362zm6.288 0l-3.261-4.56 1.591-1.663 4.494 6.223h-2.824zM41.66 88.838l-3.567 10.019h-2.61l-3.567-10.019h2.517l2.303 7.442h.104l2.31-7.442h2.51zm5.883 10.221c-.635 0-1.206-.113-1.715-.34a2.8 2.8 0 01-1.2-1.017c-.291-.448-.437-1-.437-1.656 0-.566.104-1.033.313-1.403.209-.37.493-.665.854-.887.361-.222.768-.39 1.22-.502a9.919 9.919 0 011.415-.255 55.56 55.56 0 001.429-.163c.365-.052.63-.13.796-.234.17-.11.254-.276.254-.503v-.039c0-.491-.146-.872-.437-1.141-.291-.27-.71-.405-1.259-.405-.578 0-1.037.127-1.376.379-.335.252-.561.55-.678.893l-2.205-.313c.174-.609.46-1.117.86-1.526.401-.413.89-.722 1.468-.926a5.614 5.614 0 011.918-.313c.483 0 .963.056 1.442.17.478.112.915.3 1.31.56.396.257.714.607.953 1.05.243.444.365.998.365 1.664v6.705h-2.27V97.48h-.078a2.882 2.882 0 01-.606.782c-.257.24-.581.433-.972.58-.387.144-.842.216-1.364.216zm.614-1.735c.474 0 .884-.093 1.232-.28.348-.192.616-.444.803-.757a1.94 1.94 0 00.287-1.024v-1.18c-.074.06-.2.117-.379.169a5.39 5.39 0 01-.587.137 17.25 17.25 0 01-.645.104c-.214.03-.398.057-.555.078a4.128 4.128 0 00-.946.235 1.573 1.573 0 00-.658.457c-.161.191-.242.439-.242.743 0 .435.159.763.476.985.318.222.722.333 1.214.333zm14.776-5.003v1.944h-6.014V92.32h6.014zm6.289 3.392l-.006-2.85h.378l3.6-4.025h2.76l-4.43 4.931h-.489l-1.813 1.944zm-2.152 3.144V85.499h2.36v13.358h-2.36zm6.287 0l-3.26-4.56 1.59-1.663 4.495 6.223h-2.825zm8.706.202c-.635 0-1.207-.113-1.716-.34a2.8 2.8 0 01-1.2-1.017c-.291-.448-.437-1-.437-1.656 0-.566.105-1.033.313-1.403.21-.37.494-.665.855-.887.36-.222.767-.39 1.22-.502a9.924 9.924 0 011.415-.255c.587-.06 1.063-.115 1.428-.163.366-.052.631-.13.796-.234.17-.11.255-.276.255-.503v-.039c0-.491-.146-.872-.437-1.141-.292-.27-.711-.405-1.26-.405-.578 0-1.036.127-1.376.379-.334.252-.56.55-.678.893l-2.204-.313c.173-.609.46-1.117.86-1.526.4-.413.89-.722 1.468-.926a5.614 5.614 0 011.918-.313c.482 0 .963.056 1.441.17.478.112.915.3 1.311.56.396.257.713.607.953 1.05.243.444.365.998.365 1.664v6.705h-2.27V97.48h-.078a2.887 2.887 0 01-.607.782c-.257.24-.58.433-.972.58-.387.144-.841.216-1.363.216zm.613-1.735c.474 0 .885-.093 1.233-.28.348-.192.615-.444.802-.757.192-.313.287-.655.287-1.024v-1.18c-.074.06-.2.117-.378.169a5.34 5.34 0 01-.587.137 17.64 17.64 0 01-.646.104l-.554.078a4.127 4.127 0 00-.946.235 1.573 1.573 0 00-.659.457c-.16.191-.241.439-.241.743 0 .435.159.763.476.985.317.222.722.333 1.213.333zm8.704 1.533V88.838h2.29v1.67h.104c.183-.578.496-1.024.94-1.337a2.585 2.585 0 011.532-.476c.13 0 .276.006.437.02.165.008.302.023.41.045v2.172a2.49 2.49 0 00-.475-.091 4.387 4.387 0 00-.62-.046c-.43 0-.817.093-1.161.28-.34.183-.607.437-.802.763a2.15 2.15 0 00-.294 1.129v5.89h-2.36zm8.936 3.757V88.838h2.322v1.657h.137c.121-.244.293-.502.515-.776a2.74 2.74 0 01.9-.711c.378-.2.861-.3 1.448-.3.774 0 1.472.198 2.094.593.626.392 1.122.972 1.487 1.742.37.765.554 1.704.554 2.817 0 1.1-.18 2.035-.541 2.805-.361.77-.852 1.357-1.474 1.761-.622.405-1.326.607-2.113.607-.574 0-1.051-.096-1.429-.287a2.903 2.903 0 01-.913-.691 4.476 4.476 0 01-.528-.777h-.098v5.336h-2.361zm2.315-8.767c0 .648.091 1.216.274 1.703.187.487.454.867.802 1.141.353.27.779.405 1.279.405.522 0 .959-.14 1.311-.418.352-.282.617-.667.796-1.154.182-.492.274-1.05.274-1.677 0-.621-.09-1.174-.268-1.656-.178-.483-.443-.861-.796-1.135-.352-.274-.791-.411-1.317-.411-.505 0-.933.133-1.285.398-.352.265-.62.637-.802 1.115-.179.478-.268 1.041-.268 1.69zm13.7 5.212c-.634 0-1.206-.113-1.715-.34a2.798 2.798 0 01-1.2-1.017c-.292-.448-.437-1-.437-1.656 0-.566.104-1.033.313-1.403.209-.37.493-.665.854-.887.361-.222.768-.39 1.22-.502a9.928 9.928 0 011.415-.255c.587-.06 1.064-.115 1.429-.163.365-.052.63-.13.796-.234.169-.11.254-.276.254-.503v-.039c0-.491-.146-.872-.437-1.141-.291-.27-.711-.405-1.259-.405-.578 0-1.037.127-1.376.379-.335.252-.561.55-.678.893l-2.205-.313c.174-.609.461-1.117.861-1.526.4-.413.889-.722 1.467-.926a5.62 5.62 0 011.918-.313c.483 0 .963.056 1.442.17.478.112.915.3 1.311.56.395.257.713.607.952 1.05.243.444.365.998.365 1.664v6.705h-2.27V97.48h-.078a2.867 2.867 0 01-.607.782 2.91 2.91 0 01-.971.58c-.387.144-.842.216-1.364.216zm.614-1.735c.473 0 .884-.093 1.232-.28.348-.192.616-.444.803-.757a1.93 1.93 0 00.287-1.024v-1.18c-.074.06-.2.117-.379.169a5.313 5.313 0 01-.587.137c-.217.039-.432.074-.646.104-.213.03-.397.057-.554.078a4.141 4.141 0 00-.946.235 1.566 1.566 0 00-.658.457c-.161.191-.242.439-.242.743 0 .435.159.763.476.985.318.222.722.333 1.214.333zm13.706-8.486v1.826h-5.759v-1.826h5.759zm-4.337-2.4h2.361v9.405c0 .318.048.561.143.73.1.166.231.28.392.34a1.5 1.5 0 00.535.091c.148 0 .282-.01.404-.032.126-.022.222-.042.287-.059l.398 1.846a5.31 5.31 0 01-.541.143 4.445 4.445 0 01-.848.092c-.592.017-1.124-.072-1.598-.268a2.49 2.49 0 01-1.129-.926c-.274-.417-.409-.94-.404-1.565v-9.797zm9.433 16.176a4.8 4.8 0 01-.894-.078 3.352 3.352 0 01-.646-.17l.548-1.839c.344.1.65.147.92.143.27-.004.507-.089.711-.254.209-.161.385-.43.528-.81l.202-.54-3.633-10.228h2.505l2.309 7.566h.104l2.316-7.566h2.511l-4.011 11.232c-.187.53-.435.985-.744 1.363a3.02 3.02 0 01-1.135.874c-.443.205-.974.307-1.591.307z" fill="#006792"/><defs><linearGradient id="paint0_linear_395_285" x1="75.501" y1="47.557" x2="75.501" y2="81.407" gradientUnits="userSpaceOnUse"><stop stop-color="#1D7291"/><stop offset="1" stop-color="#024771"/></linearGradient></defs></svg>