<svg width="35" height="35" fill="none" xmlns="http://www.w3.org/2000/svg"><path d="M17 26.391a2.68 2.68 0 001.88-.752 2.505 2.505 0 00.778-1.817c0-.69-.275-1.331-.778-1.817a2.708 2.708 0 00-1.88-.736c-.713 0-1.394.266-1.864.736a2.505 2.505 0 00-.778 1.817c0 .69.276 1.332.778 1.817a2.682 2.682 0 001.88.752H17z" fill="#fff"/><path d="M25.687 3.269A4.555 4.555 0 0022.51 2H11.49c-1.2 0-2.334.454-3.177 1.269A4.254 4.254 0 007 6.339v21.322c0 1.159.47 2.24 1.313 3.07A4.555 4.555 0 0011.489 32H22.51c1.2 0 2.334-.454 3.177-1.269A4.254 4.254 0 0027 27.661V6.339c0-1.159-.47-2.24-1.313-3.07zm-15.235 3.07a.98.98 0 01.308-.705 1.05 1.05 0 01.73-.297h11.02c.276 0 .535.11.73.297a.98.98 0 01.308.705v21.322a.98.98 0 01-.308.704 1.049 1.049 0 01-.73.298H11.49c-.276 0-.535-.11-.73-.297a.98.98 0 01-.308-.705V6.339z" fill="#fff"/></svg>