<svg width="1920" height="1581" viewBox="0 0 1920 1581" fill="none" xmlns="http://www.w3.org/2000/svg">
<path opacity="0.2" d="M-628.567 1498.39C-576.431 1548.75 -507.138 1568.11 -442.025 1577C-310.863 1594.76 -298.652 1406.05 -202.289 1396.52C-117.065 1388.07 -61.3204 1364.32 -15.897 1285.74C60.5211 1153.59 185.805 1227.08 263.953 1313.15C384.566 1445.97 511.995 1626.56 707.828 1569.69C853.453 1527.37 945.085 1445.71 1006.97 1300.06C1033.21 1238.3 1061.46 1168.33 1073.61 1101.07C1085.38 1036.01 1067.6 935.893 1130.03 899.371C1260.97 822.729 1444.03 952.528 1583.19 913.712C1682.03 886.291 1721.52 838.656 1682.31 725.956C1628.87 572.508 1813.54 531.556 1917.4 508.943C2007.5 489.228 2149.98 541.419 2224.59 471.698M-633.324 1477.24C-581.661 1525.66 -513.027 1544.55 -449.933 1551.85C-377.116 1560.31 -325.273 1491.84 -290.8 1432.1C-267.445 1391.56 -242.508 1354.9 -213.338 1354.37C-122.383 1352.79 -77.6368 1325.39 -27.3998 1250.99C-13.1031 1229.74 2.50465 1211.99 19.4443 1201.42C104.968 1147.93 189.482 1214.46 250.401 1276.5C315.238 1342.87 379.437 1433.3 455.255 1489.14C537.149 1549.44 613.896 1568.46 709.108 1548.82C767.48 1536.81 833.795 1510.84 876.632 1470.44C928.886 1420.92 967.342 1355.64 1000.27 1286.67C1006.88 1272.72 1012.79 1257.38 1018.56 1241.97C1041.35 1180.92 1057.15 1125.51 1064.72 1059.91C1071.96 997.179 1058.19 925.58 1109.51 883.258C1111.48 881.587 1113.6 880.102 1115.83 878.819C1248.17 803.597 1433.29 938.303 1573.66 902.264C1675.91 876.219 1705.59 827.153 1667.32 714.499C1639.57 632.416 1686.73 584.817 1746.96 553.776C1796.41 528.341 1858.56 513.409 1915.97 501.706C2004.84 483.546 2146.3 530.836 2220.48 465.711M-638.093 1455.48C-586.766 1501.37 -518.888 1518.14 -457.956 1522.97C-384.486 1528.8 -334.982 1451.1 -301.052 1390.6C-277.678 1348.93 -252.946 1313.22 -224.063 1312.56C-136.679 1310.61 -91.6368 1287.22 -38.0308 1218.87C-24.9612 1201.38 -8.34826 1187.12 10.7009 1177.05C98.2571 1133.76 172.249 1181.66 237.219 1242.65C307.034 1308.11 374.971 1395.35 449.561 1454.38C530.116 1518.06 612.774 1546.62 710.467 1528.26C766.682 1517.71 830.836 1491.66 871.977 1450.83C922.076 1401.14 961.5 1340.14 993.917 1273.82C1000.61 1260.14 1006.62 1244.91 1012.48 1229.56C1037.29 1165.2 1047.88 1112.1 1052.46 1042.31C1056.67 978.451 1042.97 905.636 1095.92 863.28C1097.94 861.622 1100.08 860.141 1102.34 858.851C1236.78 785.379 1423.55 925.406 1564.4 891.049C1669.33 865.488 1687.96 815.268 1652.82 702.891C1626.36 618.189 1683.19 574.402 1744.67 545.379C1795.61 521.323 1857.16 506.431 1914.85 494.399C2002.84 476.045 2142.37 521.86 2216.38 459.572M-642.859 1433.67C-594.074 1474.45 -524.638 1492.3 -466.206 1491.36C-389.895 1490.19 -345.39 1409.74 -311.282 1348.74C-287.792 1306.78 -263.071 1272.85 -234.429 1272.11C-158.225 1270.28 -97.7777 1249.3 -47.7514 1190.38C-33.5192 1174.88 -16.1112 1162.91 3.27556 1155.26C89.8697 1117.24 158.038 1153.36 224.835 1212.65C296.766 1276.5 367.3 1359.12 441.993 1418.87C524.804 1485.08 611.213 1523.92 710.512 1507.46C768.491 1497.5 822.101 1470.98 865.427 1430.82C915.497 1382.57 956.667 1325.21 987.051 1261.37C993.661 1247.48 999.884 1232.68 1005.99 1217.46C1033.25 1149.22 1037.21 1098.34 1038.79 1024.47C1040.15 959.747 1027.59 885.98 1082.38 844.123C1084.42 842.478 1086.58 840.999 1088.85 839.699C1225.48 768.24 1414.12 912.95 1554.59 880.184C1660.54 855.545 1669.08 802.897 1638.04 691.814C1613.85 604.798 1680.27 565.072 1742.62 537.823C1794.8 515.222 1855.79 499.914 1913.44 487.573C2000.57 468.925 2137.91 513.542 2211.81 453.894M-647.682 1411.19C-598.908 1448.14 -530.186 1461.59 -474.54 1457.09C-399.11 1451.04 -356.235 1367.45 -321.292 1306.5C-297.643 1265.16 -272.83 1233.74 -244.332 1232.94C-170.402 1231.27 -111.359 1213.93 -56.3901 1165.1C-40.1153 1151.76 -21.813 1141.26 -2.16336 1134C83.5892 1100.06 149.055 1126.47 215.306 1184.22C286.087 1245.96 359.357 1323.31 433.261 1382.26C518.529 1450.16 614.218 1502.21 709.327 1485.05C764.769 1474.33 816.057 1448.74 858.189 1410.79C908.096 1364.85 949.519 1309.85 980.568 1248.31C987.263 1234.63 993.48 1219.93 999.845 1204.43C1028.7 1135.18 1029 1082.13 1024.74 1005.51C1021.36 945.091 1014.28 862.207 1069.69 824.647C1071.84 823.047 1074.09 821.579 1076.41 820.248C1215.13 750.893 1405.04 899.764 1545.12 868.336C1651.17 844.523 1650.33 789.263 1623.91 679.836C1602.56 591.434 1679.02 554.897 1741.4 529.639C1794.5 508.204 1854.89 492.987 1912.66 480.301C1998.92 461.359 2133.92 504.814 2207.71 447.704M-652.472 1388.96C-603.603 1421.96 -535.82 1429.84 -482.967 1421.95C-409.125 1410.48 -367.581 1326.14 -331.132 1265.49C-307.237 1225.77 -282.032 1197.6 -253.798 1197.08C-182.424 1196.16 -121.935 1184.93 -63.2037 1142.97C-45.5694 1131.08 -26.4844 1121.6 -6.39673 1114.74C77.8917 1083.81 141.761 1101.74 207.528 1157.76C276.948 1216.81 349.574 1289.4 422.789 1346.75C510.422 1415.4 610.269 1476.71 705.424 1462.01C753.226 1454.6 807.598 1428.36 850.669 1392.16C901.586 1349.35 943.483 1296.19 973.955 1235.74C980.743 1222.17 986.982 1207.11 993.624 1191.9C1040.25 1086.47 949.505 874.315 1057.56 806.503C1059.86 805.112 1062.23 803.522 1064.57 802.136C1205.64 733.842 1390.92 888.348 1534.3 856.243C1642.99 831.89 1631.17 775.792 1610.06 668.243C1592.78 579.961 1678.77 546.101 1740.99 522.661C1796.85 502.537 1854.02 486.225 1912.17 473.826C1997.52 454.482 2129.98 496.856 2203.66 442.234M-657.228 1367C-608.092 1395.64 -541.55 1397.27 -491.427 1385.73C-419.438 1369.17 -379.433 1285.85 -340.745 1226.4C-316.454 1189.06 -290.902 1164.85 -262.696 1164.79C-193.777 1164.59 -128.121 1158.99 -68.7016 1122.67C-49.8934 1112.1 -30.1326 1103.38 -9.66511 1096.6C72.3022 1066.6 137.169 1080.31 201.62 1132.11C268.792 1186.08 339.288 1257.27 411.118 1312.34C491.831 1374.25 602.586 1455.92 698.775 1437.2C746.992 1427.85 800.407 1407.57 842.95 1374.38C894.606 1334.07 937.092 1282.57 967.634 1223.25C974.516 1209.74 980.746 1194.02 987.644 1179.44C1038.08 1072.93 924.581 859.375 1046.51 789.339C1048.85 788.003 1051.36 786.48 1053.84 785.362C1197.89 719.674 1376.41 857.77 1523.28 844.845C1636.85 834.82 1608.53 738.807 1597.05 657.248C1584.35 568.934 1679.05 537.614 1740.99 515.472C1796.92 496.219 1853.89 480.037 1911.65 466.99C1996.24 447.21 2125.96 488.534 2199.54 436.399M-662.007 1345.39C-608.625 1369.01 -549.198 1362.26 -499.85 1349.72C-432.58 1332.26 -391.886 1247.32 -350.026 1189.94C-325.253 1155.97 -299.253 1136.5 -270.935 1137.01C-201.699 1138.06 -134.898 1137.08 -73.0917 1104.36C-53.4845 1094.78 -33.2509 1086.55 -12.519 1079.73C67.5029 1050.96 132.75 1057.67 196.793 1107.28C261.78 1157.56 329.829 1226.92 398.95 1279.61C480.262 1341.38 591.061 1424.73 689.144 1411.26C737.991 1404.47 791.903 1388.94 835.18 1357.4C887.434 1319.17 930.459 1269.07 961.168 1210.69C968.194 1197.25 974.629 1182.22 981.619 1166.93C1031.47 1057.92 903.998 841.88 1036.27 773.28C1038.71 772.005 1041.36 770.497 1043.94 769.389C1190.19 707.295 1365.09 843.331 1511.92 833.512C1625.59 825.894 1590.95 723.716 1584.49 646.097C1577.19 558.805 1679.04 529.659 1741.47 508.536C1795.95 490.102 1854.22 474.103 1911.23 460.317C1995.06 440.05 2121.64 480.383 2195.46 430.721M-666.706 1324.1C-613.142 1342.33 -555.448 1330.15 -508.353 1314.21C-442.76 1291.99 -405.405 1210.93 -359.125 1156.92C-333.677 1127.2 -307.601 1113.7 -279.114 1114.69C-209.62 1117.14 -140.247 1117.55 -76.9391 1087.64C-56.7152 1078.27 -35.9048 1070.22 -14.6276 1063.55C65.6815 1038.12 125.96 1032.74 193.528 1082.67C256.574 1129.27 322.302 1197.17 388.774 1248.11C471.09 1311.15 579.034 1392.12 678.341 1385.96C727.75 1382.85 782.597 1371.34 827.004 1340.64C880.008 1304.29 923.727 1255.36 954.731 1197.68C962.516 1183.57 969.492 1168.98 975.622 1153.97C1016.57 1048.1 887.653 822.685 1027.07 757.992C1029.7 756.788 1032.45 755.34 1035.17 754.299C1182.79 696.325 1354.68 829.293 1500.31 822.154C1612.72 816.698 1574.15 707.941 1572.73 634.825C1571.13 550.167 1678.94 522.459 1742.32 501.894C1796.9 484.184 1854.32 467.688 1910.8 453.694C1994.03 432.804 2117.65 472.42 2191.32 425.14M-671.366 1303.78C-617.536 1316.07 -562.207 1299.1 -516.653 1280.2C-453.015 1253.74 -419.858 1176.95 -367.873 1128.63C-341.511 1104.05 -315.629 1096.14 -286.758 1097.27C-216.546 1100.05 -144.954 1101.2 -80.2688 1072.92C-60.3933 1064.23 -38.1431 1056.15 -16.7834 1048.95C61.6493 1022.81 124.042 1012.65 190.839 1059.09C252.199 1101.89 316.151 1169.04 379.868 1218.37C468.057 1286.77 568.898 1356.75 667.237 1362.37C714.959 1365.1 772.684 1354.81 818.711 1324.99C872.473 1290.23 916.938 1242.25 948.367 1185.08C956.821 1171.14 963.516 1156.07 968.293 1140.25C995.472 1030.91 872.757 803.947 1019.32 743.925C1022.05 742.782 1024.93 741.502 1027.7 740.516C1177.22 689.217 1343.88 815.98 1488.78 811.211C1600.14 807.533 1558.13 692.298 1562.21 623.376C1567.09 543.729 1679.11 514.981 1743.63 494.993C1798.31 478.059 1854.62 461.193 1910.49 446.676C1993.11 425.213 2113.43 464.178 2187.29 419.467M-676.063 1284.06C-622.316 1290.49 -569.132 1269.16 -524.997 1247.71C-464.82 1218.3 -433.943 1144.17 -376.6 1105.59C-352.366 1089.21 -323.439 1081.51 -294.041 1083.6C-222.985 1086.28 -149.317 1087.28 -83.5418 1059.68C-63.3302 1051.13 -40.8231 1042.87 -19.2887 1035.22C57.5651 1007.55 121.867 992.741 188.472 1035.89C248.499 1074.74 310.774 1141.15 372.131 1189.62C459.318 1258.32 557.619 1327.98 655.879 1339.71C704.747 1345.42 762.422 1339.15 810.283 1309.93C864.896 1276.62 910.202 1229.43 942.143 1172.61C950.368 1158.38 955.971 1142.62 958.678 1126.09C974.364 1015.55 856.953 784.757 1012.34 732.591C1015.15 731.61 1018.17 730.498 1021.13 729.633C1172.46 684.897 1332.98 803.573 1477.23 801.236C1587.49 799.432 1543.81 678.718 1552.76 612.957C1563.51 535.554 1679.48 508.901 1745.08 489.026C1799.49 472.522 1855.1 455.837 1909.98 440.454C1995.42 416.53 2104.99 456.516 2183.24 414.098M-680.667 1265.23C-627.343 1265.69 -576.173 1241.1 -533.084 1217.45C-477.311 1186.81 -443.228 1116.58 -384.992 1087.53C-358.436 1074.23 -330.719 1071.72 -301.05 1072.68C-229.043 1075.09 -153.537 1075.01 -86.8166 1047.25C-66.1555 1038.6 -43.7245 1029.97 -22.0426 1021.53C42.9968 996.291 120.172 964.978 186.223 1012.36C247.988 1056.58 306.298 1113 365.528 1160.83C451.492 1230.23 547.029 1300.01 644.681 1316.82C694.455 1325.43 752.585 1322.98 801.414 1294.02C856.162 1261.64 906.105 1216.11 935.269 1158.68C942.182 1143.51 946.027 1126.93 946.575 1109.94C953.14 998.856 843.997 765.661 1006.47 722.291C1009.47 721.482 1012.64 720.436 1015.73 719.688C1167.69 681.696 1322.79 791.446 1465.67 790.699C1573.99 790.119 1529.69 663.224 1544.2 601.611C1561.55 527.344 1678.74 502.501 1746.82 482.172C1800.72 466.022 1855.32 448.926 1909.34 433.198C1994.18 408.549 2100.63 448.056 2179.13 408.111M-685.18 1247.32C-632.669 1242.6 -583.343 1215.16 -541.081 1189.74C-489.214 1158.59 -451.669 1096.12 -393.104 1073.73C-365.685 1063.23 -338.06 1063.82 -307.98 1064.51C-234.943 1066.16 -157.641 1064.9 -90.4426 1035.76C-69.5642 1026.77 -47.1447 1017.53 -25.4131 1008.27C39.3353 980.561 116.202 946.259 183.477 988.92C245.066 1027.98 302.264 1084.89 359.697 1132.33C444.391 1202.36 536.95 1272.54 633.613 1294.25C683.62 1305.49 742.642 1306.95 792.531 1278.35C846.755 1247.3 903.278 1202.82 926.034 1143.95C931.24 1130.47 932.683 1111.76 932.612 1093.65C932.16 978.208 831.201 751.221 1001.91 714.013C1005 713.367 1008.31 712.437 1011.55 711.755C1162.81 680.168 1313.42 780.475 1454.41 780.958C1560.79 781.349 1516.74 647.289 1536.55 590.666C1561.04 520.407 1676.83 497.458 1748.65 475.733C1802.06 459.583 1855.43 442.41 1908.65 426.139C1993.1 400.532 2096.22 439.744 2175.1 402.388M-689.654 1230.38C-638.279 1220.9 -590.132 1191.81 -548.868 1165.02C-501.308 1134.28 -458.614 1080.15 -401.073 1064.02C-373.226 1056.17 -345.324 1057.86 -314.926 1058.17C-241.148 1058.99 -161.934 1055.42 -94.541 1024.72C-73.5763 1015.13 -51.2081 1005.12 -29.6131 994.885C34.9701 964.247 110.583 927.112 179.751 965.382C241.639 999.578 298.256 1056.32 354.368 1103.63C437.855 1174.09 527.301 1245.27 622.762 1271.35C672.427 1284.94 733.26 1290.58 783.571 1262.32C835.971 1232.91 898.37 1191.34 914.013 1128.06C917.309 1111.12 918.245 1093.69 916.794 1076.29C910.585 954.388 819.727 739.265 998.469 707.485C1001.7 706.904 1005.1 706.086 1008.43 705.516C1157.66 679.885 1304.97 770.669 1443.44 772.012C1547.87 773.015 1505.47 633.722 1530.62 580.716C1562.5 513.421 1676.11 492.335 1750.65 469.568C1803.06 453.62 1855.53 435.945 1907.71 419.668C1991.83 393.159 2091.72 432.084 2171.07 397.429M-694.052 1214.63C-644 1201.03 -598.343 1170.82 -556.409 1143.53C-510.262 1113.36 -465.239 1068.6 -408.907 1056.94C-380.643 1051.11 -352.652 1052.96 -322.083 1052.89C-247.408 1052.73 -166.626 1046.88 -99.3225 1013.62C-78.3082 1003.21 -56.0829 992.327 -34.6671 980.998C29.3417 946.884 102.744 907.275 174.465 941.63C237.543 971.666 293.743 1027.19 348.969 1074.51C431.595 1145.34 517.956 1217.89 611.991 1247.94C660.939 1263.6 723.963 1273.65 774.546 1245.78C826.156 1217.2 890.251 1179.28 899.492 1111.25C901.242 1093.72 901.192 1075.97 899.342 1058.31C888.586 928.689 811.276 728.593 996.03 701.519C999.308 701.045 1002.85 700.344 1006.22 699.88C1152.57 679.456 1297.28 761.148 1432.62 762.98C1535.17 764.245 1494.99 621.615 1526 570.903C1565.73 505.803 1675.93 486.503 1752.54 462.78C1803.82 446.867 1855.24 428.674 1906.46 411.991C1990.33 384.641 2087.09 423.391 2167.01 391.448M-698.37 1199.95C-650.338 1183.19 -605.974 1153.19 -563.702 1126.81C-517.645 1098.11 -472.174 1060.48 -416.654 1051.64C-388.034 1047.23 -360.153 1048.46 -329.427 1048.25C-254 1047.04 -171.693 1038.8 -105.129 1002.35C-84.2514 990.969 -62.1626 979.098 -41.1156 966.558C22.1232 928.948 91.7339 886.954 167.134 917.511C232.514 943.709 288.697 997.094 343.676 1044.44C425.422 1115.17 509.253 1189.65 601.878 1223.43C650.023 1240.95 715.042 1255.38 765.636 1228.13C817.977 1199.68 877.751 1164 882.589 1093.12C883.259 1075.39 882.541 1057.58 880.44 1039.86C866.394 902.102 805.67 718.881 994.515 696.517C997.937 696.109 1001.52 695.514 1004.93 695.157C1147.5 679.437 1290.48 752.585 1422.31 754.511C1523.27 755.967 1485.23 611.418 1522.71 561.993C1570.86 499.098 1676.11 481.117 1754.28 456.179C1804.47 440.255 1854.84 421.494 1905.09 404.607C1988.82 376.426 2082.48 415.007 2163.11 385.942M-702.676 1185.88C-656.43 1166.95 -613.15 1138.58 -570.793 1113.22C-525.065 1085.86 -478.609 1054.66 -424.338 1046.91C-395.642 1042.87 -367.861 1043.32 -337.04 1042.35C-260.957 1040.09 -177.272 1029.45 -111.423 989.409C-90.9662 976.858 -68.9037 963.812 -48.2774 950.106C20.6371 904.215 79.8296 878.012 156.601 894.231C221.22 907.959 282.512 966.313 336.968 1013.35C417.701 1082.96 499.921 1160.43 591.43 1197.97C638.873 1217.3 705.631 1234.66 756.444 1209.47C808.119 1183.86 862.181 1142.59 863.77 1074.94C863.662 1057.05 862.459 1039.14 860.166 1021.33C844.489 875.647 803.487 710.342 993.78 692.463C997.246 692.111 1000.82 691.617 1004.33 691.321C1142.85 679.768 1284.24 745.102 1412.35 746.791C1511.99 748.111 1475.35 602.28 1520.51 553.758C1576.78 493.341 1676.64 475.716 1755.96 449.624C1804.7 433.294 1853.95 414.314 1902.85 396.98C1986.54 367.927 2077.39 406.471 2158.82 380.396M-706.961 1172.28C-662.371 1152.26 -620.404 1125.22 -577.767 1101.73C-532.586 1076.87 -483.788 1049.22 -432.015 1042.08C-403.671 1038.16 -375.723 1036.69 -344.929 1035.36C-268.295 1032.14 -183.492 1019.32 -118.988 975.515C-98.4532 961.698 -76.5514 947.258 -57.2906 932.543C4.63968 885.77 69.4197 866.371 140.967 875.468C209.339 884.182 273.544 934.375 328.914 980.945C409.135 1048.46 487.906 1123.58 580.718 1170.39C630.127 1195.38 694.726 1214.25 746.939 1188.7C799.152 1163.14 842.612 1118.98 842.58 1055.29C842.558 1040.4 840.449 1021.01 838.469 1001.93C822.685 849.152 804.302 701.861 993.255 688.176C996.764 687.93 1000.43 687.497 1003.94 687.302C1138.17 679.076 1278.04 737.776 1402.39 739.072C1501.16 739.996 1465.07 593.457 1518.7 545.462C1583.38 487.656 1676.54 470.147 1756.84 442.424C1804.56 425.936 1852.22 406.484 1900.19 389.104C1983.97 359.195 2072.22 397.722 2154.54 374.85M-711.145 1159.46C-668.12 1138.45 -626.701 1113.14 -584.681 1091.68C-538.96 1068.45 -490.571 1045.05 -439.823 1036.17C-411.214 1030.97 -382.275 1027.52 -353.155 1025.84C-276.113 1021.58 -190.325 1007.13 -127.586 959.219C-107.894 943.886 -86.531 930.206 -68.3725 917.415C-8.70524 874.639 52.3501 856.585 121.836 860.775C191.322 864.965 260.296 908.008 317.551 950.338C399.87 1010.94 478.586 1091.76 570.132 1141.54C617.331 1167.27 686.19 1193.73 734.73 1166.26C780.609 1140.45 820.875 1096.21 820.351 1035.74C820.215 1021.09 818.149 1001.8 816.548 982.973C810.83 915.681 785.867 831.543 819.792 769.509C852.523 709.288 931.15 688.019 994.062 684.64C997.568 684.445 1001.33 684.124 1004.78 684.025C1132.65 680.794 1270.75 729.876 1393.66 732.094C1479.31 733.636 1477.65 578.402 1518.44 537.684C1574.6 481.539 1676.16 464.244 1758.07 435.21C1805.11 418.549 1850.66 398.062 1897.54 380.975C1981.51 350.271 2067.55 388.771 2150.79 369.41M-715.358 1147.08C-673.849 1125.92 -633.834 1101.85 -591.498 1082.45C-544.804 1061.01 -497.178 1040.43 -447.666 1028.42C-419.538 1020.69 -390.75 1015.43 -361.604 1012.72C-283.323 1007.52 -200.343 989.106 -137.459 942.025C-118.783 928.014 -98.3054 916.74 -81.056 905.129C-27.9368 868.808 34.0541 844.325 99.7651 848.274C172.482 852.751 239.725 884.701 299.261 922.73C385.18 977.586 470.024 1063.64 558.479 1110.04C599.626 1131.72 672.293 1168.31 715.753 1141.03C756.346 1115.54 796.643 1074 796.679 1015.62C796.669 1001.35 794.933 982.298 793.856 963.728C790.003 896.528 771.444 816.322 811.391 758.027C850.067 701.995 931.25 683.186 994.491 680.861C998.043 680.721 1001.75 680.445 1005.25 680.402C1128.94 679.489 1265.38 724.37 1384.62 725.44C1429.14 725.802 1443.55 697.884 1458.97 663.238C1482.31 610.859 1474.55 569.563 1517.93 529.982C1577.47 475.669 1676.24 458.134 1758 427.554C1803.69 410.497 1847.74 389.497 1893.35 372.227C1977.36 340.2 2062.16 379.641 2146.26 363.788M-719.491 1135.03C-719.491 1135.03 -685.026 1111.55 -598.325 1073.38C-552.797 1053.29 -503.24 1034.14 -455.699 1018.14C-427.403 1008.6 -399.855 996.793 -370.253 994.834C-293.403 989.697 -213.745 970.881 -148.768 928.199C-130.513 916.235 -111.388 906.146 -95.3929 895.73C-44.1199 862.225 13.5705 837.242 76.3984 838.443C148.275 839.772 215.279 865.17 276.122 898.747C364.624 947.6 452.166 1028.17 540.25 1076.62C578.343 1097.53 651.376 1138.6 690.585 1113.22C728.144 1089.04 770.274 1052.13 771.648 995.217C772 981.435 770.79 962.647 770.52 944.568C768.039 781.14 823.618 680.624 995.375 676.874C998.97 676.841 1002.68 676.615 1006.17 676.623C1125.8 677.683 1260.36 719.563 1376.29 719.166C1421.29 719.067 1434 689.952 1450.29 655.499C1475.51 602.042 1471.53 561.804 1518.16 522.256C1579.89 469.904 1676.88 451.01 1757.44 419.746C1801.57 402.525 1844.83 380.116 1888.89 363.093C1971.87 330.959 2057.09 369.935 2142.01 358.399M-723.647 1123.32C-723.647 1123.32 -691.556 1099.24 -605.151 1064.3C-558.218 1045.39 -510.04 1026.24 -463.701 1004.97C-435.485 991.903 -408.219 975.066 -378.956 973.02C-304.808 967.805 -225.953 956.452 -160.986 917.951C-143.465 907.541 -125.338 898.469 -109.989 888.955C-60.8339 857.88 -7.49847 831.678 52.4277 830.435C122.454 829.022 188.501 849.17 249.48 878.121C339.44 920.854 428.834 992.899 515.699 1043.57C551.148 1064.25 620.805 1108.99 661.743 1084.3C710.72 1054.54 734.895 1031.92 747.166 975.479C749.782 963.31 747.673 943.918 748.406 926.352C754.602 764.288 833.458 674.257 997.054 672.766C1000.65 672.733 1004.35 672.609 1007.79 672.662C1123.63 675.467 1256.18 715.557 1369.06 713.567C1414.49 712.749 1425.7 682.457 1442.76 648.238C1469.86 593.906 1469.96 554.501 1519.24 515.026C1582.54 464.368 1677.41 443.826 1756.91 411.532C1799.82 394.083 1841.26 370.005 1884.8 353.488C1968.44 321.932 2052.69 359.889 2138.16 352.898M-727.802 1111.62C-727.802 1111.62 -697.991 1086.99 -611.784 1054.48C-563.258 1036.79 -516.527 1014.53 -472.158 987.975C-444.213 970.495 -417.545 955.379 -388.267 953.896C-313.76 950.044 -241.446 945.045 -173.914 909.667C-156.778 900.696 -139.091 892.394 -125.198 883.34C-75.8921 851.414 -27.2657 829.769 28.2335 822.863C90.5447 814.831 160.373 835.119 220.54 859.651C310.142 896.178 399.381 961.119 485.541 1010.44C519.637 1029.91 589.214 1075.97 628.802 1053.23C664.508 1032.79 715.036 1005.02 721.178 954.615C722.74 941.979 723.482 924.261 725.36 907.273C742.969 750.123 842.865 667.743 998.379 668.009C1001.92 668.022 1005.57 667.892 1009.01 668.047C1121.5 672.39 1251.28 711.936 1361.91 708.13C1407.78 706.542 1417.59 674.983 1435.43 640.845C1464.46 585.694 1468.6 547.067 1520.24 507.482C1584.4 458.087 1677.2 436.154 1754.84 402.75C1796.5 384.813 1836.55 359.366 1879.99 343.706C1964.74 313.134 2047.91 350.314 2133.76 347.595M-731.951 1099.82C-731.951 1099.82 -703.175 1074.42 -618.948 1043.69C-568.598 1025.23 -524.463 998.172 -481.07 967.159C-457.069 949.159 -428.094 939.378 -397.992 939.114C-325.217 937.834 -254.093 936.179 -187.442 903.921C-171.421 896.619 -155.833 888.39 -140.748 879.27C-93.4329 848.513 -48.2982 824.413 4.63543 815.199C63.4394 804.967 132.402 822.513 190.604 842.965C279.451 874.16 367.269 931.763 452.45 978.588C485.771 997.055 554.963 1042.98 594.087 1022.17C630.719 1002.69 684.951 985.152 695.687 934.466C698.301 922.348 700.069 905.552 703.374 889.376C734.688 737.48 848.187 661.211 999.55 662.573C1003.09 662.636 1006.69 662.553 1010.07 662.753C1119.77 668.488 1246.4 708.877 1355.28 703.053C1401.7 700.554 1410.02 667.666 1428.7 633.463C1459.24 577.654 1468.5 539.102 1521.35 499.898C1585.86 452.018 1677.4 428.732 1751.87 393.465C1791.71 374.625 1832.29 348.52 1875.14 333.564C1960.19 303.888 2043.64 340.486 2129.75 342.434M-736.136 1087.81C-736.136 1087.81 -708.363 1061.9 -625.927 1031.49C-576.121 1013.08 -531.924 975.366 -490.282 947.23C-465.383 930.451 -437.108 926.059 -408.199 926.576C-336.757 927.758 -266.934 928.873 -201.117 898.976C-185.338 892.344 -170.06 884.567 -155.393 875.702C-110.476 846.327 -65.9718 819.662 -16.8007 806.793C38.2383 792.139 105.369 810.667 162.126 827.399C249.825 853.223 334.493 906.01 417.769 947.791C452.723 965.308 520.585 1008.03 558.648 990.891C596.711 973.753 654.135 965.161 670.925 914.495C674.785 902.915 677.774 887.063 682.665 871.511C727.213 729.358 854.876 654.056 1000.47 656.397C1003.96 656.455 1007.45 656.463 1010.84 656.613C1122.23 661.249 1239.8 706.506 1349.28 698.195C1396.21 694.627 1403.09 660.263 1422.61 625.995C1454.7 569.787 1469.15 530.859 1522.57 492.02C1586.86 445.239 1675.92 420.776 1747.91 383.364C1786.6 363.231 1827.81 337.294 1870.43 322.925C1955.87 294.157 2039.84 330.147 2125.94 337.091M-740.306 1075.54C-740.306 1075.54 -714.095 1049.42 -633.052 1017.64C-583.975 998.286 -543.66 954.051 -499.718 930.132C-474.919 916.607 -447.187 914.656 -418.39 916.182C-347.934 919.81 -279.303 923.504 -214.169 895.116C-198.741 888.833 -183.898 881.187 -169.8 872.262C-126.295 842.637 -84.1328 813.229 -36.4715 796.888C14.4067 779.455 83.1293 798.506 135.212 811.996C219.131 833.652 301.858 880.373 382.359 918.449C417.897 935.261 484.266 975.839 522.839 960.028C563.733 943.287 622.693 944.952 646.58 894.924C651.726 884.039 656.131 869.201 662.794 854.446C721.896 723.755 859.283 646.409 1001.01 649.263L1011.18 649.56C1121.19 655.072 1234.51 704.526 1343.5 693.717C1389.21 689.205 1398.63 653.577 1417.01 618.629C1447.52 560.064 1470.81 522.262 1523.69 484.132C1587.34 438.303 1672.54 412.469 1742.79 372.938C1781.12 351.442 1822.84 326.067 1865.48 312.21C1950.85 284.405 2036.29 319.834 2122.03 331.94M-744.552 1062.91C-744.552 1062.91 -719.066 1038.19 -640.306 1001.89C-591.88 979.512 -558.458 934.507 -509.424 915.046C-483.494 904.749 -457.277 904.221 -428.74 906.79C-359.424 912.952 -291.288 919.092 -226.84 891.448C-211.535 885.278 -196.901 877.549 -183.146 868.37C-140.358 837.6 -99.3572 804.655 -52.9487 784.665C-5.0816 764.164 62.5045 782.485 111.849 795.689C190.672 816.967 270.579 855.898 348.194 890.46C384.657 906.655 450.704 945.262 488.508 929.932C532.68 911.901 591.044 926.505 623.775 875.922C630.3 865.843 636.314 852.041 644.89 838.199C718.247 719.856 860.776 638.1 1000.94 641.455C1004.29 641.498 1007.74 641.45 1010.77 641.767C1114.49 651.16 1229.49 706.042 1338.09 689.634C1386.33 682.378 1391.48 647.223 1411.86 610.29C1444.34 551.777 1471.09 513.673 1524.14 476.071C1587.53 431.184 1667.6 403.284 1736.53 361.882C1774.95 338.866 1817.09 314.657 1859.94 301.332C1945.55 274.571 2032.52 309.14 2117.61 326.89M-748.77 1049.83C-748.77 1049.83 -719.673 1026.4 -647.619 983.895C-606.779 960.009 -567.268 915.232 -519.486 900.943C-493.317 893.169 -467.566 893.816 -439.287 897.379C-370.906 905.941 -302.879 914.67 -238.975 887.072C-223.534 881.021 -208.904 873.065 -195.39 863.371C-152.077 829.647 -113.889 791.207 -66.0786 769.222C-19.3262 747.636 43.402 763.308 92.9109 777.04C166.908 797.559 242.847 832.965 316.563 863.704C354.044 879.342 417.122 914.988 456.198 900.606C504.175 883.125 562.698 903.968 602.658 857.503C610.615 848.136 618.132 835.509 628.963 822.617C717.592 716.881 858.092 628.897 1000.2 631.894C1003.44 631.977 1006.84 631.924 1010.02 632.255C1112.75 642.515 1225.26 704.428 1333.59 685.136C1381.51 676.573 1386.68 639.685 1408.05 602.652C1441.79 544.372 1472.05 505.157 1525.22 467.26C1587.45 422.763 1665.25 391.005 1730.92 349.773C1768.29 326.392 1813.57 299.044 1855.15 289.665C1941.39 270.261 2023.84 296.507 2114.06 321.319M-753.055 1036.22C-753.055 1036.22 -724.064 1012.12 -655.117 964.093C-619.433 939.211 -575.226 898.135 -529.069 887.858C-502.789 882.289 -477.363 883.412 -449.286 887.871C-381.629 898.601 -313.336 910.214 -249.798 882.169C-234.266 875.862 -219.669 867.443 -206.377 857.125C-162.275 820.17 -123.627 776.628 -75.2462 750.164C-29.1077 724.944 29.4852 739.828 79.3899 755.131C148.373 776.35 219.416 810.533 288.598 838.147C327.04 853.375 386.627 885.75 427.01 872.525C478.942 855.559 537.051 881.558 583.752 839.928C593.127 831.524 602.548 819.963 615.579 808.116C718.221 714.652 853.487 620.513 998.568 621.576C1001.72 621.599 1004.91 621.677 1008 621.847C1116.99 628.782 1217.11 704.852 1329.23 680.857C1375.35 671.086 1384.69 632.848 1404.33 595.074C1435.36 535.288 1473.91 495.713 1525.92 458.257C1586.9 414.189 1660.4 377.701 1725.04 337.381C1762.5 314.009 1808.32 286.717 1850.15 277.977C1936.81 259.739 2021.06 284.846 2110.31 315.88M-757.451 1022.05C-757.451 1022.05 -731.82 991.732 -662.883 942.275C-628.545 917.66 -583.54 882.022 -539.076 874.475C-512.815 870.485 -485.916 871.325 -459.592 876.955C-392.297 889.585 -323.451 904.212 -260.006 875.291C-244.144 868.546 -229.356 859.482 -216.076 848.363C-171.489 809.112 -134.636 757.123 -79.2139 732.209C-28.6088 709.597 22.9504 714.773 71.6022 729.639C133.979 748.64 200.122 788.072 265.51 813.353C304.404 828.425 360.372 858.026 401.778 845.774C457.518 829.307 514.916 859.669 567.595 823.302C578.335 815.907 589.723 805.979 605.245 794.443C714.646 713.565 851.903 610.251 995.862 610.331C998.913 610.344 1002.01 610.412 1004.95 610.616C1114.23 617.582 1212.23 704.292 1324.93 677.043C1370.95 665.935 1380.16 625.544 1400.6 587.699C1432.65 528.172 1473.83 487.394 1525.49 449.288C1584.87 405.463 1653.79 363.6 1718.28 324.795C1756.56 301.764 1802.33 274.517 1844.36 266.563C1931.33 249.632 2018.01 273.666 2105.89 310.931M-761.472 1007.35C-761.472 1007.35 -737.262 968.117 -670.273 921.516C-636.704 898.197 -591.439 866.36 -548.407 860.498C-522.12 857.114 -495.308 858.394 -469.102 864.286C-401.845 878.339 -331.965 896.185 -268.557 866.241C-252.179 859.022 -237.053 849.199 -223.705 837.114C-179.178 794.033 -140.65 742.014 -81.3941 717.195C-31.3868 696.305 19.5686 696.879 68.6055 708.675C127.927 722.921 189.454 762.994 248.47 788.63C284.423 804.312 341.317 830.848 381.453 820.045C440.602 804.188 497.228 838.294 554.487 807.504C566.599 801.017 580.979 791.249 598.087 780.337C710.756 708.774 851.302 599.175 991.901 597.068C994.809 597.015 997.807 597.073 1000.65 597.217C1110.29 604.015 1207.48 703.898 1320.87 672.693C1366.36 660.459 1376.3 617.9 1397.43 579.975C1430.59 520.717 1473.58 478.699 1525.04 439.757C1582.43 396.285 1647.86 348.654 1711.75 311.672C1750.84 289.032 1796.61 261.886 1838.95 254.322C1926.14 238.739 2015.68 261.9 2101.85 305.36M-766.046 992.037C-766.046 992.037 -747.796 944.837 -678.264 901.714C-638.71 877.133 -603.564 851.378 -558.401 845.28C-532.144 841.722 -505.319 843.002 -479.145 849.062C-411.803 864.145 -340.539 885.093 -276.918 854.1C-259.778 846.429 -244.138 835.713 -230.679 822.415C-188.202 777.437 -143.16 726.761 -82.4765 704.334C-34.2383 686.286 18.277 682.288 69.5315 692.761C124.071 704.723 182.465 738.095 238.428 763.769C284.674 784.962 330.1 805.866 366.751 795.718C425.081 779.572 489.597 811.034 545.575 792.297C558.639 787.949 574.769 776.936 593.215 766.673C707.163 703.148 850.279 587.748 986.638 583.364C989.46 583.097 992.122 583.018 995.063 583.223C1105.43 589.333 1202.9 703.93 1317.47 668.718C1362.37 654.893 1372.79 610.14 1394.46 572.119C1428.26 513.029 1472.89 469.806 1524.07 429.866C1579.8 386.322 1642.73 333.688 1705.1 298.129C1744.16 275.893 1790.9 249.002 1833.41 242.067C1920.75 227.877 2013.9 250.701 2097.8 299.941M-770.432 976.078C-770.432 976.078 -753.454 923.953 -685.947 882.555C-647.792 859.103 -613.113 835.34 -567.714 828.604C-541.517 824.447 -514.633 825.334 -488.386 831.22C-421.002 846.409 -347.154 870.176 -283.78 838.392C-266.367 829.924 -250.592 818.359 -237.141 804.2C-193.904 757.262 -145.022 712.188 -83.0973 692.796C-32.8758 676.682 20.6119 672.66 73.4015 681.029C125.064 690.141 182.245 716.809 234.232 740.692C277.316 760.484 317.071 782.377 358.759 772.755C419.324 758.678 482.175 793.229 539.471 777.077C553.231 773.414 570.617 762.786 590.163 753.046C704.949 695.931 847.938 576.184 979.861 567.869C982.579 567.694 985.392 567.58 988.094 567.658C1100.14 571.241 1197.58 703.886 1313.95 664.272C1358.29 649.215 1369.44 602.142 1391.66 564.076C1426.14 505.057 1471.83 460.67 1522.58 419.665C1577.01 375.578 1636.71 319.395 1698.21 284.458C1737.27 262.324 1784.85 236.032 1827.66 229.79C1919.75 217.318 2014.3 240.344 2093.61 294.557M-774.882 959.552C-774.882 959.552 -759.271 904.021 -694.046 863.711C-657.212 840.937 -622.934 818.1 -577.249 809.915C-551.165 804.657 -524.164 804.704 -497.72 810.055C-430.784 824.534 -354.365 850.507 -291.517 818.464C-274.289 810.147 -258.464 799.129 -244.576 785.782C-198.763 740.183 -147.262 698.136 -83.7193 681.259C-30.8549 667.263 24.4809 664.053 79.2824 671.802C129.271 679.312 184.756 699.123 234.444 720.369C275.259 737.834 311.244 760.2 355.885 750.58C416.083 737.688 479.083 774.601 535.711 761.337C549.99 758.033 568.365 748.121 588.911 738.945C665.572 704.774 740.452 663.534 814.793 623.869C863.488 597.897 916.243 555.47 972.712 551.215C975.384 550.983 978.196 550.869 980.902 550.896C1094.27 553.852 1193.05 703.209 1310.5 659.628C1353.96 643.512 1366.2 594.053 1388.93 555.633C1424.09 496.787 1470.05 451.153 1520.44 408.735C1573.79 363.821 1630.19 304.539 1691.36 270.129C1730.64 248.477 1779.3 222.96 1822.18 217.236C1909.89 205.991 2010.82 227.994 2089.66 289.046M-779.392 942.408C-779.392 942.408 -765.185 884.894 -701.996 844.882C-666.162 822.361 -632.428 799.569 -586.353 789.028C-559.895 782.967 -533.285 780.033 -506.667 785.003C-440.796 797.586 -364.151 826.285 -300.712 797.465C-283.245 790.059 -267.057 779.903 -252.698 767.343C-204.661 723.2 -149.62 681.216 -85.2538 669.371C-29.2587 658.173 28.408 656.257 85.6371 663.694C137.36 671.455 188.384 684.637 237.919 703.038C277.092 717.578 310.345 739.557 356.429 729.68C414.067 717.592 479.481 756.082 534.256 745.735C548.801 742.918 568.032 733.503 589.332 724.864C667.699 692.275 743.787 654.416 817.126 611.518C863.091 585.108 911.158 538.878 965.582 534.256C968.3 533.985 971.034 533.862 973.775 533.887C1088.53 535.916 1189.19 701.888 1307.07 654.529C1349.5 637.591 1363.22 584.87 1386.25 547.245C1422.13 488.577 1467.88 441.595 1517.77 397.799C1570.2 351.769 1622.8 290.154 1684.6 256.013C1723.93 234.265 1773.41 209.19 1816.52 204.458C1904.55 194.267 2009.49 216.79 2085.57 283.52M-783.802 925.223C-783.802 925.223 -771.138 866.375 -709.886 825.855C-675.513 803.079 -641.775 779.422 -595.202 765.567C-568.534 757.693 -542.016 752.25 -515.955 757.468C-450.855 770.583 -374.759 801.825 -310.407 776.568C-292.607 770.29 -275.956 761.138 -261.051 749.44C-207.964 704.805 -152.959 672.25 -87.1226 657.295C-31.3515 644.35 33.4606 645.299 92.177 655.759C141.984 664.627 195.248 674.111 244.31 688.714C282.547 700.046 313.346 721.106 360.311 710.505C414.412 698.303 482.326 737.767 534.397 729.789C549.298 727.571 568.994 718.612 590.901 710.496C670.533 681.187 746.902 643.69 818.905 598.548C863.041 570.672 904.295 522.354 958.515 517.049C961.234 516.745 963.97 516.588 966.714 516.578C1083.58 517.859 1186.65 697.595 1303.72 649.028C1344.73 631.993 1360.02 576.021 1383.67 538.614C1420.14 480.109 1465.49 431.657 1514.61 386.659C1566.39 339.287 1615.36 275.967 1677.88 241.902C1717.34 220.524 1767.66 196.199 1810.98 191.949C1899.57 183.192 2008.41 206.174 2081.72 278.02M-788.198 908.6C-788.198 908.6 -777.134 848.566 -717.941 806.301C-684.753 782.79 -650.974 757.658 -604.051 739.71C-577.094 729.52 -551.869 724.299 -526.649 729.582C-462.216 743.137 -386.807 776.755 -321.511 755.37C-303.334 750.021 -286.205 741.652 -270.773 730.58C-215.15 687.942 -157.976 656.939 -90.8939 643.338C-32.1768 631.312 35.4431 633.829 96.701 646.186C147.644 656.6 200.019 665.328 251.41 676.452C289.348 684.642 318.21 704.378 365.589 692.648C416.514 680.063 486.333 719.778 535.818 713.825C551.101 711.799 571.285 703.707 593.621 695.839C671.583 669.351 751.94 632.711 819.447 584.888C862.047 554.762 896.018 505.633 951.076 499.497C953.8 499.22 956.622 498.953 959.232 498.92C1077.34 499.209 1185.23 694.234 1299.86 642.915C1339.89 624.962 1356.67 567.258 1380.67 528.97C1417.37 470.743 1462.09 421.156 1510.37 374.693C1561.32 325.653 1607.41 261.115 1670.62 227.173C1710.32 205.82 1761.41 182.443 1805.04 178.888C1894.08 171.555 2006.87 195.254 2077.36 272.159M-792.69 891.968C-783.2 849.103 -759.428 811.604 -725.505 785.983C-693.37 761.189 -658.15 731.006 -612.662 711.583C-586.493 700.597 -562.03 695.755 -537.549 701.063C-473.19 715.018 -398.968 750.348 -333.005 733.316C-314.373 729.128 -296.675 721.664 -280.661 711.242C-222.564 670.801 -163.132 640.696 -95.2952 627.633C-30.9786 616.28 35.3368 618.364 99.8257 633.765C152.9 646.339 205.798 657.773 259.843 665.757C297.267 671.089 325.691 689.148 373.101 676.095C421.316 662.769 491.013 701.247 539.377 697.522C554.214 696.368 575.311 688.626 597.273 681.229C672.667 655.697 755.459 622.676 819.914 570.864C861.322 537.706 888.37 489.895 943.821 482.168C946.519 481.763 949.246 481.536 951.984 481.49C1071.79 480.579 1187.31 690.882 1295.69 636.209C1333.84 616.937 1352.59 559.082 1377.45 519.711C1414.35 461.352 1458.44 410.883 1505.6 362.671C1555.64 311.497 1599.26 246.294 1663.59 212.621C1703.55 191.704 1753.28 171.396 1799.33 166.004C1888.57 155.479 2011.24 189.744 2073.28 266.431M-797.156 875.695C-787.979 832.244 -765.564 793.492 -733.182 765.092C-699.882 735.728 -662.383 702.112 -621.72 683.511C-596.752 672.042 -572.751 667.51 -548.698 672.569C-483.244 686.333 -412.953 723.955 -345.611 710.942C-326.456 707.882 -308.102 701.285 -291.408 691.459C-231.382 653.258 -170.48 623.256 -101.692 609.935C-35.3614 597.464 33.3104 600.141 99.6238 617.784C154.215 632.912 210.824 650.445 267.351 655.679C305.183 659.168 333.689 675.093 380.899 660.49C427.005 646.23 497.101 683.831 543.67 680.481C558.5 679.427 579.526 672.851 601.512 665.865C675.706 642.246 758.057 610.811 818.418 555.92C857.716 520.248 880.255 472.935 936.498 464.322C939.197 463.884 941.925 463.623 944.667 463.543C1065.56 461.777 1185.3 685.114 1290.9 628.519C1328.51 608.324 1348.65 550.258 1374.17 509.732C1410.97 451.464 1454.68 400.853 1500.16 350.223C1548.53 296.682 1591.78 230.93 1656.46 197.906C1696.75 177.38 1747.53 157.59 1793.44 152.998C1883.57 143.994 2009.51 179.417 2068.97 260.525M-801.624 859.472C-793.337 814.86 -772.135 774.406 -740.812 743.441C-708.891 711.69 -672.168 674.678 -631.59 655.048C-607.147 643.321 -583.831 638.717 -560.361 643.664C-495.012 657.519 -426.749 696.918 -359.106 687.812C-339.375 685.924 -320.286 680.239 -302.805 671.046C-241.044 635.066 -178.775 604.442 -109.519 589.895C-44.4539 576.287 30.8497 577.107 96.1628 597.179C154.132 615.006 212.272 640.499 273.906 645.91C313.753 649.456 342.2 662.316 389.015 646.141C433.618 630.705 503.644 667.024 548.875 663.84C563.702 662.837 584.589 656.909 606.502 650.323C679.269 628.29 759.097 597.866 815.572 540.53C852.787 502.703 872.581 456.022 929.269 446.588C931.964 446.129 934.693 445.869 937.437 445.809C1057.85 443.074 1175.99 676.291 1285.04 619.749C1324.44 599.181 1344.48 540.542 1369.97 500.37C1406.86 442.215 1450.86 389.339 1494.06 338.063C1539.61 283.973 1584.58 216.003 1649.46 183.765C1690.07 163.578 1741.35 144.351 1787.66 140.463C1878.78 132.94 2007.89 169.713 2064.82 255.146M-806.148 843.346C-798.377 797.214 -778.358 754.698 -748.316 720.528C-718.848 687.042 -681.802 647.158 -641.317 626.652C-617.547 614.65 -594.475 610.021 -571.687 614.846C-506.576 628.574 -440.348 669.851 -372.922 664.292C-352.894 663.422 -333.359 658.534 -315.389 649.898C-251.992 616.128 -188.428 583.651 -119.264 567.411C-50.1005 551.172 22.2758 550.769 87.8489 570.613C147.191 588.532 211.4 628.222 277.893 635.465C320.392 639.899 349.722 650.404 396.199 632.512C439.948 615.762 509.471 650.653 554.063 647.452C568.89 646.45 588.949 640.384 611.264 634.452C684.57 614.872 758.961 583.218 810.977 524.754C846.134 485.182 865.45 439.063 921.964 429.254C924.663 428.787 927.393 428.493 930.139 428.373C1053.81 424.603 1166.9 665.705 1279.11 610.361C1319.71 590.427 1340.5 530.694 1366.19 489.828C1402.78 431.693 1446.09 377.98 1487.21 325.366C1530.71 269.328 1577.17 200.443 1642.59 168.924C1683.57 149.133 1736.91 128.489 1782.06 127.387C1874.09 125.108 2003.27 154.443 2060.76 249.012M-810.619 827.175C-805.07 775.999 -783.012 736.539 -755.785 697.058C-730.395 660.24 -691.382 619.592 -651.294 598.331C-627.994 585.975 -605.121 581.375 -582.767 586.053C-518.084 599.533 -452.995 643.342 -386.666 640.422C-366.924 639.524 -345.101 636.804 -327.64 628.173C-263.469 596.217 -199.583 563.314 -130.024 542.221C-59.1062 520.658 12.6274 514.681 78.018 536.698C139.891 557.482 207.901 611.438 279.415 623.488C325.454 631.198 356.377 639.014 402.69 619.778C459.116 596.142 501.655 644.075 559.804 631.684C574.218 628.598 594.716 624.21 616.517 618.632C689.978 599.731 755.225 568.704 804.72 508.804C838.377 468.005 859.268 421.897 914.841 411.378C917.519 410.851 920.236 410.521 922.973 410.391C1049.86 405.528 1157.96 654.166 1273.19 600.258C1314.63 580.923 1336.37 520.167 1362.25 478.557C1398.4 420.426 1440.22 366.099 1479.79 312.354C1522.01 254.805 1569.56 185.627 1635.54 154.727C1676.94 135.336 1730.88 115.366 1776.29 114.801C1869.48 113.664 2001.46 144.566 2056.44 243.258M-815.137 810.948C-810.647 757.774 -789.545 714.646 -763.153 672.732C-739.483 635.072 -701.159 592.006 -661.175 570.02C-638.205 557.426 -615.475 552.76 -593.555 557.291C-529.152 570.537 -466.077 615.871 -400.311 616.511C-379.767 617.24 -359.449 613.617 -340.596 605.864C-274.747 575.46 -209.285 540.121 -140.135 512.867C-68.6123 484.636 3.12003 473.865 68.3748 497.297C132.722 520.276 202.383 589.854 276.874 608.742C327.716 621.593 360.811 627.698 406.624 606.982C463.312 581.487 506.377 628.863 564.505 616.01C578.775 612.859 598.637 608.404 620.552 602.583C693.836 583.358 751.191 554.209 797.78 493.548C829.889 451.516 852.427 405.019 907.245 393.963C909.925 393.409 912.644 393.046 915.384 392.874C1045.25 386.894 1148.63 641.822 1266.68 590.044C1309.16 571.429 1331.62 509.371 1357.49 467.199C1393.14 409.169 1433.02 354.283 1471.5 299.047C1513 239.487 1561.34 170.39 1628.22 140.043C1670.08 121.108 1724.61 101.914 1770.29 101.836C1864.71 101.49 1999.34 134.249 2051.86 236.967M-819.599 794.624C-816.201 739.195 -795.964 692.509 -770.398 648.01C-748.35 609.518 -710.789 564.436 -670.916 541.877C-648.075 528.963 -625.54 524.278 -603.846 528.479C-539.621 541.4 -478.363 588.278 -412.906 592.354C-392.283 593.954 -371.739 590.878 -352.7 583.338C-284.232 553.565 -216.687 513.14 -148.328 479.531C-77.8382 444.87 -8.68631 431.23 59.9593 453.944C132.321 477.861 194.005 557.927 270.137 590.193C310.337 607.236 368.662 612.047 408.575 594.438C467.93 567.997 513.478 615.02 568.972 600.975C582.829 597.322 602.673 593.171 624.248 587.264C696.283 567.551 746.915 538.874 790.948 478.15C822.177 435.211 845.382 388.273 900.519 376.842C903.193 376.242 905.915 375.861 908.661 375.703C1041.15 368.57 1140.29 629.326 1260.87 579.546C1342.84 545.572 1408.96 367.019 1463.64 285.939C1504.59 224.944 1553.73 155.574 1621.56 125.886C1663.89 107.357 1719.01 88.9391 1764.91 89.3425C1860.63 90.2535 1997.64 124.281 2047.84 231.041M-824.056 778.199C-820.799 723.278 -804.885 670.455 -777.648 624.155C-754.35 585.335 -720.285 537.083 -680.385 514.068C-657.573 500.845 -634.987 496.114 -613.538 500.289C-549.336 512.801 -489.792 561.131 -424.882 568.515C-404.317 570.968 -383.668 568.297 -364.653 560.726C-292.66 530.454 -223.438 479.547 -155.639 443.024C-93.291 409.502 -20.768 377.806 51.661 407.849C131.72 441.085 188.543 527.375 260.815 564.796C304.654 587.522 356.797 604.843 407.477 581.015C467.326 552.943 516.104 601.068 572.708 586.578C586.37 582.904 605.835 578.51 627.028 572.41C697.55 551.672 742.344 522.692 784.066 462.746C814.504 419.062 838.434 371.537 893.094 359.853C895.751 359.235 898.458 358.835 901.19 358.658C1036.11 350.502 1131.49 616.323 1254.16 568.546C1337.61 536.154 1401.8 354.493 1455.5 272.597C1496.12 210.548 1545.97 140.844 1614.74 111.866C1657.53 93.7936 1713.19 76.2472 1759.31 76.9801C1856.46 78.7536 1995.58 114.379 2043.54 224.83M-828.502 761.622C-826.231 704.602 -811.36 649.37 -785.037 600.184C-763.257 560.44 -729.587 509.801 -689.454 486.199C-666.533 472.784 -643.699 468.027 -622.481 471.975C-558.236 483.777 -500.075 533.798 -435.756 544.384C-415.338 547.825 -394.606 545.625 -375.662 538.009C-299.606 506.477 -230.799 446.298 -161.812 404.035C-101.567 367.081 -28.9619 330.04 43.9562 360.134C127.239 394.574 181.668 484.591 251.917 534.14C294.379 564.065 349.709 592.835 403.64 566.542C463.671 537.112 517.209 587.875 575.572 571.987C589.087 568.298 608.066 563.803 628.851 557.15C697.344 535.793 737.434 505.659 777.394 447.161C807.514 403.036 831.313 355.242 886.108 342.96C888.77 342.35 891.476 341.933 894.207 341.714C1026.48 332.518 1124.05 606.827 1247.68 557.06C1334.64 521.975 1393.83 340.914 1447.43 259.007C1487.95 196.947 1538.51 126.094 1608.12 97.8162C1651.42 80.2557 1707.63 63.4799 1753.96 64.6943C1852.64 67.2897 1993.59 104.33 2039.36 218.479M-832.944 744.944C-831.57 686.02 -817.785 628.598 -792.556 576.709C-772.211 535.489 -738.675 483.001 -698.177 459.08C-675.041 445.381 -651.911 440.604 -630.733 444.395C-566.225 455.918 -509.217 507.094 -445.436 520.837C-425.171 525.381 -404.29 523.788 -385.305 516.249C-306.061 483.317 -236.57 410.36 -167.205 363.547C-108.874 324.099 -36.693 282.73 36.6015 312.303C122.003 346.708 176.385 440.698 242.483 499.349C281.132 533.67 338.954 577.18 395.286 550.271C457.05 520.665 515.668 575.272 576.921 558.004C590.387 554.31 608.942 549.515 629.124 543.054C694.955 520.96 732.122 488.737 770.349 431.996C800.39 387.556 823.915 339.428 878.784 326.746C881.451 326.143 884.157 325.71 886.886 325.449C1021.67 315.394 1115.03 593.343 1240.52 545.502C1329.26 511.725 1385.63 327.719 1438.99 245.685C1479.41 183.615 1530.87 111.835 1601.16 84.394C1645.03 67.3001 1699.89 53.2391 1748.33 52.9908C1851.29 52.3617 1993.68 99.5974 2034.76 212.39M-837.375 728.114C-836.909 667.246 -824.235 607.615 -800.16 553.021C-781.101 510.291 -747.357 456.039 -706.48 431.546C-682.98 417.528 -659.654 412.772 -638.119 416.344C-572.439 427.225 -516.677 479.444 -453.571 496.175C-433.277 502.212 -411.858 500.844 -392.942 492.303C-311.4 453.186 -244.544 374.243 -171.918 322.416C-114.273 281.316 -44.0401 237.194 29.4789 265.516C116.031 298.817 172.014 393.993 233.31 461.118C271.267 502.709 324.39 556.233 385.844 530.878C451.475 504.021 512.528 563.064 576.482 544.293C589.851 540.588 608.035 535.398 627.652 528.521C741.424 488.739 764.128 335.995 871.698 310.658C874.344 310.03 877.035 309.595 879.752 309.357C1017.46 298.229 1105.66 578.293 1233.53 533.453C1322.25 502.377 1378.4 314.013 1430.86 232.14C1471.15 169.088 1523.33 97.587 1594.7 71.023C1639.07 54.4919 1694.42 41.2977 1743.14 41.384C1847.86 41.6023 1991.18 89.9535 2030.51 206.134M-841.751 711.187C-844.281 647.287 -828.308 587.46 -807.691 529.748C-791.402 484.027 -756.068 429.533 -714.234 404.681C-693.578 391.741 -669.265 386.084 -644.78 388.523C-577.159 395.833 -521.96 449.217 -459.563 468.678C-439.238 475.6 -417.433 474.416 -398.476 465.364C-315.406 423.805 -248.994 336.045 -176.198 281.432C-119.961 239.216 -51.219 194.531 22.3629 221.024C109.766 252.477 167.137 348.307 224.158 420.136C259.3 464.289 311.49 533.829 376.514 508.846C444.672 482.507 504.275 549.965 574.508 530.727C588.317 527.069 605.585 521.579 624.725 514.449C735.552 472.931 758.643 320.279 864.848 294.748C867.51 294.089 870.219 293.622 872.956 293.351C1013.15 281.82 1096.84 562.432 1226.42 520.933C1314.73 492.618 1371.35 300.428 1422.89 218.459C1463.09 154.479 1516.22 83.3845 1588.43 57.723C1633.36 41.7598 1689.08 29.5742 1738.27 30.0155C1845.07 30.9599 1988.97 80.2387 2026.38 199.636M-846.225 694.251C-849.689 628.724 -834.811 566.691 -815.042 506.75C-799.699 459.604 -764.403 403.322 -721.413 378.08C-700.337 365.032 -675.918 358.583 -650.973 359.475C-581.8 362.358 -526.058 416.512 -464.204 438.416C-454.187 442.227 -443.606 443.925 -433.096 443.41C-422.586 442.894 -412.363 440.175 -403.038 435.415C-319.138 391.547 -253.747 297.97 -180.334 241.331C-125.106 198.703 -58.5025 155.987 15.1244 180.139C103.854 209.232 160.698 302.407 215.014 377.421C248.549 423.7 299.467 505.957 367.043 484.3C438.338 461.4 494.403 538.381 570.263 517.282C586.919 512.597 603.296 507.004 619.328 500.526C727.222 457.071 752.505 304.8 857.563 279.507C860.225 278.864 862.933 278.414 865.668 278.16C1007.67 266.103 1087.81 546.804 1218.6 508.747C1306.11 483.051 1363.8 287.097 1414.39 205.436C1454.59 140.539 1508.77 70.0635 1581.7 45.3449C1626.94 29.9748 1683.54 18.8488 1732.95 19.6702C1841.12 21.5226 1985.97 71.2581 2021.63 193.735M-850.65 677.319C-854.25 611.067 -844.804 545.249 -822.893 483.903C-805.51 435.593 -777.736 380.77 -729.118 352.036C-707.342 338.457 -682.504 330.739 -656.766 329.551C-586.238 327.986 -529.165 381.311 -467.727 405.976C-457.735 410.145 -447.075 412.061 -436.472 411.592C-425.869 411.124 -415.573 408.281 -406.283 403.259C-322.041 357.846 -258.371 260.214 -184.673 202.941C-130.106 160.653 -66.1541 122.657 7.35654 143.89C97.4097 169.858 153.352 256.871 205.88 333.738C238.897 382.054 292.738 476.854 357.622 457.363C425.218 436.983 483.97 526.329 563.861 503.713C577.786 499.761 593.978 494.159 612.039 486.967C720.389 443.304 745.209 289.762 850.566 264.398C853.228 263.739 855.937 263.272 858.674 263C1002.16 250.742 1079.64 530.807 1210.8 495.491C1297.22 472.333 1356.82 272.55 1406.23 191.684C1446.22 126.153 1501.65 56.1651 1575.5 32.5113C1624.66 16.6203 1676.13 8.66607 1728.15 8.92007C1837.93 11.7059 1983.27 61.4925 2017.47 186.978M-855.029 660.443C-863.253 544.908 -835.207 390.121 -736.582 326.068C-608.415 242.558 -510.129 423.222 -408.705 369.71C-277.819 300.455 -183.181 73.4285 -1.17696 113.681C86.917 133.07 143.927 213.107 193.711 285.761C227.693 335.198 275.994 442.473 348.267 428.496C397.628 418.96 417.868 456.51 458.499 476.964C508.531 502.224 554.173 497.145 604.152 474.314C707.176 427.597 740.736 271.193 843.705 249.456C990.333 218.863 1064.6 514.4 1202.82 481.962C1277.73 464.283 1317.57 316.233 1354.84 250.366C1406.97 158.618 1467.82 49.1684 1569.31 20.2905C1704.87 -18.3414 1963.93 -14.7169 2012.84 180.529" stroke="url(#paint0_linear_289_9451)" stroke-width="0.5" stroke-miterlimit="10"/>
<defs>
<linearGradient id="paint0_linear_289_9451" x1="1719.59" y1="183.659" x2="-170.933" y2="609.224" gradientUnits="userSpaceOnUse">
<stop offset="0.683304" stop-color="#FD6721"/>
<stop offset="0.820933" stop-color="#FD6721" stop-opacity="0"/>
</linearGradient>
</defs>
</svg>
